<ttFont>
          <CharString index="0">
            403 -52 callsubr
            -951 0 vhcurveto
            -156 -59 -56 -90 -47 vhcurveto
            810 hlineto
            110 18 297 73 -51 hvcurveto
            -157 -65 -52 -113 -237 hhcurveto
            -135 -17 15 256 -1 hvcurveto
            -1 453 1 -34 58 vvcurveto
            return
          </CharString>
          <CharString index="1">
            1002 142 rmoveto
            -53 -1 -40 -32 -49 vhcurveto
            350 -1 -32 73 0 76 18 82 rlinecurve
            79 361 114 588 47 129 38 113 28 56 60 53 rrcurveto
            -16 callsubr
            41 -39 21 -48 -68 vvcurveto
            -117 -113 -600 -77 -341 vhcurveto
            -75 323 -131 599 110 vvcurveto
            84 20 55 22 42 vhcurveto
            -374 hlineto
            41 -56 5 -77 -93 vvcurveto
            -106 -106 -559 -72 -309 vhcurveto
            -76 327 -138 582 166 vvcurveto
            45 1 38 17 42 vhcurveto
            -16 callsubr
            136 -188 229 -1028 -172 vvcurveto
            -53 -2 -40 -31 -49 vhcurveto
            350 -1 -30 73 -1 76 17 82 rlinecurve
            52 237 73 336 57 238 rrcurveto
            91 -385 94 -371 -143 vvcurveto
            return
          </CharString>
          <CharString index="2">
            855 146 rmoveto
            -54 -1 -42 -32 -50 vhcurveto
            370 -1 -32 75 0 79 18 84 rlinecurve
            55 190 103 277 28 77 42 115 24 48 60 66 rrcurveto
            -335 hlineto
            41 -50 21 -40 -70 vvcurveto
            -75 -104 -336 -63 -183 vhcurveto
            -65 182 -99 300 65 vvcurveto
            96 20 74 22 37 vhcurveto
            -329 hlineto
            41 -58 25 -69 -96 vvcurveto
            -78 -107 -277 -68 -166 vhcurveto
            -59 200 -98 332 83 vvcurveto
            46 1 40 17 43 vhcurveto
            -369 hlineto
            116 -130 187 25 callsubr
            370 -1 -32 75 -3 80 21 83 rlinecurve
            27 109 52 137 45 112 rrcurveto
            67 -185 56 -203 -61 vvcurveto
            return
          </CharString>
          <CharString index="3">
            661 80 rmoveto
            -161 -110 270 570 353 88 177 181 181 88 -177 -353 -570 -106 -270 -161 hvcurveto
            -2 -100 rmoveto
            362 169 356 584 398 -149 232 -382 -382 -149 -232 -398 -584 169 -356 362 hvcurveto
            return
          </CharString>
          <CharString index="4">
            575 rmoveto
            234 49 121 120 120 49 -121 -234 -335 -49 -160 -120 -120 -49 160 335 vhcurveto
            590 hmoveto
            289 -129 166 -292 -292 -129 -166 -289 -374 169 -221 252 252 169 221 374 vhcurveto
            return
          </CharString>
          <CharString index="5">
            1308 rmoveto
            7 117 19 52 20 53 rrcurveto
            -345 hlineto
            20 -53 19 -52 7 -117 18 -303 2 -34 callsubr
            -117 -10 -45 -28 -60 rrcurveto
            345 hlineto
            -28 60 -10 45 -42 callgsubr
            2 491 18 303 rrcurveto
            return
          </CharString>
          <CharString index="6">
            -154 -54 89 116 hvcurveto
            -134 hlineto
            -116 57 -254 291 250 68 254 116 vhcurveto
            -124 hlineto
            -116 -91 -89 -109 vhcurveto
            endchar
          </CharString>
          <CharString index="7">
            431 1030 rmoveto
            -182 -155 -100 -163 hvcurveto
            -335 489 -10 -212 vvcurveto
            -69 -52 -55 -91 -144 -87 166 85 25 vhcurveto
            -69 -14 -99 -97 -10 -104 rrcurveto
            -69 31 119 -73 180 hhcurveto
            313 89 181 134 hvcurveto
            279 -489 37 198 vvcurveto
            65 66 46 77 141 48 -82 -197 41 vhcurveto
            66 65 27 119 99 vvcurveto
            59 -9 45 -18 41 vhcurveto
            return
          </CharString>
          <CharString index="8">
            249 hintmask 0000000000000000
            hintmask 1101001010000000
            513 1550 rmoveto
            -272 -95 -173 -145 hvcurveto
            -466 571 -150 -342 vvcurveto
            -121 -56 -73 -111 vhcurveto
            hintmask 1101010010000000
            -138 -81 121 164 68 7 44 6 53 hvcurveto
            -82 -22 -113 -67 -41 -141 rrcurveto
            -209 210 -111 202 268 178 159 206 vhcurveto
            hintmask 1101001010000000
            390 -580 248 292 vvcurveto
            75 34 80 106 182 120 -236 -174 18 vhcurveto
            38 20 20 128 131 vvcurveto
            73 -6 192 -67 36 vhcurveto
            hintmask 1011001010000000
            -56 -37 -24 -14 -55 hhcurveto
            hintmask 1101001010000000
            -57 -22 20 -123 hhcurveto
            hintmask 0000100100000000
            return
          </CharString>
          <CharString index="9">
            rmoveto
            11 60 -10 38 -20 36 rrcurveto
            -296 hlineto
            39 -28 43 -95 -66 vvcurveto
            -58 -24 -63 -77 -64 vhcurveto
            23 -22 20 -12 19 -7 90 25 160 130 22 126 rrcurveto
            endchar
          </CharString>
          <CharString index="10">
            666 1010 rmoveto
            -287 -302 -212 13 callsubr
            -132 201 80 72 18 26 58 hvcurveto
            -45 -276 -99 -95 -80 -33 5 -26 30 -33 26 -11 rrcurveto
            147 47 246 169 586 vvcurveto
            118 2 186 6 126 vhcurveto
            6 120 10 44 18 64 rrcurveto
            -250 -676 rmoveto
            -167 -81 -87 -91 -126 -19 152 147 292 120 201 187 36 vhcurveto
            22 -156 -12 -264 -154 vvcurveto
            return
          </CharString>
          <CharString index="11">
            344 708 rmoveto
            -13 -1 -396 -58 vvcurveto
            -96 -35 -98 -94 -47 vhcurveto
            511 hlineto
            -102 59 -38 68 137 vvcurveto
            457 vlineto
            146 89 193 69 145 vhcurveto
            57 120 89 152 50 53 rrcurveto
            -275 hlineto
            12 -63 -25 -146 -41 -106 -26 -67 -38 -93 -49 -73 -49 79 -32 82 -25 62 -42 104 -34 158 22 63 rrcurveto
            -403 hlineto
            80 -53 93 -171 53 -111 rrcurveto
            48 -100 136 -254 -133 vvcurveto
            return
          </CharString>
          <CharString index="12">
            329 986 rmoveto
            224 38 220 246 144 73 -106 -254 48 vhcurveto
            95 123 17 337 -52 70 rrcurveto
            -92 -64 -104 22 -201 hhcurveto
            -285 -229 -138 -361 -676 369 -365 466 hvcurveto
            40 6 32 54 3 30 rrcurveto
            -383 -253 378 528 hvcurveto
            return
          </CharString>
          <CharString index="13">
            405 1530 rmoveto
            -311 hlineto
            67 -59 17 -66 -81 callgsubr
            -10 -52 -28 -53 rrcurveto
            268 hlineto
            -24 48 -18 52 -4 121 -9 297 -8 287 6 284 209 -376 190 -347 193 -366 rrcurveto
            162 hlineto
            -4 78 0 129 131 vvcurveto
            408 vlineto
            return
          </CharString>
          <CharString index="14">
            -103 hlineto
            71 -70 168 -212 9 -18 rrcurveto
            194 hlineto
            9 18 168 212 71 70 rrcurveto
            -103 hlineto
            -47 -22 -95 -51 -99 -83 -101 84 -96 49 -46 23 rrcurveto
            endchar
          </CharString>
          <CharString index="15">
            540 1313 rmoveto
            -69 -211 -215 -594 -119 -286 -51 -122 -35 -57 -40 -43 rrcurveto
            780 hlineto
            91 37 267 103 -51 hvcurveto
            -197 -98 -92 -73 -174 hhcurveto
            -80 -56 20 102 34 hvcurveto
            98 296 181 514 115 278 49 117 25 50 34 53 rrcurveto
            -714 hlineto
            -109 -19 -355 -55 51 hvcurveto
            181 63 76 129 155 hhcurveto
            131 35 -16 -101 -33 hvcurveto
            return
          </CharString>
          <CharString index="16">
            469 784 rmoveto
            -55 -110 -169 -297 -78 -149 -63 -119 -33 -44 -40 -65 rrcurveto
            704 hlineto
            89 16 23 213 -51 107 rrcurveto
            -162 -76 -72 -74 -156 hhcurveto
            -84 -44 30 98 46 hvcurveto
            69 148 144 259 78 146 62 116 29 47 37 66 rrcurveto
            -648 hlineto
            -107 -10 -17 -262 51 -118 rrcurveto
            193 63 90 107 135 hhcurveto
            91 33 -34 -102 -51 hvcurveto
            return
          </CharString>
          <CharString index="17">
            60 657 rmoveto
            -465 435 -212 185 vhcurveto
            35 18 34 37 5 35 rrcurveto
            -132 -304 182 404 169 62 105 100 115 66 -103 -247 40 hvcurveto
            60 76 25 134 124 vvcurveto
            59 -8 56 -17 41 vhcurveto
            return
          </CharString>
          <CharString index="18">
            -6 -88 -90 callgsubr
            88 -6 return
          </CharString>
          <CharString index="19">
            82 31 55 85 90 16 -34 -68 6 vhcurveto
            39 -435 126 -334 59 -79 rrcurveto
            375 hlineto
            -200 169 -221 399 -18 407 rrcurveto
            153 64 120 127 145 vvcurveto
            165 -150 54 -314 vhcurveto
            200 -274 rmoveto
            -79 -57 -117 -176 -142 -22 59 132 vhcurveto
            171 1 27 8 135 hhcurveto
            201 33 -85 -89 hvcurveto
            return
          </CharString>
          <CharString index="20">
            rmoveto
            -94 hlineto
            70 -77 155 -282 10 -21 rrcurveto
            196 hlineto
            10 21 155 282 70 77 rrcurveto
            -94 hlineto
            -45 -25 -100 -82 -95 -98 -94 97 -99 84 -45 24 rrcurveto
            endchar
          </CharString>
          <CharString index="21">
            -39 callsubr
            295 hlineto
            -18 65 -7 43 -9 -50 callgsubr
            -6 88 -1 259 112 vvcurveto
            return
          </CharString>
          <CharString index="22">
            101 46 71 69 hvcurveto
            -268 hlineto
            -72 -21 30 125 114 13 103 8 28 hvcurveto
            -137 2 -47 -356 -151 -117 rrcurveto
            77 -35 15 -4 -315 vvcurveto
            -514 121 -91 331 vhcurveto
            22 11 40 58 -1 21 rrcurveto
            -286 -18 231 448 hvcurveto
            return
          </CharString>
          <CharString index="23">
            -97 2 62 279 117 56 72 78 99 24 -93 -248 28 hvcurveto
            60 77 35 153 125 vvcurveto
            58 -18 58 -17 20 vhcurveto
            -51 -31 -40 -9 -49 hhcurveto
            return
          </CharString>
          <CharString index="24">
            162 21 -21 967 117 356 90 hstemhm
            51 652 -502 223 437 264 hintmask 11110100
            146 hmoveto
            665 -25 314 386 670 vvcurveto
            361 -211 138 -273 vhcurveto
            -549 hlineto
            67 -69 17 -56 6 -137 7 -180 rcurveline
            -53 4 -50 7 -35 14 rrcurveto
            -175 vlineto
            37 18 52 7 54 2 8 -255 4 -283 -14 -205 -30 callsubr
            715 986 rmoveto
            -513 -133 -323 -240 -51 -10 39 76 -2 vhcurveto
            hintmask 11101100
            211 -1 234 255 vvcurveto
            hintmask 11110100
            105 -3 111 -8 63 -16 rrcurveto
            175 vlineto
            hintmask 11101100
            -62 -15 -112 -9 -105 -3 rrcurveto
            175 vlineto
            161 1 27 18 135 hhcurveto
            237 37 -230 -224 hvcurveto
            endchar
          </CharString>
          <CharString index="25">
            rmoveto
            8 80 9 -20 callsubr
            29 -101 -96 vvcurveto
            -87 0 -129 -66 -95 vhcurveto
            22 -15 26 -20 13 -7 77 45 109 159 2 callsubr
          </CharString>
          <CharString index="26">
            757 1530 rmoveto
            -80 -96 -198 -158 -168 -272 rrcurveto
            -110 -178 -101 -254 -340 vvcurveto
            -89 -10 -63 -24 -80 vhcurveto
            299 hlineto
            -52 91 -32 132 135 vvcurveto
            171 60 184 86 159 vhcurveto
            10 hlineto
            177 216 -214 -498 -54 -8 -55 -19 -51 hvcurveto
            705 -60 callsubr
            return
          </CharString>
          <CharString index="27">
            -94 72 -77 89 89 72 77 94 94 -72 77 -89 -89 -72 -77 -94 vhcurveto
            return
          </CharString>
          <CharString index="28">
            rmoveto
            88 -192 163 -177 56 -41 rrcurveto
            114 hlineto
            -49 85 -116 300 25 vvcurveto
            endchar
          </CharString>
          <CharString index="29">
            30 callgsubr
            -70 callsubr
            355 hlineto
            -34 58 -26 42 -7 121 rrcurveto
            -9 157 -1 277 158 vvcurveto
            return
          </CharString>
          <CharString index="30">
            848 869 rmoveto
            -263 6 -206 -20 -198 vhcurveto
            -10 -102 -26 -46 -40 -54 rrcurveto
            375 hlineto
            -28 63 -10 42 -42 callgsubr
            3 491 17 303 19 callsubr
            -375 hlineto
            67 -69 17 -107 -124 vvcurveto
            -124 -42 -4 -124 vhcurveto
            -95 hlineto
            -122 -42 4 124 116 10 105 73 79 hvcurveto
            -375 18 callsubr
            17 -303 3 -491 -20 -292 -30 callsubr
            375 hlineto
            -40 54 -26 46 -10 102 rrcurveto
            -20 200 7 202 265 vvcurveto
            62 9 51 130 vhcurveto
            158 hlineto
            131 9 -51 -62 hvcurveto
            return
          </CharString>
          <CharString index="31">
            488 hmoveto
            235 -110 136 -251 -251 -110 -136 -235 -302 145 -177 216 216 145 177 302 vhcurveto
            return
          </CharString>
          <CharString index="32">
            -11 140 2 91 252 vvcurveto
            52 12 37 54 vhcurveto
            52 14 -20 49 hhcurveto
            73 20 83 47 14 hvcurveto
            -184 hlineto
            return
          </CharString>
          <CharString index="33">
            15 -121 rrcurveto
            9 -71 3 -84 -9 callsubr
            return
          </CharString>
          <CharString index="34">
            -301 -1 rlineto
            55 -74 32 -372 -336 vvcurveto
            -113 0 -94 -1 -84 vhcurveto
            -200 363 -196 347 -157 363 rrcurveto
            return
          </CharString>
          <CharString index="35">
            -43 -18 -65 rrcurveto
            return
          </CharString>
          <CharString index="36">
            8 80 -11 51 -14 -31 callsubr
            -65 -95 vhcurveto
            21 -15 26 -20 14 -7 76 46 130 158 1 callsubr
            return
          </CharString>
          <CharString index="37">
            67 -69 17 -56 -81 callgsubr
            -10 -42 -28 -63 rrcurveto
            return
          </CharString>
          <CharString index="38">
            80 12 -132 148 hhcurveto
            94 98 71 128 64 hvcurveto
            -80 73 rlineto
            -43 -31 -39 -61 -73 hhcurveto
            return
          </CharString>
          <CharString index="39">
            -57 callsubr
            114 -7 callsubr
            return
          </CharString>
          <CharString index="40">
            rmoveto
            85 37 45 68 67 38 -45 -85 -83 -48 -45 -57 -57 -48 45 83 vhcurveto
            367 hmoveto
            139 -123 74 -139 -140 -122 -74 -139 -138 122 -73 140 139 123 73 138 vhcurveto
            endchar
          </CharString>
          <CharString index="41">
            rmoveto
            175 115 104 126 93 -83 42 -49 28 hvcurveto
            61 6 58 19 45 vhcurveto
            -88 31 -4 -43 -31 -118 -37 -71 rlinecurve
            45 -16 57 -28 -72 vvcurveto
            -92 -88 -68 -97 -10 vhcurveto
            11 -10 15 -38 34 -22 rrcurveto
            endchar
          </CharString>
          <CharString index="42">
            524 1030 rmoveto
            -202 -71 -70 -101 hhcurveto
            -5 -25 -11 -53 -59 vvcurveto
            -75 18 -84 71 -44 vhcurveto
            145 35 102 165 125 hhcurveto
            -7 callgsubr
            217 105 110 91 52 vhcurveto
            -123 67 114 -78 172 hhcurveto
            396 -22 319 41 -64 hvcurveto
            -170 -78 -99 -90 -97 hhcurveto
            -141 -60 142 151 -16 hvcurveto
            return
          </CharString>
          <CharString index="43">
            -157 -4 -77 -91 -91 hhcurveto
            13 callgsubr
            299 125 215 194 30 hvcurveto
            6 -206 -3 -192 -5 -186 rrcurveto
            return
          </CharString>
          <CharString index="44">
            66 1530 rmoveto
            67 -69 17 -56 -81 callgsubr
            -20 -52 -28 -53 rrcurveto
            425 hlineto
            -80 58 -25 42 -11 121 rrcurveto
            -13 151 2 289 152 vvcurveto
            72 11 65 65 429 146 189 172 165 -140 54 -294 vhcurveto
            170 -264 rmoveto
            -79 -80 -127 -173 -112 -22 37 164 161 58 8 95 201 33 -80 -84 vhcurveto
            return
          </CharString>
          <CharString index="45">
            21 -59 callgsubr
            return
          </CharString>
          <CharString index="46">
            42 18 66 rrcurveto
            -365 hlineto
            return
          </CharString>
          <CharString index="47">
            hlineto
            110 18 297 73 -51 hvcurveto
            -157 -65 -52 -113 -237 hhcurveto
            -135 -17 15 256 -1 hvcurveto
            -1 453 1 -34 58 vvcurveto
            94 23 38 113 vhcurveto
            73 20 -20 62 hhcurveto
            122 34 76 54 21 hvcurveto
            -314 hlineto
            -142 -12 48 118 161 18 13 135 237 42 -113 -157 75 hvcurveto
            51 103 -38 237 -90 30 rrcurveto
            return
          </CharString>
          <CharString index="48">
            98 20 -21 22 -21 839 115 576 -20 return
          </CharString>
          <CharString index="49">
            -8 -120 -20 -43 -28 -65 rrcurveto
            272 hlineto
            287 280 210 472 228 -134 120 -201 -88 -78 -21 -30 -60 hvcurveto
            2 110 4 109 7 102 rrcurveto
            -12 -584 rmoveto
            139 79 75 86 126 19 -146 -152 -295 -119 -219 -184 -41 vhcurveto
            -16 131 9 303 205 vvcurveto
            return
          </CharString>
          <CharString index="50">
            hlineto
            -18 65 -8 43 -8 -50 callgsubr
            -6 88 -6 return
          </CharString>
          <CharString index="51">
            -71 -65 -279 -279 -65 hhcurveto
            -110 vlineto
            65 279 -279 -71 65 hvcurveto
            -27 149 -69 154 -55 102 55 101 69 154 27 150 rrcurveto
            return
          </CharString>
          <CharString index="52">
            -92 -16 130 -172 hhcurveto
            -98 -102 -80 -140 -66 hvcurveto
            endchar
          </CharString>
          <CharString index="53">
            170 -129 -46 callgsubr
            return
          </CharString>
          <CharString index="54">
            -20 -47 callsubr
            return
          </CharString>
          <CharString index="55">
            848 rmoveto
            94 23 38 113 vhcurveto
            73 20 -20 62 hhcurveto
            122 34 76 54 21 hvcurveto
            -314 hlineto
            -142 -12 48 118 161 18 13 135 237 42 -113 -157 75 hvcurveto
            51 103 -38 237 -90 30 rrcurveto
            -752 hlineto
            67 -59 23 -66 -137 vvcurveto
            -58 1 return
          </CharString>
          <CharString index="56">
            134 28 241 16 73 vhcurveto
            17 76 6 27 13 39 rrcurveto
            -296 hlineto
            13 -39 6 -27 17 -76 rrcurveto
            16 -73 28 -241 -134 vvcurveto
            return
          </CharString>
          <CharString index="57">
            207 -92 136 -163 -139 -105 -86 -100 -64 vhcurveto
            return
          </CharString>
          <CharString index="58">
            rmoveto
            118 -103 192 -142 192 -110 -192 -111 -192 -142 -118 -102 -9 -24 2 -38 2 -28 rrcurveto
            79 171 600 291 68 hhcurveto
            150 vlineto
            -68 -600 291 79 -171 hvcurveto
            -2 -28 -2 -38 9 -24 rrcurveto
            return
          </CharString>
          <CharString index="59">
            100 1350 120 -20 -20 90 -20 return
          </CharString>
          <CharString index="60">
            100 -59 -21 524 95 311 100 return
          </CharString>
          <CharString index="61">
            125 27 -240 238 hhcurveto
            158 161 140 230 97 hvcurveto
            -100 60 rlineto
            -87 -55 -75 -123 -133 hhcurveto
            return
          </CharString>
          <CharString index="62">
            -20 100 293 94 463 100 return
          </CharString>
          <CharString index="63">
            vhcurveto
            -8 -120 return
          </CharString>
          <CharString index="64">
            27 -150 69 -154 55 -101 -55 -102 -69 -154 -27 -149 rrcurveto
            71 65 279 279 65 hhcurveto
            110 vlineto
            return
          </CharString>
          <CharString index="65">
            51 rrcurveto
            -277 hlineto
            46 -36 return
          </CharString>
          <CharString index="66">
            -22 callgsubr
            -66 return
          </CharString>
          <CharString index="67">
            -120 90 hvcurveto
            endchar
          </CharString>
          <CharString index="68">
            -114 -6 -88 hvcurveto
            -9 -120 -7 -72 callsubr
            return
          </CharString>
          <CharString index="69">
            hstemhm
            108 223 -185 240 return
          </CharString>
          <CharString index="70">
            -215 -125 -152 -221 hvcurveto
            return
          </CharString>
          <CharString index="71">
            rmoveto
            8 80 -11 51 -13 -31 callsubr
            -66 -95 vhcurveto
            22 -15 26 -20 13 -7 77 45 129 159 2 callsubr
          </CharString>
          <CharString index="72">
            -52 -30 -41 -8 -49 -75 -73 20 -93 hhcurveto
            return
          </CharString>
          <CharString index="73">
            -491 -29 callsubr
            return
          </CharString>
          <CharString index="74">
            74 30 44 90 80 vvcurveto
            56 -4 43 -16 41 vhcurveto
            -151 -74 -66 -99 -115 hhcurveto
            -55 -39 3 47 hvcurveto
            111 309 406 223 vvcurveto
            112 -79 78 -167 vhcurveto
            return
          </CharString>
          <CharString index="75">
            rmoveto
            9 60 -8 38 -16 36 rrcurveto
            -237 hlineto
            31 -28 35 -95 -66 vvcurveto
            -58 -20 -63 -61 -64 vhcurveto
            18 -22 16 -12 15 -7 72 25 128 130 18 126 rrcurveto
            endchar
          </CharString>
          <CharString index="76">
            -42 callsubr
            49 -101 -96 vvcurveto
            -87 -20 -129 return
          </CharString>
          <CharString index="77">
            -8 -117 -10 -42 -28 -63 rrcurveto
            return
          </CharString>
          <CharString index="78">
            -20 -292 -8 return
          </CharString>
          <CharString index="79">
            -37 -10 90 1350 100 70 -20 return
          </CharString>
          <CharString index="80">
            -39 38 -30 44 -15 176 111 -3 122 -8 67 -17 rrcurveto
            220 vlineto
            -68 -18 -127 -8 -113 -2 -2 73 -1 86 1 104 rrcurveto
            endchar
          </CharString>
          <CharString index="81">
            397 1300 rmoveto
            8 122 8 -41 callsubr
            38 -41 10 -123 25 -303 -10 -548 -15 -221 rrcurveto
            return
          </CharString>
          <CharString index="82">
            -83 -429 -21 430 100 834 96 return
          </CharString>
          <CharString index="83">
            -429 -21 430 170 860 -20 return
          </CharString>
          <CharString index="84">
            -677 -171 rmoveto
            -604 vlineto
            127 -59 -106 85 -145 hhcurveto
            -14 -13 -1 -2 -12 hvcurveto
            117 176 151 148 81 71 rrcurveto
            return
          </CharString>
          <CharString index="85">
            -48 65 -37 43 -11 -50 callgsubr
            return
          </CharString>
          <CharString index="86">
            343 8 194 157 242 vvcurveto
            97 -78 153 -225 return
          </CharString>
          <CharString index="87">
            51 -13 -42 callsubr
            return
          </CharString>
          <CharString index="88">
            -10 -72 callsubr
            return
          </CharString>
          <CharString index="89">
            -113 -6 return
          </CharString>
          <CharString index="90">
            -100 -63 callgsubr
            return
          </CharString>
          <CharString index="91">
            -355 hlineto
            return
          </CharString>
          <CharString index="92">
            rmoveto
            43 31 39 57 73 hhcurveto
            return
          </CharString>
          <CharString index="93">
            rmoveto
            43 31 39 61 73 hhcurveto
            return
          </CharString>
          <CharString index="94">
            28 69 17 51 31 44 rrcurveto
            -309 hlineto
            11 -15 4 -23 -27 vvcurveto
            -132 -132 -246 -175 2 vhcurveto
            return
          </CharString>
          <CharString index="95">
            92 18 59 70 vhcurveto
            53 24 -30 62 hhcurveto
            return
          </CharString>
          <CharString index="96">
            -106 -254 48 hvcurveto
            95 123 return
          </CharString>
          <CharString index="97">
            -52 -46 -38 1 -47 hhcurveto
            return
          </CharString>
          <CharString index="98">
            -85 vvcurveto
            -18 callsubr
            return
          </CharString>
          <CharString index="99">
            -64 -43 -20 -35 hhcurveto
            -58 -20 14 56 -34 hvcurveto
            -49 -26 -41 -189 -55 vvcurveto
            -119 27 -107 54 -24 vhcurveto
            return
          </CharString>
          <CharString index="100">
            113 vvcurveto
            return
          </CharString>
          <CharString index="101">
            116 21 8 callsubr
            return
          </CharString>
          <CharString index="102">
            128 262 return
          </CharString>
          <CharString index="103">
            rmoveto
            323 89 108 111 80 36 -73 -83 -163 -79 -127 -237 -16 vhcurveto
            endchar
          </CharString>
          <CharString index="104">
            90 800 140 -110 110 return
          </CharString>
          <CharString index="105">
            165 205 -20 hstemhm
            return
          </CharString>
          <CharString index="106">
            134 408 124 return
          </CharString>
          <CharString index="107">
            21 20 callgsubr
            return
          </CharString>
          <CharString index="108">
            17 200 rrcurveto
            return
          </CharString>
          <CharString index="109">
            1 callsubr
            endchar
          </CharString>
          <CharString index="110">
            944 683 rmoveto
            228 -134 119 -201 -117 -99 -36 -48 -64 vhcurveto
            return
          </CharString>
          <CharString index="111">
            36 112 29 57 21 53 rrcurveto
            -245 hlineto
            18 -63 2 -47 -34 -112 rrcurveto
            return
          </CharString>
          <CharString index="112">
            -1 -117 -5 -72 -20 -63 rrcurveto
            235 hlineto
            -20 63 -5 72 -1 117 return
          </CharString>
          <CharString index="113">
            -85 64 -69 81 80 64 69 85 84 -64 70 -80 -81 -64 -70 -84 vhcurveto
            return
          </CharString>
          <CharString index="114">
            -7 71 -6 70 -3 71 rrcurveto
            281 9 289 224 449 vvcurveto
            return
          </CharString>
          <CharString index="115">
            28 callsubr
            -30 -20 420 100 return
          </CharString>
          <CharString index="116">
            -500 rmoveto
            175 115 104 126 93 -83 42 -49 28 hvcurveto
            return
          </CharString>
          <CharString index="117">
            7 68 6 35 14 51 rrcurveto
            484 -390 rmoveto
            -4 -18 rlineto
            return
          </CharString>
          <CharString index="118">
            rmoveto
            87 55 75 123 133 hhcurveto
            return
          </CharString>
          <CharString index="119">
            -180 0 100 820 90 return
          </CharString>
          <CharString index="120">
            -459 -227 134 return
          </CharString>
          <CharString index="121">
            -9 -419 -21 441 89 -26 26 827 93 -80 100 return
          </CharString>
          <CharString index="122">
            91 0 170 790 110 -62 37 385 100 return
          </CharString>
          <CharString index="123">
            -20 hstemhm
            173 57 324 226 -223 193 return
          </CharString>
          <CharString index="124">
            628 0 100 772 95 13 110 340 100 return
          </CharString>
          <CharString index="125">
            hlineto
            28 -63 11 -42 7 -117 return
          </CharString>
          <CharString index="126">
            7 117 11 42 28 63 rrcurveto
            return
          </CharString>
          <CharString index="127">
            hstemhm
            -5 callsubr
            return
          </CharString>
          <CharString index="128">
            6 122 10 -22 callgsubr
            return
          </CharString>
          <CharString index="129">
            -120 1830 hstem
            return
          </CharString>
          <CharString index="130">
            500 -20 hstemhm
            return
          </CharString>
          <CharString index="131">
            hstemhm
            100 181 549 248 -247 18 return
          </CharString>
          <CharString index="132">
            -613 -121 vvcurveto
            -54 -1 -42 -32 -50 vhcurveto
            return
          </CharString>
          <CharString index="133">
            74 21 -21 860 170 return
          </CharString>
          <CharString index="134">
            hstemhm
            136 252 return
          </CharString>
          <CharString index="135">
            -21 950 110 return
          </CharString>
          <CharString index="136">
            hstemhm
            156 202 return
          </CharString>
          <CharString index="137">
            -482 121 return
          </CharString>
          <CharString index="138">
            -20 -3 callsubr
            return
          </CharString>
          <CharString index="139">
            170 hstem
            158 692 vstem
            510 return
          </CharString>
          <CharString index="140">
            -20 -20 callgsubr
            return
          </CharString>
          <CharString index="141">
            1 21 28 callsubr
            370 100 return
          </CharString>
        <CharString name=".notdef">
          301 0 100 133 229 741 80 147 100 hstem
          158 130 271 131 102 194 93 130 vstem
          1209 1345 rmoveto
          114 8 28 12 43 vhcurveto
          -1091 hlineto
          12 -43 8 -28 -114 vvcurveto
          -1160 vlineto
          -114 -8 -28 -12 -43 vhcurveto
          1091 hlineto
          -12 43 -8 28 114 vvcurveto
          -738 -85 rmoveto
          -87 -96 30 83 767 -1 215 1 122 hvcurveto
          83 96 30 87 vhcurveto
          355 hlineto
          87 166 -30 -83 hvcurveto
          1 -122 -1 -215 -767 vvcurveto
          -83 -96 -30 -87 vhcurveto
          -321 554 rmoveto
          -14 -43 -5 -43 3 -33 rrcurveto
          158 hlineto
          -19 28 -8 8 57 vvcurveto
          135 299 95 -3 204 vhcurveto
          156 -3 -102 65 -155 -78 -49 -17 -42 hhcurveto
          -49 -11 7 38 -28 hvcurveto
          -48 -18 -9 -146 -50 vvcurveto
          -87 9 -107 38 -18 vhcurveto
          133 15 96 185 140 hhcurveto
          54 28 -43 -74 -188 -164 -91 -53 -153 hvcurveto
          -52 -306 rmoveto
          -64 50 -51 62 62 50 51 64 62 -50 52 -62 -62 -50 -52 -62 vhcurveto
          endchar
        </CharString>
        <CharString name=".null">
          endchar
        </CharString>
        <CharString name="A">
          -59 callsubr
          23 callgsubr
          hintmask 01111000
          808 307 rmoveto
          14 -150 16 -20 -25 -137 rrcurveto
          349 hlineto
          -123 157 -138 1021 -18 153 -10 87 8 66 41 46 rrcurveto
          -315 hlineto
          -134 -158 -383 -293 -847 vvcurveto
          hintmask 10111000
          -89 0 -84 -24 -60 vhcurveto
          299 hlineto
          -72 155 -28 105 223 vvcurveto
          130 22 117 34 104 vhcurveto
          181 44 272 -196 34 -374 rrcurveto
          -191 1021 rmoveto
          18 -95 25 -111 52 -283 -98 123 -173 7 -79 -30 79 181 109 132 67 76 rrcurveto
          endchar
        </CharString>
        <CharString name="AE">
          17 callsubr
          24 callsubr
          736 27 hintmask 11111101
          -81 callsubr
          hintmask 11111011
          -23 callsubr
          endchar
        </CharString>
        <CharString name="AEacute">
          17 callsubr
          162 300 24 callsubr
          90 487 159 27 hintmask 1111011001000000
          -81 callsubr
          hintmask 1111010101000000
          -23 callsubr
          hintmask 0000100010000000
          338 633 rmoveto
          -93 callgsubr
        </CharString>
        <CharString name="Aacute">
          -59 callsubr
          182 300 23 callgsubr
          375 487 -105 callgsubr
          hintmask 00001010
          253 664 rmoveto
          -93 callgsubr
        </CharString>
        <CharString name="Abreve">
          -59 callsubr
          100 165 23 callgsubr
          153 -1 callsubr
          -105 callgsubr
          hintmask 00001011
          143 447 rmoveto
          -101 callsubr
        </CharString>
        <CharString name="Acircumflex">
          -59 callsubr
          370 101 23 callgsubr
          116 690 -105 callgsubr
          hintmask 00001010
          351 353 rmoveto
          -101 callgsubr
        </CharString>
        <CharString name="Adieresis">
          -59 callsubr
          148 302 23 callgsubr
          122 678 -105 callgsubr
          hintmask 00001010
          -97 330 -47 callgsubr
          -86 callgsubr
        </CharString>
        <CharString name="Agrave">
          -59 callsubr
          183 300 23 callgsubr
          108 487 -105 callgsubr
          hintmask 00001010
          -244 665 -79 callgsubr
        </CharString>
        <CharString name="Amacron">
          -59 callsubr
          212 170 23 callgsubr
          105 692 -105 callgsubr
          hintmask 00001010
          105 564 rmoveto
          -96 callgsubr
        </CharString>
        <CharString name="Aogonek">
          98 30 callsubr
          381 -21 22 -21 839 115 576 -20 23 callgsubr
          387 195 hintmask 10111110
          1073 -71 callgsubr
          76 68 71 54 65 hvcurveto
          193 hlineto
          -123 157 -138 1021 -18 153 -10 87 8 66 41 46 rrcurveto
          -315 hlineto
          -134 -158 -383 -293 -847 vvcurveto
          hintmask 11011110
          -89 0 -84 -24 -60 vhcurveto
          299 hlineto
          -72 155 -28 105 223 vvcurveto
          130 22 117 34 104 vhcurveto
          181 44 272 -196 34 -374 13 -144 16 -25 -21 -123 rrcurveto
          -50 -95 -114 -99 -105 -63 callgsubr
          -456 1758 rmoveto
          18 -95 25 -111 52 -283 -98 123 -173 7 -79 -30 79 181 109 132 67 76 rrcurveto
          endchar
        </CharString>
        <CharString name="Aring">
          -59 callsubr
          86 83 258 83 23 callgsubr
          199 157 210 157 hintmask 0111001000000000
          808 307 rmoveto
          14 -150 16 -20 -25 -137 rrcurveto
          349 hlineto
          -123 157 -138 1021 -18 153 -10 87 8 66 41 46 rrcurveto
          -315 hlineto
          -134 -158 -383 -293 -847 vvcurveto
          hintmask 1011001000000000
          -89 0 -84 -24 -60 vhcurveto
          299 hlineto
          -72 155 -28 105 223 vvcurveto
          130 22 117 34 104 vhcurveto
          181 44 272 -196 34 -374 rrcurveto
          -191 1021 rmoveto
          18 -95 25 -111 52 -283 -98 123 -173 7 -79 -30 79 181 109 132 67 76 rrcurveto
          hintmask 0000110110000000
          4 479 -67 callsubr
        </CharString>
        <CharString name="Atilde">
          -59 callsubr
          195 0 callgsubr
          90 175 88 749 hintmask 01110010
          808 307 rmoveto
          14 -150 16 -20 -25 -137 rrcurveto
          349 hlineto
          -123 157 -138 1021 -18 153 -10 87 8 66 41 46 rrcurveto
          -315 hlineto
          -134 -158 -383 -293 -847 vvcurveto
          hintmask 10110010
          -89 0 -84 -24 -60 vhcurveto
          299 hlineto
          -72 155 -28 105 223 vvcurveto
          130 22 117 34 104 vhcurveto
          181 44 272 -196 34 -374 rrcurveto
          -191 1021 rmoveto
          18 -95 25 -111 52 -283 -98 123 -173 7 -79 -30 79 181 109 132 67 76 rrcurveto
          hintmask 00000000
          -194 407 -15 callsubr
          hintmask 00000101
          -68 callgsubr
          hintmask 00001001
          -55 callsubr
        </CharString>
        <CharString name="B">
          15 callsubr
          hstemhm
          168 233 387 264 -224 264 hintmask 10111100
          -32 callgsubr
          hintmask 10111010
          7 callgsubr
          hintmask 10111100
          168 74 78 100 102 vvcurveto
          hintmask 10111010
          -13 callgsubr
          hintmask 11011010
          15 callgsubr
          hintmask 10111100
          -40 560 rmoveto
          hintmask 11011100
          -15 callgsubr
          endchar
        </CharString>
        <CharString name="C">
          -28 callsubr
          hstem
          55 274 609 29 vstem
          -95 callsubr
          endchar
        </CharString>
        <CharString name="CR">
          endchar
        </CharString>
        <CharString name="Cacute">
          -28 callsubr
          112 -18 callgsubr
          55 274 165 487 -43 29 hintmask 11101010
          -95 callsubr
          hintmask 00010100
          395 1006 rmoveto
          -93 callgsubr
        </CharString>
        <CharString name="Ccaron">
          -28 callsubr
          100 -18 callgsubr
          55 274 -94 690 13 29 hintmask 11101010
          -95 callsubr
          hintmask 00010100
          9 994 rmoveto
          -93 callsubr
        </CharString>
        <CharString name="Ccedilla">
          -28 callsubr
          hstemhm
          55 274 609 29 vstemhm
          -95 callsubr
          69 -1486 -66 callsubr
        </CharString>
        <CharString name="Ccircumflex">
          -28 callsubr
          300 101 hstemhm
          55 274 -114 690 33 29 hintmask 11101010
          -95 callsubr
          hintmask 00010100
          473 695 rmoveto
          -101 callgsubr
        </CharString>
        <CharString name="Cdotaccent">
          -28 callsubr
          85 320 hstemhm
          55 274 121 283 205 29 hintmask 11101010
          -95 callsubr
          hintmask 00010100
          263 679 rmoveto
          -91 callgsubr
        </CharString>
        <CharString name="D">
          131 0 callsubr
          hstem
          172 223 437 264 vstem
          832 986 rmoveto
          -513 -133 -323 -240 -51 -10 39 76 -2 vhcurveto
          290 -1 331 375 vvcurveto
          161 1 27 18 135 hhcurveto
          237 37 -230 -224 hvcurveto
          -715 -986 rmoveto
          665 -25 314 386 670 vvcurveto
          361 -211 138 -273 vhcurveto
          -549 hlineto
          -70 callsubr
          endchar
        </CharString>
        <CharString name="Dcaron">
          131 0 callsubr
          150 -18 callgsubr
          172 223 -211 690 -42 264 hintmask 11010100
          832 986 rmoveto
          -513 -133 -323 -240 -51 -10 39 76 -2 vhcurveto
          290 -1 331 375 vvcurveto
          161 1 27 18 135 hhcurveto
          237 37 -230 -224 hvcurveto
          -715 -986 rmoveto
          665 -25 314 386 670 vvcurveto
          361 -211 138 -273 vhcurveto
          -549 hlineto
          -70 callsubr
          hintmask 00101000
          170 1980 rmoveto
          -93 callsubr
        </CharString>
        <CharString name="Dcroat">
          -83 callsubr
        </CharString>
        <CharString name="Delta">
          467 0 110 1174 131 hstem
          201 1258 vstem
          201 hmoveto
          1258 hlineto
          -42 63 -26 68 -40 112 -53 150 -205 665 -37 148 rrcurveto
          -11 43 -5 40 34 vvcurveto
          38 6 32 12 22 vhcurveto
          -426 hlineto
          2 -41 -7 -77 -23 -91 -37 -148 -205 -665 -53 -150 -40 -112 -26 -68 -42 -63 rrcurveto
          642 1206 rmoveto
          52 -198 224 -710 18 -108 rrcurveto
          -63 10 -48 -17 -98 hhcurveto
          -382 hlineto
          -98 -48 17 63 10 hvcurveto
          18 108 224 710 52 198 rrcurveto
          52 14 9 26 10 hhcurveto
          9 10 -26 -52 14 hvcurveto
          endchar
        </CharString>
        <CharString name="E">
          -52 callgsubr
          hstem
          35 callgsubr
          507 23 -23 27 vstem
          -107 callsubr
          endchar
        </CharString>
        <CharString name="Eacute">
          -52 callgsubr
          162 300 28 callgsubr
          70 487 -50 27 hintmask 11111010
          -107 callsubr
          300 1144 rmoveto
          hintmask 11111100
          -93 callgsubr
        </CharString>
        <CharString name="Ebreve">
          -52 callgsubr
          80 165 28 callgsubr
          -222 -1 callsubr
          63 27 hintmask 11111011
          -107 callsubr
          120 927 rmoveto
          hintmask 11110111
          -101 callsubr
        </CharString>
        <CharString name="Ecaron">
          -52 callgsubr
          150 -18 callgsubr
          164 690 -683 232 507 27 hintmask 11110110
          -107 callsubr
          -136 1132 rmoveto
          hintmask 11111010
          -93 callsubr
        </CharString>
        <CharString name="Ecircumflex">
          -52 callgsubr
          350 101 28 callgsubr
          -189 690 6 27 hintmask 11111010
          -107 callsubr
          398 833 rmoveto
          hintmask 11110110
          -101 callgsubr
        </CharString>
        <CharString name="Edieresis">
          -52 callgsubr
          128 302 28 callgsubr
          -183 678 12 27 hintmask 11111010
          -107 callsubr
          -50 810 -47 callgsubr
          hvcurveto
          hintmask 11110110
          -86 callgsubr
        </CharString>
        <CharString name="Edotaccent">
          -52 callgsubr
          135 320 28 callgsubr
          -43 283 267 27 hintmask 11111010
          -107 callsubr
          99 817 rmoveto
          hintmask 11110110
          -91 callgsubr
        </CharString>
        <CharString name="Egrave">
          -52 callgsubr
          163 300 28 callgsubr
          -197 487 217 27 hintmask 11111010
          -107 callsubr
          hintmask 11110110
          -197 1145 -79 callgsubr
        </CharString>
        <CharString name="Emacron">
          -52 callgsubr
          192 170 hstemhm
          143 692 -664 232 507 27 hintmask 11110110
          -107 callsubr
          92 1044 rmoveto
          hintmask 11111010
          -96 callgsubr
        </CharString>
        <CharString name="Eng">
          202 -540 100 461 -59 callgsubr
          21 -20 hstemhm
          203 167 35 220 253 238 -157 150 hintmask 11011110
          1116 -100 rmoveto
          hintmask 11011101
          118 -4 127 -3 124 vhcurveto
          477 vlineto
          -27 callgsubr
          hintmask 11101101
          -301 -1 rlineto
          55 -74 32 -372 -336 vvcurveto
          -114 0 -94 -1 -84 vhcurveto
          -200 363 -196 347 -157 364 rrcurveto
          -311 hlineto
          67 -59 17 -66 -81 callgsubr
          -10 -52 -28 -53 rrcurveto
          268 hlineto
          -24 48 -18 52 -4 121 -9 297 -8 287 6 284 181 -327 168 -305 167 -314 rrcurveto
          hintmask 11011110
          3 -105 0 -7 -221 vvcurveto
          -134 -30 -116 -91 -148 3 304 166 29 vhcurveto
          -72 -12 -103 -107 -61 -141 rrcurveto
          -159 109 -151 213 275 114 225 215 vhcurveto
          endchar
        </CharString>
        <CharString name="Eogonek">
          -78 30 callsubr
          361 100 880 110 340 100 hstem
          35 callgsubr
          112 195 200 23 -23 27 vstem
          936 -71 callgsubr
          76 68 71 54 65 hvcurveto
          1 -60 callsubr
          -752 hlineto
          67 -59 23 -66 -137 vvcurveto
          -58 1 -951 0 vhcurveto
          -156 -59 -56 -90 -47 vhcurveto
          647 hlineto
          4 callgsubr
          endchar
        </CharString>
        <CharString name="Eth">
          -83 callsubr
        </CharString>
        <CharString name="Euro">
          202 -10 90 482 100 238 100 30 -20 420 100 70 -20 hstem
          265 264 619 29 vstem
          590 1000 rmoveto
          -61 hlineto
          219 1 43 211 250 hhcurveto
          144 73 -11 callsubr
          17 337 -52 70 rrcurveto
          -92 -64 -104 22 -201 hhcurveto
          -285 -229 -138 -361 hvcurveto
          -21 vlineto
          -45 5 -40 6 -32 9 -40 -160 rcurveline
          43 12 57 7 62 4 7 -81 12 -76 17 -70 -84 4 -78 7 -56 15 -40 -160 rcurveline
          72 19 108 7 109 3 rrcurveto
          -374 130 290 -197 343 hhcurveto
          40 6 32 54 3 30 rrcurveto
          -274 -208 187 294 -100 hvcurveto
          116 -2 124 -7 87 -20 40 160 rcurveline
          -25 -103 -159 -5 -133 hhcurveto
          -18 74 -11 80 -5 84 rrcurveto
          19 hlineto
          140 177 -3 -27 113 hvcurveto
          40 160 rlineto
          -27 -112 -178 -3 -140 hhcurveto
          endchar
        </CharString>
        <CharString name="F">
          -106 21 -21 980 110 340 100 hstem
          177 232 507 23 vstem
          -64 callgsubr
          endchar
        </CharString>
        <CharString name="G">
          -3 callgsubr
          hstem
          93 264 416 217 16 25 vstem
          -99 callgsubr
          endchar
        </CharString>
        <CharString name="Gbreve">
          -3 callgsubr
          30 165 hstemhm
          93 264 -81 134 363 217 -172 124 64 25 hintmask 1110101010000000
          -99 callgsubr
          hintmask 0001010100000000
          -468 915 rmoveto
          -101 callsubr
        </CharString>
        <CharString name="Gcircumflex">
          -3 callgsubr
          300 101 hstemhm
          93 264 -78 690 -196 217 16 25 hintmask 11101011
          -99 callgsubr
          hintmask 00010100
          -220 821 rmoveto
          -101 callgsubr
        </CharString>
        <CharString name="Gcommaaccent">
          74 -16 callgsubr
          85 -21 1450 100 70 -20 hstemhm
          93 264 240 237 -61 217 16 25 hintmask 01111011
          -99 callgsubr
          hintmask 10000100
          -256 -1078 -98 callsubr
        </CharString>
        <CharString name="Gdotaccent">
          -3 callgsubr
          85 320 hstemhm
          93 264 113 283 20 217 16 25 hintmask 11101011
          -99 callgsubr
          hintmask 00010100
          -474 805 rmoveto
          -91 callgsubr
        </CharString>
        <CharString name="H">
          26 callgsubr
          hstem
          185 226 437 225 vstem
          -77 callsubr
          endchar
        </CharString>
        <CharString name="Hbar">
          185 21 -21 681 140 289 150 270 -20 hstem
          185 232 425 231 vstem
          639 1260 rmoveto
          -64 -71 0 1 -72 hvcurveto
          12 118 20 113 36 38 rrcurveto
          -375 18 callsubr
          rrcurveto
          -13 1 -13 1 -14 vhcurveto
          -49 3 -43 4 -34 5 rrcurveto
          -170 vlineto
          36 5 45 4 51 3 9 -293 -1 -369 -16 -238 -30 callsubr
          375 hlineto
          -40 54 -26 46 -10 102 rrcurveto
          -20 200 7 -99 265 vvcurveto
          62 9 51 130 vhcurveto
          158 hlineto
          131 9 -51 -62 -263 6 95 -20 -198 hvcurveto
          -10 -102 -26 -46 -40 -54 rrcurveto
          375 hlineto
          -28 63 -10 42 -8 117 -17 237 -1 370 10 292 50 -3 48 -3 42 -5 rrcurveto
          170 vlineto
          -41 -5 -45 -4 -48 -2 rrcurveto
          13 1 13 1 13 vhcurveto
          19 callsubr
          -375 hlineto
          33 -34 21 -114 13 -121 rrcurveto
          -1 -65 -63 0 -58 hhcurveto
          203 -311 rmoveto
          -124 -42 -4 -124 vhcurveto
          -95 hlineto
          -122 -42 4 124 36 1 68 4 76 hvcurveto
          1 75 75 0 67 hhcurveto
          61 67 0 -1 68 hvcurveto
          5 -75 2 -67 -38 vvcurveto
          endchar
        </CharString>
        <CharString name="Hcircumflex">
          26 callgsubr
          370 101 hstemhm
          185 226 -122 690 -131 225 hintmask 11101010
          -77 callsubr
          hintmask 00010100
          28 812 rmoveto
          -101 callgsubr
        </CharString>
        <CharString name="I">
          -397 27 callgsubr
          222 225 vstem
          461 -102 callsubr
          endchar
        </CharString>
        <CharString name="IJ">
          489 -20 100 -59 -59 callgsubr
          hstemhm
          227 225 244 220 253 238 hintmask 01110000
          466 -102 callsubr
          hintmask 10101100
          941 -878 -80 callgsubr
          endchar
        </CharString>
        <CharString name="Iacute">
          -397 -62 callsubr
          182 -18 callgsubr
          222 225 -193 487 hintmask 11010000
          461 -102 callsubr
          hintmask 00101000
          23 684 rmoveto
          -93 callgsubr
        </CharString>
        <CharString name="Ibreve">
          -397 -62 callsubr
          100 165 hstemhm
          -8 134 96 225 87 124 hintmask 11001000
          461 -102 callsubr
          hintmask 00110100
          -127 467 rmoveto
          -101 callsubr
        </CharString>
        <CharString name="Icircumflex">
          -397 -62 callsubr
          370 101 hstemhm
          -5 690 -463 225 hintmask 11001000
          461 -102 callsubr
          hintmask 00110000
          121 373 rmoveto
          -101 callgsubr
        </CharString>
        <CharString name="Idieresis">
          -397 -62 callsubr
          148 302 hstemhm
          1 678 -457 225 hintmask 11001000
          461 -102 callsubr
          hintmask 00110000
          -327 350 -47 callgsubr
          -86 callgsubr
        </CharString>
        <CharString name="Idotaccent">
          -397 -62 callsubr
          155 320 hstemhm
          200 283 -261 225 hintmask 11001000
          461 -102 callsubr
          hintmask 00110000
          -119 357 rmoveto
          -91 callgsubr
        </CharString>
        <CharString name="Igrave">
          -397 -62 callsubr
          183 -18 callgsubr
          -13 487 -252 225 hintmask 11001000
          461 -102 callsubr
          hintmask 00110000
          -474 685 -79 callgsubr
        </CharString>
        <CharString name="Imacron">
          -397 -62 callsubr
          212 170 hstemhm
          -6 692 -464 225 hintmask 11001000
          461 -102 callsubr
          hintmask 00110000
          -115 584 rmoveto
          -96 callgsubr
        </CharString>
        <CharString name="Iogonek">
          -397 30 callsubr
          382 -59 callgsubr
          hstemhm
          46 195 -19 225 hintmask 11101000
          467 -430 rmoveto
          10 28 -1 44 -3 12 rrcurveto
          -9 -24 -18 -6 -36 hhcurveto
          hintmask 11110000
          -110 -44 57 92 76 68 71 54 65 hvcurveto
          144 hlineto
          -28 60 -10 45 -42 callgsubr
          2 491 18 303 7 117 19 52 20 53 rrcurveto
          -345 hlineto
          20 -53 19 -52 7 -117 18 -303 2 -34 callsubr
          -116 4 -84 -27 -60 rrcurveto
          -55 -79 -76 -81 -86 -63 callgsubr
          endchar
        </CharString>
        <CharString name="Itilde">
          -397 -62 callsubr
          195 0 callgsubr
          -33 749 -494 225 hintmask 11000100
          461 -102 callsubr
          hintmask 00000000
          -424 427 -15 callsubr
          hintmask 00011000
          -68 callgsubr
          hintmask 00101000
          -55 callsubr
        </CharString>
        <CharString name="J">
          -189 -34 callgsubr
          hstem
          26 220 253 238 vstem
          737 430 -80 callgsubr
          endchar
        </CharString>
        <CharString name="Jcircumflex">
          -189 -34 callgsubr
          370 101 hstemhm
          26 220 24 690 -461 238 hintmask 11010100
          737 430 -80 callgsubr
          hintmask 00101000
          120 1251 rmoveto
          -101 callgsubr
        </CharString>
        <CharString name="K">
          88 21 -21 980 110 440 -20 21 -20 hstemhm
          202 233 278 95 hintmask 11101100
          -72 callgsubr
          hintmask 11011100
          -13 callsubr
          endchar
        </CharString>
        <CharString name="Kcommaaccent">
          88 1 callgsubr
          980 110 440 -20 21 -20 hstemhm
          202 233 119 237 -78 95 hintmask 01110101
          -72 callgsubr
          hintmask 01101101
          -13 callsubr
          hintmask 10000010
          238 -1308 -98 callsubr
        </CharString>
        <CharString name="L">
          19 callgsubr
          hstem
          178 252 481 27 vstem
          -89 callgsubr
          endchar
        </CharString>
        <CharString name="Lacute">
          19 callgsubr
          182 -18 callgsubr
          178 252 -206 487 200 27 hintmask 11010100
          -89 callgsubr
          hintmask 00101000
          -45 462 rmoveto
          -93 callgsubr
        </CharString>
        <CharString name="Lcaron">
          19 callgsubr
          23 -20 hstemhm
          178 252 250 208 23 27 hintmask 11010100
          -89 callgsubr
          hintmask 00101000
          379 -179 -82 callsubr
        </CharString>
        <CharString name="Lcommaaccent">
          -152 -16 callgsubr
          84 100 1430 -20 hstemhm
          178 252 -16 237 260 27 hintmask 01110100
          -89 callgsubr
          hintmask 10001000
          148 -1748 -98 callsubr
        </CharString>
        <CharString name="Ldot">
          -57 0 100 505 320 605 -20 hstemhm
          178 252 300 283 -102 27 hintmask 10110100
          -89 callgsubr
          hintmask 01001000
          373 -925 rmoveto
          -91 callgsubr
        </CharString>
        <CharString name="Lslash">
          30 0 100 934 -20 516 -20 hstemhm
          47 914 -656 252 481 27 hintmask 11101100
          215 1530 rmoveto
          67 -69 23 -58 -137 vvcurveto
          -534 vlineto
          hintmask 11110100
          -112 -84 -99 -69 -47 -25 120 -121 rcurveline
          hintmask 11101100
          15 27 52 48 71 58 rrcurveto
          -170 1 -135 0 vhcurveto
          -156 -59 -48 -90 -57 vhcurveto
          hintmask 11110100
          804 hlineto
          90 50 48 237 -61 83 rrcurveto
          -157 -72 -87 -113 -179 hhcurveto
          hintmask 11101100
          -126 -16 17 256 -1 hvcurveto
          -1 145 0 112 126 vvcurveto
          hintmask 11110100
          169 122 174 117 62 39 -140 141 rcurveline
          -43 -56 -103 -93 -119 -98 rrcurveto
          hintmask 11101100
          178 1 152 31 vvcurveto
          96 9 58 60 87 vhcurveto
          endchar
        </CharString>
        <CharString name="M">
          25 callgsubr
          hstem
          196 151 759 -78 callgsubr
          endchar
        </CharString>
        <CharString name="N">
          202 -62 callsubr
          21 -20 hstemhm
          203 154 602 150 hintmask 11011000
          -94 callsubr
          hintmask 10111000
          -27 callgsubr
          hintmask 11011000
          -73 callsubr
          endchar
        </CharString>
        <CharString name="Nacute">
          202 -62 callsubr
          21 -20 181 -18 callgsubr
          203 154 237 487 -122 150 hintmask 11001010
          -94 callsubr
          hintmask 10101010
          -27 callgsubr
          hintmask 11001010
          -73 callsubr
          hintmask 00010100
          419 462 rmoveto
          -93 callgsubr
        </CharString>
        <CharString name="Ncaron">
          202 -62 callsubr
          21 -20 169 -18 callgsubr
          203 154 -52 690 -36 150 hintmask 11001010
          -94 callsubr
          hintmask 10101010
          -27 callgsubr
          hintmask 11001010
          -73 callsubr
          hintmask 00010100
          3 450 rmoveto
          -93 callsubr
        </CharString>
        <CharString name="Ncommaaccent">
          202 1 callgsubr
          1530 -20 21 -20 hstemhm
          203 154 224 237 141 150 hintmask 01101010
          -94 callsubr
          hintmask 01011010
          -27 callgsubr
          hintmask 01101010
          -73 callsubr
          hintmask 10000100
          409 -1748 -98 callsubr
        </CharString>
        <CharString name="Ntilde">
          202 -62 callsubr
          21 -20 194 0 callgsubr
          203 154 -50 749 -97 150 hintmask 11000101
          -94 callsubr
          hintmask 10100101
          -27 callgsubr
          hintmask 11000101
          -73 callsubr
          hintmask 00000000
          -28 205 -15 callsubr
          hintmask 00001010
          -68 callgsubr
          hintmask 00010010
          -55 callsubr
        </CharString>
        <CharString name="O">
          -40 callgsubr
          hstem
          -5 callsubr
          538 262 vstem
          -104 callsubr
          endchar
        </CharString>
        <CharString name="OE">
          696 -20 100 -80 80 -80 100 880 110 340 100 -80 80 -80 100 20 callsubr
          538 217 507 27 hintmask 1001001111000000
          659 1550 rmoveto
          -382 -149 -232 -398 -584 169 -356 362 hvcurveto
          hintmask 0101010111000000
          49 46 7 13 42 hvcurveto
          779 hlineto
          110 18 297 73 -51 hvcurveto
          hintmask 0011100111000000
          -157 -65 -52 -113 -237 hhcurveto
          -135 -17 15 256 -1 hvcurveto
          -1 453 1 -34 58 vvcurveto
          94 23 38 113 vhcurveto
          73 20 -20 62 hhcurveto
          122 34 76 54 21 hvcurveto
          -314 hlineto
          -142 -12 48 118 161 18 13 135 237 42 -113 -157 75 hvcurveto
          51 103 -38 237 -90 30 rrcurveto
          -742 hlineto
          hintmask 0101001111000000
          13 -52 -58 7 -64 hhcurveto
          2 -1470 rmoveto
          -161 -110 270 570 353 88 177 181 181 88 -177 -353 -570 -106 -270 -161 hvcurveto
          endchar
        </CharString>
        <CharString name="Oacute">
          -40 callgsubr
          142 300 20 callsubr
          204 487 -153 262 hintmask 11010100
          -104 callsubr
          hintmask 00101000
          165 2012 rmoveto
          -93 callgsubr
        </CharString>
        <CharString name="Obreve">
          -40 callgsubr
          60 165 20 callsubr
          -58 -1 callsubr
          -70 262 hintmask 11010010
          -104 callsubr
          hintmask 00101100
          15 1795 rmoveto
          -101 callsubr
        </CharString>
        <CharString name="Ocircumflex">
          -40 callgsubr
          330 101 20 callsubr
          -55 690 -97 262 hintmask 11010100
          -104 callsubr
          hintmask 00101000
          263 1701 rmoveto
          -101 callgsubr
        </CharString>
        <CharString name="Odieresis">
          -40 callgsubr
          108 302 20 callsubr
          -49 678 -91 262 hintmask 11010100
          -104 callsubr
          hintmask 00101000
          -185 1678 -47 callgsubr
          -86 callgsubr
        </CharString>
        <CharString name="Ograve">
          -40 callgsubr
          143 300 20 callsubr
          -63 487 114 262 hintmask 11010100
          -104 callsubr
          hintmask 00101000
          -332 2013 -79 callgsubr
        </CharString>
        <CharString name="Ohungarumlaut">
          -40 callgsubr
          72 370 20 callsubr
          9 788 -259 262 hintmask 11010100
          -104 callsubr
          hintmask 00101000
          131 2012 rmoveto
          -226 hlineto
          -25 -116 -260 -49 -85 vhcurveto
          114 hlineto
          56 41 133 137 88 192 rrcurveto
          397 hmoveto
          -236 hlineto
          -25 -116 -260 -49 -85 vhcurveto
          114 hlineto
          56 41 143 137 88 192 rrcurveto
          endchar
        </CharString>
        <CharString name="Omacron">
          -40 callgsubr
          172 170 20 callsubr
          -56 692 -98 262 hintmask 11010100
          -104 callsubr
          hintmask 00101000
          27 1912 rmoveto
          -96 callgsubr
        </CharString>
        <CharString name="Omega">
          255 4 162 1284 100 hstem
          -5 callsubr
          119 30 389 262 vstem
          810 4 rmoveto
          130 222 2 -31 98 hvcurveto
          220 vlineto
          -63 -17 -125 -7 -114 -3 rrcurveto
          157 130 75 232 390 vvcurveto
          398 -149 232 -382 -382 -149 -232 -398 -402 80 -230 168 -120 vhcurveto
          -107 4 -111 7 -59 16 rrcurveto
          -220 vlineto
          31 98 212 -2 130 hhcurveto
          162 vlineto
          -115 107 -34 281 366 vvcurveto
          353 88 177 181 181 88 -177 -353 -294 -28 -342 -90 -118 vhcurveto
          endchar
        </CharString>
        <CharString name="Oslash">
          255 -20 100 -79 -21 1470 100 27 -20 hstemhm
          87 1180 -1139 262 538 262 hintmask 01110110
          659 -20 rmoveto
          362 169 356 584 160 -25 134 -54 102 hvcurveto
          hintmask 01111000
          55 63 70 45 31 25 -169 128 rcurveline
          -11 -50 -19 -53 -31 -56 rrcurveto
          86 -85 -123 46 -170 hhcurveto
          hintmask 01110110
          -382 -149 -232 -398 -282 39 -229 82 -161 hvcurveto
          hintmask 01111000
          -56 -66 -74 -48 -32 -26 169 -128 rcurveline
          10 50 20 54 31 56 rrcurveto
          -104 85 113 -56 144 hhcurveto
          hintmask 10110110
          2 100 rmoveto
          -161 -110 270 570 353 88 177 181 181 88 -177 -353 -570 -106 -270 -161 hvcurveto
          endchar
        </CharString>
        <CharString name="Otilde">
          -40 callgsubr
          155 0 callgsubr
          128 262 -83 749 -128 262 hintmask 11001010
          -104 callsubr
          hintmask 00000000
          -282 1755 -15 callsubr
          hintmask 00010100
          -68 callgsubr
          hintmask 00100100
          -55 callsubr
        </CharString>
        <CharString name="P">
          34 callsubr
          hstem
          175 233 387 264 vstem
          -63 callsubr
          endchar
        </CharString>
        <CharString name="Q">
          255 -20 100 408 132 830 100 hstem
          -5 callsubr
          22 78 438 262 vstem
          659 -20 rmoveto
          33 32 3 6 30 hvcurveto
          33 -152 44 -136 26 -41 rrcurveto
          355 hlineto
          -91 90 -96 153 -74 185 rrcurveto
          161 147 78 290 395 vvcurveto
          398 -149 232 -382 -382 -149 -232 -398 -584 169 -356 362 vhcurveto
          -269 940 rmoveto
          353 88 177 181 181 88 -177 -353 -252 -21 -193 -37 -138 vhcurveto
          166 -49 -67 117 -117 hhcurveto
          -99 -79 -68 -115 -32 hvcurveto
          -24 127 -13 160 196 vvcurveto
          271 -840 rmoveto
          -51 -46 27 55 -39 hvcurveto
          145 -68 36 181 94 hhcurveto
          67 32 -115 -192 35 hvcurveto
          3 -27 4 -27 4 -27 rrcurveto
          -13 -22 -24 -7 -25 hhcurveto
          endchar
        </CharString>
        <CharString name="R">
          -6 callsubr
          hstemhm
          202 223 333 54 10 264 hintmask 10111110
          -78 callsubr
          hintmask 11011110
          -88 callsubr
          endchar
        </CharString>
        <CharString name="Racute">
          -6 callsubr
          162 -18 callgsubr
          202 223 76 487 -230 54 10 264 hintmask 1011010110000000
          -78 callsubr
          hintmask 1101010110000000
          -88 callsubr
          hintmask 0000101000000000
          -91 736 rmoveto
          -93 callgsubr
        </CharString>
        <CharString name="Rcaron">
          -6 callsubr
          150 -18 callgsubr
          202 223 -183 690 -174 54 10 264 hintmask 1011010110000000
          -78 callsubr
          hintmask 1101010110000000
          -88 callsubr
          hintmask 0000101000000000
          -477 724 rmoveto
          -93 callsubr
        </CharString>
        <CharString name="Rcommaaccent">
          116 -499 415 105 8 callsubr
          hstemhm
          202 223 93 237 3 54 10 264 hintmask 0101110110000000
          -78 callsubr
          hintmask 0110110110000000
          -88 callsubr
          hintmask 1000001000000000
          -71 -1474 -98 callsubr
        </CharString>
        <CharString name="S">
          -32 -20 5 callgsubr
          331 249 hintmask 00000000
          hintmask 11010110
          513 1550 rmoveto
          -272 -95 -173 -145 hvcurveto
          -466 571 -150 -342 vvcurveto
          -121 -56 -73 -111 vhcurveto
          hintmask 11011010
          -138 -81 121 164 68 7 44 6 53 hvcurveto
          -82 -22 -113 -67 -41 -141 rrcurveto
          -209 210 -111 202 268 178 159 206 vhcurveto
          hintmask 11010110
          390 -580 248 292 vvcurveto
          75 34 80 106 182 120 -236 -174 18 vhcurveto
          38 20 20 128 131 vvcurveto
          73 -6 192 -67 36 vhcurveto
          hintmask 10110110
          -56 -37 -24 -14 -55 hhcurveto
          hintmask 11010110
          -57 -22 20 -123 hhcurveto
          endchar
        </CharString>
        <CharString name="Sacute">
          -32 -20 -48 callsubr
          112 300 -38 callsubr
          75 487 -231 -99 callsubr
          178 442 rmoveto
          -93 callgsubr
        </CharString>
        <CharString name="Scaron">
          -32 -20 -48 callsubr
          100 300 -38 callsubr
          -204 690 -155 -99 callsubr
          -228 430 rmoveto
          -93 callsubr
        </CharString>
        <CharString name="Scedilla">
          -32 -500 70 410 5 callgsubr
          139 165 27 249 hintmask 1110101110000000
          400 9 callsubr
          31 1 30 4 28 vhcurveto
          244 16 159 152 195 390 -580 248 292 vvcurveto
          75 34 80 106 182 120 -236 -174 18 vhcurveto
          38 20 20 128 131 vvcurveto
          73 -6 192 -67 36 vhcurveto
          hintmask 1101101110000000
          -56 -37 -24 -14 -55 hhcurveto
          hintmask 1110101110000000
          -57 -22 20 -123 hhcurveto
          -272 -95 -173 -145 hvcurveto
          -466 571 -150 -342 vvcurveto
          -121 -56 -73 -111 -17 -15 1 4 -15 vhcurveto
          -8 3 rlineto
          -1 vlineto
          hintmask 1110110110000000
          -104 28 -60 109 141 vvcurveto
          68 7 44 6 53 vhcurveto
          -82 -22 -113 -67 -41 -141 rrcurveto
          -193 178 -108 185 -16 vhcurveto
          -13 -44 -17 -47 -18 -36 rrcurveto
          45 -16 57 -28 -72 vvcurveto
          -92 -88 -68 -97 -10 vhcurveto
          11 -10 15 -38 34 -22 rrcurveto
          endchar
        </CharString>
        <CharString name="Scircumflex">
          -32 -20 -48 callsubr
          300 101 -38 callsubr
          -204 690 -155 -99 callsubr
          256 131 rmoveto
          -101 callgsubr
        </CharString>
        <CharString name="Scommaaccent">
          -32 -16 callgsubr
          64 5 callgsubr
          58 237 36 249 hintmask 0000000000000000
          hintmask 0110101010000000
          513 1550 rmoveto
          -272 -95 -173 -145 hvcurveto
          -466 571 -150 -342 vvcurveto
          -121 -56 -73 -111 vhcurveto
          hintmask 0110110010000000
          -138 -81 121 164 68 7 44 6 53 hvcurveto
          -82 -22 -113 -67 -41 -141 rrcurveto
          -209 210 -111 202 268 178 159 206 vhcurveto
          hintmask 0110101010000000
          390 -580 248 292 vvcurveto
          75 34 80 106 182 120 -236 -174 18 vhcurveto
          38 20 20 128 131 vvcurveto
          73 -6 192 -67 36 vhcurveto
          hintmask 0101101010000000
          -56 -37 -24 -14 -55 hhcurveto
          hintmask 0110101010000000
          -57 -22 20 -123 hhcurveto
          hintmask 1000000100000000
          164 -1768 -98 callsubr
        </CharString>
        <CharString name="T">
          10 0 callsubr
          hstem
          413 241 vstem
          -88 callgsubr
          endchar
        </CharString>
        <CharString name="Tbar">
          10 21 -21 840 150 20 -20 450 90 hstemhm
          172 712 -471 241 hintmask 10110100
          30 callgsubr
          -48 -33 -150 -135 -64 8 -62 16 -39 hvcurveto
          135 35 131 225 124 hhcurveto
          77 10 -80 -199 hvcurveto
          -171 vlineto
          hintmask 10111000
          -91 2 -90 5 -60 13 rrcurveto
          hintmask 11011000
          -170 vlineto
          hintmask 11010100
          60 13 90 5 91 1 rrcurveto
          -599 vlineto
          -134 -41 -53 -88 -73 vhcurveto
          511 hlineto
          -96 57 -44 66 137 36 -1 314 249 vvcurveto
          hintmask 11011000
          84 -2 85 -5 61 -12 rrcurveto
          hintmask 10111000
          170 vlineto
          hintmask 11010100
          -61 -12 -85 -5 -84 -2 rrcurveto
          170 vlineto
          199 19 80 71 133 112 -225 -135 42 vhcurveto
          18 42 8 69 70 vvcurveto
          131 -30 138 -53 vhcurveto
          endchar
        </CharString>
        <CharString name="Tcaron">
          10 0 callsubr
          150 -18 callgsubr
          187 690 -464 241 hintmask 11001000
          -88 callgsubr
          hintmask 00110000
          -684 450 rmoveto
          -93 callsubr
        </CharString>
        <CharString name="Tcommaaccent">
          10 1 callgsubr
          1440 90 hstemhm
          413 241 -189 237 hintmask 01110000
          -88 callgsubr
          hintmask 10001000
          -276 -1748 -98 callsubr
        </CharString>
        <CharString name="Thorn">
          85 21 -21 529 121 400 100 380 -20 hstem
          196 239 387 264 vstem
          822 890 rmoveto
          -95 -79 -145 -173 -112 -23 34 196 161 70 9 95 201 21 -76 -84 vhcurveto
          -382 367 rmoveto
          3 133 6 56 60 84 rrcurveto
          -411 hlineto
          67 -69 23 -58 -137 vvcurveto
          -349 13 -425 -8 -270 vhcurveto
          -3 -117 -25 -52 -28 -53 rrcurveto
          425 hlineto
          -114 77 -21 196 8 -50 callgsubr
          72 5 6 64 65 hhcurveto
          429 146 209 192 164 -122 56 -314 -183 -29 7 100 2 hvcurveto
          endchar
        </CharString>
        <CharString name="U">
          -44 callgsubr
          hstem
          168 258 482 148 vstem
          -107 callgsubr
          endchar
        </CharString>
        <CharString name="Uacute">
          -44 callgsubr
          182 300 -8 callgsubr
          126 487 -131 148 hintmask 11010100
          -107 callgsubr
          hintmask 00101000
          -108 654 rmoveto
          -93 callgsubr
        </CharString>
        <CharString name="Ubreve">
          -44 callgsubr
          100 165 -8 callgsubr
          -136 -1 callsubr
          -48 148 hintmask 11010010
          -107 callgsubr
          hintmask 00101100
          -258 437 rmoveto
          -101 callsubr
        </CharString>
        <CharString name="Ucircumflex">
          -44 callgsubr
          370 101 -8 callgsubr
          -133 690 -75 148 hintmask 11010100
          -107 callgsubr
          hintmask 00101000
          -10 343 rmoveto
          -101 callgsubr
        </CharString>
        <CharString name="Udieresis">
          -44 callgsubr
          148 302 -8 callgsubr
          -127 678 -69 148 hintmask 11010100
          -107 callgsubr
          hintmask 00101000
          -458 320 -47 callgsubr
          -86 callgsubr
        </CharString>
        <CharString name="Ugrave">
          -44 callgsubr
          183 300 -8 callgsubr
          -141 487 136 148 hintmask 11010100
          -107 callgsubr
          hintmask 00101000
          -605 655 -79 callgsubr
        </CharString>
        <CharString name="Uhungarumlaut">
          -44 callgsubr
          112 370 -8 callgsubr
          -39 788 -267 148 hintmask 11010100
          -107 callgsubr
          hintmask 00101000
          -112 654 rmoveto
          -226 hlineto
          -25 -116 -260 -49 -85 vhcurveto
          114 hlineto
          56 41 133 137 88 192 rrcurveto
          397 hmoveto
          -236 hlineto
          -25 -116 -260 -49 -85 vhcurveto
          114 hlineto
          56 41 143 137 88 192 rrcurveto
          endchar
        </CharString>
        <CharString name="Umacron">
          -44 callgsubr
          212 170 -8 callgsubr
          -134 692 -76 148 hintmask 11010100
          -107 callgsubr
          hintmask 00101000
          -246 554 rmoveto
          -96 callgsubr
        </CharString>
        <CharString name="Uogonek">
          136 30 callsubr
          341 100 1450 -20 hstem
          168 258 99 195 188 148 vstem
          946 -71 callgsubr
          94 105 87 52 76 hvcurveto
          123 84 56 168 282 vvcurveto
          174 -2 336 16 259 vhcurveto
          6 97 41 53 24 32 rrcurveto
          -328 hlineto
          32 -38 35 -37 10 -117 29 -335 -15 -266 -1 -224 rrcurveto
          -235 -1 -59 -198 -177 hhcurveto
          -176 -46 175 120 -8 hvcurveto
          -19 222 15 399 332 vvcurveto
          118 32 52 27 32 vhcurveto
          -379 hlineto
          28 -32 28 -73 -117 vvcurveto
          -1 -749 rlineto
          -395 -1 155 -184 295 hhcurveto
          18 18 1 1 17 hvcurveto
          -55 -85 -89 -88 -93 -63 callgsubr
          endchar
        </CharString>
        <CharString name="Uring">
          -44 callgsubr
          86 83 258 83 -8 callgsubr
          -50 157 210 157 8 148 hintmask 11001001
          -107 callgsubr
          hintmask 00110110
          -357 469 -67 callsubr
        </CharString>
        <CharString name="Utilde">
          -44 callgsubr
          195 0 callgsubr
          168 258 -161 749 -106 148 hintmask 11001010
          -107 callgsubr
          hintmask 00000000
          -555 397 -15 callsubr
          hintmask 00010100
          -68 callgsubr
          hintmask 00100100
          -55 callsubr
        </CharString>
        <CharString name="V">
          66 -62 callsubr
          21 -20 hstemhm
          -1 1106 hintmask 10110000
          1081 1318 rmoveto
          2 89 -2 54 24 70 rrcurveto
          -349 hlineto
          72 -105 26 -135 -223 vvcurveto
          -438 -152 -314 -131 -155 vhcurveto
          -32 151 -36 133 -150 778 rrcurveto
          hintmask 11010000
          -26 148 -4 82 25 77 rrcurveto
          -349 hlineto
          131 -157 148 -1019 20 -153 10 -87 7 -60 -22 -54 rrcurveto
          315 hlineto
          128 158 325 313 20 847 rrcurveto
          endchar
        </CharString>
        <CharString name="W">
          553 -1 122 -122 153 1378 -20 hstem
          567 57 72 286 255 56 vstem
          -106 callsubr
          endchar
        </CharString>
        <CharString name="Wacute">
          -2 callgsubr
          182 -18 callgsubr
          567 57 72 286 -238 487 6 56 hintmask 11111010
          -106 callsubr
          -28 1850 rmoveto
          hintmask 11110110
          -93 callgsubr
        </CharString>
        <CharString name="Wcircumflex">
          -2 callgsubr
          370 101 hstemhm
          505 690 -628 57 72 286 255 56 hintmask 11101110
          -106 callsubr
          90 1539 rmoveto
          hintmask 11110010
          -101 callgsubr
        </CharString>
        <CharString name="Wdieresis">
          -2 callgsubr
          148 302 hstemhm
          511 678 -622 57 72 286 255 56 hintmask 11101110
          -106 callsubr
          -358 1516 -47 callgsubr
          hvcurveto
          hintmask 11110010
          -86 callgsubr
        </CharString>
        <CharString name="Wgrave">
          -2 callgsubr
          183 -18 callgsubr
          497 487 -417 57 72 286 255 56 hintmask 11101110
          -106 callsubr
          hintmask 11110010
          -505 1851 -79 callgsubr
        </CharString>
        <CharString name="X">
          -41 27 callgsubr
          -32 1095 vstem
          872 1308 rmoveto
          62 115 24 51 40 56 rrcurveto
          -300 hlineto
          22 -63 8 -47 -34 -112 -33 -107 -58 -120 -59 -96 -59 118 -63 111 -27 94 -32 112 16 57 22 53 rrcurveto
          -415 hlineto
          43 -53 30 -50 63 -119 62 -133 104 -179 101 -184 -90 -176 -132 -266 -73 -148 -59 -118 -35 -71 -32 -33 rrcurveto
          315 hlineto
          -22 63 -10 43 25 113 23 105 98 208 73 125 80 -162 70 -156 35 -120 32 -111 -17 -45 -22 -63 rrcurveto
          415 hlineto
          -43 63 -30 41 -63 118 -83 155 -116 236 -108 218 87 172 64 120 101 185 rrcurveto
          endchar
        </CharString>
        <CharString name="Y">
          -199 27 callgsubr
          343 242 vstem
          -96 callsubr
          endchar
        </CharString>
        <CharString name="Yacute">
          -199 -62 callsubr
          182 -18 callgsubr
          343 242 -181 487 hintmask 11010000
          -96 callsubr
          hintmask 00101000
          290 1284 rmoveto
          -93 callgsubr
        </CharString>
        <CharString name="Ycircumflex">
          -199 -62 callsubr
          370 101 hstemhm
          125 690 -472 242 hintmask 11001000
          -96 callsubr
          hintmask 00110000
          368 973 rmoveto
          -101 callgsubr
        </CharString>
        <CharString name="Ydieresis">
          -199 -62 callsubr
          148 302 hstemhm
          151 678 -486 242 hintmask 11001000
          -96 callsubr
          hintmask 00110000
          -60 950 -47 callgsubr
          -86 callgsubr
        </CharString>
        <CharString name="Ygrave">
          -199 -62 callsubr
          183 -18 callgsubr
          117 487 -261 242 hintmask 11001000
          -96 callsubr
          hintmask 00110000
          -227 1285 -79 callgsubr
        </CharString>
        <CharString name="Z">
          6 callgsubr
          hstem
          86 27 755 23 vstem
          -92 callsubr
          endchar
        </CharString>
        <CharString name="Zacute">
          6 callgsubr
          162 -18 callgsubr
          86 27 311 487 -43 23 hintmask 11010100
          -92 callsubr
          hintmask 00101000
          114 679 rmoveto
          -93 callgsubr
        </CharString>
        <CharString name="Zcaron">
          6 callgsubr
          150 -18 callgsubr
          86 27 72 690 -7 23 hintmask 11010100
          -92 callsubr
          hintmask 00101000
          -252 667 rmoveto
          -93 callsubr
        </CharString>
        <CharString name="Zdotaccent">
          6 callgsubr
          14 callgsubr
          86 27 267 283 205 23 hintmask 11010100
          -92 callsubr
          hintmask 00101000
          -18 352 rmoveto
          -91 callgsubr
        </CharString>
        <CharString name="a">
          -46 -53 callsubr
          hstemhm
          79 216 330 226 hintmask 01111100
          688 -104 callgsubr
          hintmask 10111100
          -69 callgsubr
          hintmask 01111100
          hintmask 10111100
          -257 -36 -87 callgsubr
          endchar
        </CharString>
        <CharString name="aacute">
          -23 -53 callsubr
          23 callsubr
          102 216 82 421 -173 226 hintmask 01110101
          711 -104 callgsubr
          hintmask 10110101
          -69 callgsubr
          hintmask 01110101
          hintmask 10110101
          -257 -36 -87 callgsubr
          hintmask 00001010
          398 1450 rmoveto
          -97 callgsubr
          endchar
        </CharString>
        <CharString name="abreve">
          -46 -53 callsubr
          130 -2 callsubr
          79 216 -140 134 336 226 -154 124 hintmask 0111001010000000
          688 -104 callgsubr
          hintmask 1011001010000000
          -69 callgsubr
          hintmask 0111001010000000
          hintmask 1011001010000000
          -257 -36 -87 callgsubr
          hintmask 0000110101000000
          97 1245 rmoveto
          -101 callsubr
        </CharString>
        <CharString name="acircumflex">
          -23 -53 callsubr
          385 115 hstemhm
          102 216 -131 666 -205 226 hintmask 01110101
          711 -104 callgsubr
          hintmask 10110101
          -69 callgsubr
          hintmask 01110101
          hintmask 10110101
          -257 -36 -87 callgsubr
          hintmask 00001010
          336 1080 -98 callgsubr
        </CharString>
        <CharString name="acute">
          -411 1530 -20 hstem
          320 421 vstem
          741 1530 rmoveto
          -97 callgsubr
          endchar
        </CharString>
        <CharString name="acute.cap">
          -302 1692 300 hstem
          150 487 vstem
          380 1992 rmoveto
          -93 callgsubr
        </CharString>
        <CharString name="adieresis">
          -23 -53 callsubr
          165 320 hstemhm
          102 216 -157 718 -231 226 hintmask 01110101
          711 -104 callgsubr
          hintmask 10110101
          -69 callgsubr
          hintmask 01110101
          hintmask 10110101
          -257 -36 -87 callgsubr
          hintmask 00001010
          -121 1115 -92 callgsubr
        </CharString>
        <CharString name="ae">
          22 callgsubr
          hstemhm
          79 216 330 51 515 -5 callgsubr
          hintmask 11111101
          -65 callsubr
          hintmask 11111110
          -60 callgsubr
          endchar
        </CharString>
        <CharString name="aeacute">
          22 callgsubr
          23 callsubr
          79 216 330 51 -28 421 122 -5 callgsubr
          hintmask 1111011001000000
          -65 callsubr
          hintmask 1111011010000000
          -60 callgsubr
          hintmask 0000100100000000
          669 1450 rmoveto
          -97 callgsubr
          endchar
        </CharString>
        <CharString name="agrave">
          -23 -53 callsubr
          23 callsubr
          102 216 -58 421 -33 226 hintmask 01110101
          711 -104 callgsubr
          hintmask 10110101
          -69 callgsubr
          hintmask 01110101
          hintmask 10110101
          -257 -36 -87 callgsubr
          hintmask 00001010
          -163 1450 -79 callsubr
        </CharString>
        <CharString name="amacron">
          -46 -53 callsubr
          170 170 hstemhm
          79 216 -144 692 -218 226 hintmask 01110101
          688 -104 callgsubr
          hintmask 10110101
          -69 callgsubr
          hintmask 01110101
          hintmask 10110101
          -257 -36 -87 callgsubr
          hintmask 00001010
          103 1290 rmoveto
          -96 callgsubr
        </CharString>
        <CharString name="ampersand">
          377 21 -21 990 110 -88 73 355 90 -90 110 50 -20 hstemhm
          223 256 -246 235 433 225 273 31 hintmask 1011011011000000
          223 791 rmoveto
          -364 302 -452 637 25 vhcurveto
          -22 63 -11 62 -3 97 -7 348 -6 87 3 171 rrcurveto
          170 3 4 22 72 hhcurveto
          86 53 -102 -145 65 hvcurveto
          hintmask 1101010111000000
          51 94 -8 216 -100 17 rrcurveto
          -583 hlineto
          -170 -121 81 141 75 43 43 116 158 96 -158 -122 16 hvcurveto
          22 21 26 54 94 vvcurveto
          86 -34 163 -49 22 vhcurveto
          -56 -10 -46 -14 -70 hhcurveto
          hintmask 1010110111000000
          -42 -121 20 -79 hhcurveto
          -193 -68 -86 -106 -132 81 -99 82 -57 hvcurveto
          hintmask 1011011011000000
          -87 -33 -86 -89 -157 vvcurveto
          hintmask 1101011011000000
          539 199 rmoveto
          126 13 -14 -198 hvcurveto
          -351 2 158 -290 vvcurveto
          -76 -14 -49 -59 -138 -213 222 431 86 32 81 139 vhcurveto
          endchar
        </CharString>
        <CharString name="aogonek">
          -46 30 callsubr
          341 -47 callsubr
          hstemhm
          79 216 236 195 -101 226 hintmask 10111110
          952 -71 callgsubr
          76 68 71 54 65 hvcurveto
          130 hlineto
          -52 42 -43 28 -16 80 rrcurveto
          -26 122 13 141 121 vvcurveto
          322 -52 174 -278 vhcurveto
          -202 -71 -70 -101 hhcurveto
          -5 -25 -11 -53 -59 vvcurveto
          -75 18 -84 71 -44 vhcurveto
          145 35 102 165 125 hhcurveto
          hintmask 11011101
          -7 callgsubr
          171 98 71 65 53 vhcurveto
          30 -115 rlineto
          hintmask 11011110
          -53 -90 -103 -95 -17 callsubr
          -552 510 rmoveto
          -63 -42 48 82 hvcurveto
          hintmask 11011101
          185 154 109 176 17 vhcurveto
          -148 vlineto
          -167 -124 -126 -101 vhcurveto
          endchar
        </CharString>
        <CharString name="approxequal">
          214 35 220 20 220 12 220 20 220 hstemhm
          54 1169 -1157 1169 hintmask 00000000
          hintmask 00010100
          166 537 11 callsubr
          hintmask 00110100
          -46 callsubr
          hintmask 00010100
          -25 callgsubr
          hintmask 00000000
          88 -532 11 callsubr
          hintmask 01001000
          -46 callsubr
          hintmask 11001000
          -25 callgsubr
          endchar
        </CharString>
        <CharString name="aring">
          -23 -53 callsubr
          100 93 306 93 hstemhm
          102 216 -59 164 214 164 -153 226 hintmask 0111001001000000
          711 -104 callgsubr
          hintmask 1011001001000000
          -69 callgsubr
          hintmask 0111001001000000
          hintmask 1011001001000000
          -257 -36 -87 callgsubr
          hintmask 0000110110000000
          1295 vmoveto
          -65 callgsubr
        </CharString>
        <CharString name="asciicircum">
          -128 1530 -20 hstemhm
          100 736 -471 206 hintmask 11000000
          722 540 rmoveto
          114 hlineto
          hintmask 10100000
          -63 201 -202 706 83 vvcurveto
          -206 hlineto
          hintmask 11000000
          -83 -202 -706 -63 -201 vhcurveto
          114 hlineto
          64 118 111 228 79 210 79 -210 111 -228 64 -118 rrcurveto
          endchar
        </CharString>
        <CharString name="asciitilde">
          214 370 220 20 220 hstemhm
          66 1169 hintmask 00000000
          hintmask 01100000
          166 400 11 callsubr
          hintmask 11100000
          -46 callsubr
          hintmask 01100000
          -25 callgsubr
          endchar
        </CharString>
        <CharString name="asterisk">
          -50 1061 -20 489 -20 hstem
          444 20 90 17 vstem
          636 755 rmoveto
          194 141 -79 49 -73 68 -71 91 rlinecurve
          113 35 100 12 93 -6 -74 228 rcurveline
          -72 -59 -85 -49 -111 -40 2 118 20 99 35 88 rrcurveto
          -240 hlineto
          34 -86 19 -100 2 -114 -111 39 -87 47 -71 61 -74 -228 rcurveline
          92 6 98 -12 111 -32 -69 -92 -74 -71 -79 -50 194 -141 rcurveline
          23 89 41 93 65 94 66 -94 45 -94 23 -90 rrcurveto
          endchar
        </CharString>
        <CharString name="at">
          851 45 100 -100 112 738 95 360 100 hstemhm
          100 233 229 210 290 185 363 202 hintmask 10111111
          1307 45 rmoveto
          302 203 350 401 335 -150 319 -554 -577 -431 -460 -611 -490 315 -294 436 hvcurveto
          32 16 49 45 7 30 rrcurveto
          -379 42 -227 228 422 vvcurveto
          419 244 553 517 354 162 -251 -307 -429 -156 -218 -126 -56 -25 43 83 158 45 198 39 141 vhcurveto
          33 118 7 38 34 66 rrcurveto
          -215 hlineto
          -357 -271 -266 -371 -190 102 -118 153 102 91 50 102 75 hvcurveto
          -105 39 84 -47 99 hhcurveto
          -243 464 rmoveto
          hintmask 01111111
          -233 -47 -79 -119 -81 hhcurveto
          -58 -27 66 90 322 163 235 211 23 hvcurveto
          -26 -114 -36 -162 -20 -108 rrcurveto
          endchar
        </CharString>
        <CharString name="atilde">
          -23 -53 callsubr
          170 -1 callgsubr
          102 216 -147 729 -252 226 hintmask 0111001010000000
          711 -104 callgsubr
          hintmask 1011001010000000
          -69 callgsubr
          hintmask 0111001010000000
          hintmask 1011001010000000
          -257 -36 -87 callgsubr
          hintmask 0000000000000000
          -162 1148 -14 callsubr
          hintmask 0000010100000000
          -69 callsubr
          hintmask 0000100100000000
          -54 callgsubr
        </CharString>
        <CharString name="b">
          -17 0 12 callgsubr
          hstemhm
          177 208 310 250 hintmask 01111100
          -26 callsubr
          hintmask 10111100
          -58 callsubr
          endchar
        </CharString>
        <CharString name="backslash">
          -324 22 callsubr
          87 605 vstem
          616 102 rmoveto
          -55 239 -187 918 -48 229 -24 114 2 45 18 63 rrcurveto
          -235 hlineto
          21 -53 28 -55 27 -114 54 -228 187 -918 49 -240 23 -114 -1 -45 -18 -63 rrcurveto
          235 hlineto
          -21 53 -29 55 -26 114 rrcurveto
          endchar
        </CharString>
        <CharString name="bar">
          -454 22 callsubr
          213 183 vstem
          396 1460 rmoveto
          3 117 3 70 20 63 rrcurveto
          -235 hlineto
          20 -63 3 -70 3 -117 rrcurveto
          4 -165 2 -291 -279 vvcurveto
          -234 -1 -226 -5 -133 vhcurveto
          -4 -117 -2 -72 -20 -63 rrcurveto
          235 hlineto
          -20 63 -2 72 -4 117 rrcurveto
          -5 133 -1 226 234 vvcurveto
          279 2 291 4 165 vhcurveto
          endchar
        </CharString>
        <CharString name="braceleft">
          -297 1700 70 hstem
          200 240 vstem
          440 1300 rmoveto
          282 65 118 215 vhcurveto
          -8 23 -26 39 -16 8 rrcurveto
          -300 -170 -208 -302 -128 2 -186 -136 4 hvcurveto
          -70 vlineto
          116 4 18 -116 -88 vvcurveto
          -614 285 -226 215 vhcurveto
          15 10 22 22 13 28 rrcurveto
          -250 98 -60 174 448 vvcurveto
          65 4 172 -175 61 vhcurveto
          175 79 -4 222 81 vvcurveto
          endchar
        </CharString>
        <CharString name="braceright">
          -297 1700 70 hstem
          326 240 vstem
          326 1300 rmoveto
          -81 -4 -222 175 -79 vhcurveto
          -175 -61 4 -172 -65 vvcurveto
          -448 -60 -174 -250 -98 vhcurveto
          13 -28 22 -22 15 -10 rrcurveto
          215 285 226 614 88 18 116 116 -4 hvcurveto
          70 vlineto
          -136 -4 2 186 128 vvcurveto
          302 -170 208 -300 vhcurveto
          -16 -8 -26 -39 -8 -23 rrcurveto
          215 65 -118 -282 hvcurveto
          endchar
        </CharString>
        <CharString name="bracketleft">
          33 callgsubr
          180 230 vstem
          180 1489 rmoveto
          -1468 vlineto
          -114 -8 -24 -12 -43 vhcurveto
          590 hlineto
          12 17 15 64 3 29 rrcurveto
          -14 -62 -15 -6 -160 hhcurveto
          -87 -46 26 83 hvcurveto
          1432 vlineto
          83 46 26 87 160 15 -6 -14 62 vhcurveto
          -3 29 -15 64 -12 17 rrcurveto
          -590 hlineto
          12 -43 8 -24 -114 vvcurveto
          endchar
        </CharString>
        <CharString name="bracketright">
          33 callgsubr
          511 230 vstem
          741 1489 rmoveto
          114 8 24 12 43 vhcurveto
          -590 hlineto
          -12 -17 -15 -64 -3 -29 rrcurveto
          14 62 15 6 160 hhcurveto
          87 46 -26 -83 hvcurveto
          -1432 vlineto
          -83 -46 -26 -87 -160 -15 6 14 -62 vhcurveto
          3 -29 15 -64 12 -17 rrcurveto
          590 hlineto
          -12 43 -8 24 114 vvcurveto
          1468 vlineto
          endchar
        </CharString>
        <CharString name="breve">
          -212 1160 165 205 -20 hstem
          105 -1 callsubr
          vstem
          447 1325 rmoveto
          -101 callsubr
        </CharString>
        <CharString name="breve.cap">
          -212 1610 165 hstem
          105 -1 callsubr
          vstem
          447 1775 rmoveto
          -101 callsubr
        </CharString>
        <CharString name="brokenbar">
          -474 22 callsubr
          203 183 vstem
          386 1458 rmoveto
          117 4 71 12 64 vhcurveto
          -215 hlineto
          12 -63 4 -72 -117 vvcurveto
          -154 7 -245 -13 -129 vhcurveto
          195 hlineto
          -13 130 7 243 155 vvcurveto
          -1326 vmoveto
          155 -7 243 13 130 vhcurveto
          -195 hlineto
          13 -129 -7 -245 -154 vvcurveto
          -117 -4 -72 -12 -63 vhcurveto
          215 hlineto
          -12 64 -4 71 117 vvcurveto
          endchar
        </CharString>
        <CharString name="bullet">
          -171 284 593 hstem
          165 557 vstem
          165 581 rmoveto
          -163 125 -134 154 153 125 134 163 163 -125 133 -153 -154 -125 -133 -163 vhcurveto
          endchar
        </CharString>
        <CharString name="c">
          -45 callgsubr
          hstemhm
          60 258 hintmask 00000000
          hintmask 10111000
          -90 callsubr
          hintmask 11011000
          -35 callsubr
          hintmask 10111000
          -37 callsubr
          endchar
        </CharString>
        <CharString name="cacute">
          -45 callgsubr
          480 -20 hstemhm
          60 258 30 421 hintmask 00000000
          hintmask 10110100
          -90 callsubr
          hintmask 11010100
          -35 callsubr
          hintmask 10110100
          -37 callsubr
          hintmask 00001010
          709 873 rmoveto
          -97 callgsubr
          endchar
        </CharString>
        <CharString name="caron">
          -189 1530 -20 hstem
          105 666 vstem
          199 1530 -87 callsubr
        </CharString>
        <CharString name="caron.cap">
          -127 1680 300 hstem
          123 690 vstem
          226 1980 rmoveto
          -93 callsubr
        </CharString>
        <CharString name="caronvertical">
          -555 1533 -20 hstem
          195 208 vstem
          393 1351 -82 callsubr
        </CharString>
        <CharString name="ccaron">
          -45 callgsubr
          480 -20 hstemhm
          60 258 -209 666 hintmask 00000000
          hintmask 10110100
          -90 callsubr
          hintmask 11010100
          -35 callsubr
          hintmask 10110100
          -37 callsubr
          hintmask 00001010
          143 873 -87 callsubr
        </CharString>
        <CharString name="ccedilla">
          -45 callgsubr
          hstemhm
          60 258 hintmask 00000000
          hintmask 10111000
          -90 callsubr
          hintmask 11011000
          -35 callsubr
          hintmask 10111000
          -37 callsubr
          hintmask 00000000
          301 -1117 -66 callsubr
        </CharString>
        <CharString name="ccircumflex">
          -45 callgsubr
          365 115 hstemhm
          60 258 -223 666 hintmask 00000000
          hintmask 10110100
          -90 callsubr
          hintmask 11010100
          -35 callsubr
          hintmask 10110100
          -37 callsubr
          hintmask 00001010
          607 503 -98 callgsubr
        </CharString>
        <CharString name="cdotaccent">
          -45 callgsubr
          507 -20 hstemhm
          60 258 -39 314 hintmask 00000000
          hintmask 10110100
          -90 callsubr
          hintmask 11010100
          -35 callsubr
          hintmask 10110100
          -37 callsubr
          hintmask 00001010
          376 544 -94 callgsubr
          endchar
        </CharString>
        <CharString name="cedilla">
          -460 -500 70 hstemhm
          325 165 hintmask 00000000
          hintmask 11000000
          200 -500 -66 callsubr
        </CharString>
        <CharString name="cent">
          -45 callgsubr
          hstemhm
          60 228 hintmask 11011000
          60 657 rmoveto
          -299 180 -195 177 -101 vhcurveto
          -13 -88 -11 -47 -16 -47 rrcurveto
          195 hlineto
          -12 41 -5 33 -1 48 rrcurveto
          -14 48 43 -8 35 hhcurveto
          35 18 34 37 5 35 rrcurveto
          -50 -73 23 48 -74 hvcurveto
          7 203 10 308 21 227 48 -53 34 -97 24 -149 rrcurveto
          60 76 25 134 124 vvcurveto
          59 -8 56 -17 41 vhcurveto
          -52 -30 -41 -8 -49 hhcurveto
          -11 -10 0 1 -10 hvcurveto
          11 92 5 49 16 48 rrcurveto
          -195 hlineto
          15 -54 8 -38 2 -82 rrcurveto
          hintmask 10111000
          2 -23 -24 2 -25 hhcurveto
          -37 callsubr
          379 -412 rmoveto
          -85 97 -66 139 185 vvcurveto
          160 71 100 114 4 vhcurveto
          -1 -196 -13 -277 -20 -212 rrcurveto
          endchar
        </CharString>
        <CharString name="circumflex">
          -187 1415 115 hstem
          105 666 vstem
          677 1160 -98 callgsubr
        </CharString>
        <CharString name="circumflex.cap">
          -127 1880 101 hstem
          123 690 vstem
          710 1681 rmoveto
          -101 callgsubr
        </CharString>
        <CharString name="colon">
          -380 11 -21 721 -21 hstemhm
          183 322 hintmask 10100000
          183 161 rmoveto
          -80 callsubr
          hintmask 01100000
          700 vmoveto
          -80 callsubr
          endchar
        </CharString>
        <CharString name="comma">
          -352 -350 690 hstem
          265 237 vstem
          -39 callgsubr
          endchar
        </CharString>
        <CharString name="commaaccent">
          -388 -16 callgsubr
          hstem
          302 237 vstem
          535 -218 -98 callsubr
        </CharString>
        <CharString name="copyright">
          553 0 130 170 100 697 103 200 130 hstem
          100 155 195 220 386 35 266 155 vstem
          100 764 rmoveto
          -443 307 -321 399 399 307 321 443 443 -307 323 -399 -399 -307 -323 -443 vhcurveto
          155 hmoveto
          370 238 266 313 313 238 -266 -370 -370 -238 -264 -313 -313 -238 264 370 vhcurveto
          415 26 rmoveto
          190 72 117 114 101 35 -79 -188 28 vhcurveto
          62 60 25 101 89 vvcurveto
          52 -8 52 -17 36 vhcurveto
          -36 -32 -41 -4 -50 -52 -50 20 -62 hhcurveto
          -219 -126 -170 -250 -263 142 -217 218 139 61 52 28 50 hvcurveto
          38 54 8 119 -50 37 rrcurveto
          -136 -55 -74 -54 -67 hhcurveto
          -134 -56 185 205 hvcurveto
          endchar
        </CharString>
        <CharString name="currency">
          -51 270 110 480 110 hstem
          135 224 294 224 vstem
          169 180 rmoveto
          52 48 52 44 50 37 rrcurveto
          -26 53 62 -13 68 hhcurveto
          68 62 14 26 54 hvcurveto
          50 -37 53 -45 52 -48 81 81 rcurveline
          -45 48 -41 49 -36 46 rrcurveto
          46 61 27 81 99 vvcurveto
          89 -29 72 -49 54 vhcurveto
          38 51 45 54 50 54 -81 81 rcurveline
          -63 -60 -65 -53 -59 -42 rrcurveto
          16 -47 -53 9 -58 hhcurveto
          -57 -53 -9 -16 -47 hvcurveto
          -59 43 -64 53 -63 59 -81 -81 rcurveline
          49 -54 45 -54 38 -50 rrcurveto
          -50 -54 -29 -73 -89 vvcurveto
          -99 26 -82 47 -61 vhcurveto
          -35 -46 -41 -49 -44 -47 rrcurveto
          565 384 rmoveto
          -175 -54 -90 -93 -93 -54 90 175 31 callgsubr
          vhcurveto
          endchar
        </CharString>
        <CharString name="d">
          -47 8 callgsubr
          hstemhm
          75 250 322 206 hintmask 01111100
          -70 callgsubr
          hintmask 10111100
          -31 callgsubr
          hintmask 01111100
          -45 249 rmoveto
          hintmask 10111100
          -64 callsubr
          endchar
        </CharString>
        <CharString name="dagger">
          -41 1034 -53 callgsubr
          70 -54 29 -46 -5 -543 5 callsubr
          -5 543 29 46 70 54 -27 callsubr
        </CharString>
        <CharString name="daggerdbl">
          -41 346 162 526 -53 callgsubr
          48 -37 29 -34 11 -195 -112 2 -122 8 -69 18 rrcurveto
          -220 vlineto
          74 23 123 5 112 1 1 -61 0 -71 -1 -82 5 callsubr
          -1 81 0 71 1 61 113 -3 128 -8 69 -17 rrcurveto
          220 vlineto
          -67 -18 -126 -8 -112 -2 12 195 29 34 48 37 -27 callsubr
        </CharString>
        <CharString name="dcaron">
          158 8 callgsubr
          23 -20 hstemhm
          75 250 322 206 189 208 hintmask 01110110
          -70 callgsubr
          hintmask 10110110
          -31 callgsubr
          hintmask 01110110
          -45 249 rmoveto
          hintmask 10110110
          -64 callsubr
          hintmask 00001001
          598 1023 -82 callsubr
        </CharString>
        <CharString name="dcroat">
          -47 -20 100 -59 -21 916 94 130 150 240 -20 hstemhm
          75 250 47 612 -337 206 hintmask 01111101
          701 hmoveto
          259 hlineto
          -48 65 -39 43 -9 120 -15 189 1 429 9 310 rrcurveto
          hintmask 10111110
          47 -3 44 -5 34 -8 rrcurveto
          170 vlineto
          -33 -8 -42 -5 -45 -3 rrcurveto
          6 vlineto
          5 122 11 -41 callsubr
          39 -45 9 -122 rrcurveto
          -7 vlineto
          -94 -98 4 16 -65 hvcurveto
          -170 vlineto
          67 16 101 3 96 1 5 -151 rcurveline
          -280 -11 -286 -223 -447 vvcurveto
          -31 callgsubr
          hintmask 01111101
          -45 249 rmoveto
          hintmask 10111101
          -64 callsubr
          endchar
        </CharString>
        <CharString name="degree">
          -150 880 110 430 110 hstem
          116 194 294 194 vstem
          310 1205 rmoveto
          31 callgsubr
          -140 -64 -75 -83 -83 -64 75 140 vhcurveto
          488 hmoveto
          208 -144 117 -197 -197 -144 -117 -208 -209 144 -116 197 197 144 116 209 vhcurveto
          endchar
        </CharString>
        <CharString name="dieresis">
          -57 1195 320 hstem
          144 718 vstem
          285 1195 -92 callgsubr
        </CharString>
        <CharString name="dieresis.cap">
          -57 1658 302 hstem
          164 678 vstem
          297 1658 -47 callgsubr
          -86 callgsubr
        </CharString>
        <CharString name="divide">
          223 101 19 450 150 151 19 hstemhm
          178 932 -605 289 hintmask 01010000
          650 720 rmoveto
          -73 callgsubr
          hintmask 10001000
          -145 -465 rmoveto
          6 callsubr
          hintmask 00101000
          770 vmoveto
          6 callsubr
          endchar
        </CharString>
        <CharString name="dollar">
          -69 -20 -48 callsubr
          hstemhm
          68 223 -165 210 191 14 156 229 hintmask 11010111
          473 1550 rmoveto
          -258 -89 -173 -145 -266 186 -164 160 -154 hvcurveto
          -21 -234 -22 -213 -17 -97 rrcurveto
          hintmask 10111011
          -78 43 -43 97 121 vvcurveto
          68 7 44 6 53 vhcurveto
          -82 -22 -113 -67 -41 -141 rrcurveto
          -179 154 -107 172 -27 vhcurveto
          -9 -66 -8 -56 -11 -35 rrcurveto
          175 hlineto
          1 40 2 51 1 62 rrcurveto
          231 23 150 150 189 vvcurveto
          212 -176 171 -159 158 vhcurveto
          14 185 16 177 12 125 98 -81 62 -151 13 -121 rrcurveto
          38 20 20 128 131 vvcurveto
          73 -6 192 -67 36 vhcurveto
          -56 -37 -24 -14 -55 hhcurveto
          -9 -8 0 1 -7 hvcurveto
          10 88 5 46 16 47 rrcurveto
          -165 hlineto
          6 -51 3 -40 1 -73 rrcurveto
          hintmask 11010111
          1 -16 -18 1 -20 hhcurveto
          25 -570 rmoveto
          -92 98 -70 96 101 vvcurveto
          75 36 80 114 13 13 -2 -2 13 vhcurveto
          -3 -105 -11 -164 -13 -177 rrcurveto
          47 -878 rmoveto
          -1 82 9 171 13 196 rrcurveto
          76 -84 55 -87 -106 vvcurveto
          -109 -51 -70 -101 -13 vhcurveto
          endchar
        </CharString>
        <CharString name="dotaccent">
          -468 1557 -20 hstem
          155 314 vstem
          312 1201 -94 callgsubr
          endchar
        </CharString>
        <CharString name="dotaccent.cap">
          -468 1614 356 hstem
          155 314 vstem
          312 1614 -94 callgsubr
          endchar
        </CharString>
        <CharString name="dotlessi">
          -21 callgsubr
          hstem
          189 215 vstem
          414 781 rmoveto
          12 121 4 42 18 66 rrcurveto
          -12 callgsubr
          -84 -85 vvcurveto
          -113 -6 -112 -89 callsubr
          112 -7 callsubr
          85 3 84 7 71 vhcurveto
          endchar
        </CharString>
        <CharString name="dotlessj">
          -490 1010 -20 hstem
          194 207 vstem
          401 331 rmoveto
          125 0 193 6 132 vhcurveto
          6 121 10 42 18 66 rrcurveto
          -16 callsubr
          48 -66 29 -42 19 -121 rrcurveto
          21 -133 -9 -192 -125 vvcurveto
          -525 -145 -139 -102 -49 vhcurveto
          5 -25 30 -34 26 -11 rrcurveto
          154 53 239 158 572 vvcurveto
          endchar
        </CharString>
        <CharString name="e">
          -107 -45 callsubr
          hstemhm
          75 238 316 -5 callgsubr
          hintmask 11111000
          -17 callgsubr
          hintmask 11110100
          396 -22 319 41 -64 hvcurveto
          -170 -78 -99 -90 -97 hhcurveto
          -141 -60 142 151 -16 hvcurveto
          hintmask 11111000
          343 8 194 157 242 vvcurveto
          -543 -281 -4 callsubr
        </CharString>
        <CharString name="eacute">
          -55 -45 callsubr
          23 callsubr
          127 238 71 421 -176 -5 callgsubr
          hintmask 11101010
          908 -103 callgsubr
          492 1062 rmoveto
          -97 callgsubr
          endchar
        </CharString>
        <CharString name="ebreve">
          -107 -45 callsubr
          130 -2 callsubr
          75 238 -167 134 349 227 -168 124 -2 36 hintmask 1110010100000000
          -17 callgsubr
          hintmask 1110010001000000
          396 -22 319 41 -64 hvcurveto
          -170 -78 -99 -90 -97 hhcurveto
          -141 -60 142 151 -16 hvcurveto
          hintmask 1110010100000000
          343 8 194 157 242 vvcurveto
          -543 -281 rmoveto
          323 89 108 111 80 36 -73 -83 -163 -79 -127 -237 -16 vhcurveto
          hintmask 0001101010000000
          175 857 rmoveto
          -101 callsubr
        </CharString>
        <CharString name="ecaron">
          -107 -45 callsubr
          23 callsubr
          75 238 -148 666 -202 -5 callgsubr
          hintmask 11101010
          856 -103 callgsubr
          -54 1062 -87 callsubr
        </CharString>
        <CharString name="ecircumflex">
          -55 -45 callsubr
          385 115 hstemhm
          127 238 -142 666 -208 -5 callgsubr
          hintmask 11101010
          908 -103 callgsubr
          430 692 -98 callgsubr
        </CharString>
        <CharString name="edieresis">
          -55 -45 callsubr
          165 320 hstemhm
          127 238 -178 718 -224 -5 callgsubr
          hintmask 11101010
          908 -103 callgsubr
          -37 727 -92 callgsubr
        </CharString>
        <CharString name="edotaccent">
          -107 -45 callsubr
          527 -20 hstemhm
          75 238 18 314 -16 -5 callgsubr
          hintmask 11101010
          856 -103 callgsubr
          175 733 -94 callgsubr
          endchar
        </CharString>
        <CharString name="egrave">
          -55 -45 callsubr
          23 callsubr
          127 238 -129 421 24 -5 callgsubr
          hintmask 11101010
          908 -103 callgsubr
          -129 1062 -79 callsubr
        </CharString>
        <CharString name="eight">
          140 -20 100 871 80 -52 52 -52 88 383 100 hstemhm
          134 254 -194 244 324 244 -194 254 hintmask 1010101010000000
          600 -20 rmoveto
          334 132 339 292 247 -97 111 -166 41 hvcurveto
          hintmask 1010101100000000
          148 54 55 113 104 vvcurveto
          200 -205 69 -201 -201 -205 -69 -200 -105 55 -115 151 -53 vhcurveto
          hintmask 1010110100000000
          -168 -45 -98 -117 -235 vvcurveto
          -292 131 -339 335 vhcurveto
          hintmask 1100110010000000
          971 vmoveto
          144 68 -171 -174 -303 -67 -223 -145 -145 -67 223 303 174 68 171 144 hvcurveto
          499 vmoveto
          hintmask 1010101100000000
          127 35 -95 -79 hvcurveto
          hintmask 1001101100000000
          -83 -52 -126 -110 -110 -52 126 83 79 35 95 127 vhcurveto
          endchar
        </CharString>
        <CharString name="ellipsis">
          986 -10 342 hstemhm
          183 322 361 322 361 322 cntrmask 01110000
          hintmask 00000000
          hintmask 11110000
          183 161 rmoveto
          -80 callsubr
          683 hmoveto
          -80 callsubr
          683 hmoveto
          -80 callsubr
          endchar
        </CharString>
        <CharString name="emacron">
          -107 -45 callsubr
          170 170 hstemhm
          75 238 -165 692 -211 -5 callgsubr
          hintmask 11101010
          856 -103 callgsubr
          187 902 rmoveto
          -96 callgsubr
        </CharString>
        <CharString name="emdash">
          595 510 180 hstem
          88 1482 vstem
          835 690 rmoveto
          -241 -304 2 28 -202 hvcurveto
          -240 vlineto
          29 202 304 1 241 hhcurveto
          233 333 -3 -27 169 hvcurveto
          240 vlineto
          -27 -169 -333 -3 -233 hhcurveto
          endchar
        </CharString>
        <CharString name="endash">
          144 510 180 hstem
          88 1032 vstem
          610 690 rmoveto
          -175 -211 2 28 -136 hvcurveto
          -240 vlineto
          29 136 211 1 175 hhcurveto
          164 223 -3 -27 123 hvcurveto
          240 vlineto
          -27 -123 -223 -3 -164 hhcurveto
          endchar
        </CharString>
        <CharString name="eng">
          61 -421 -21 463 -21 860 150 hstemhm
          154 207 374 205 hintmask 00000000
          hintmask 11111000
          405 1010 rmoveto
          -347 -30 callgsubr
          -40 -74 callsubr
          -114 -51 callgsubr
          287 -68 callsubr
          38 0 39 2 36 vhcurveto
          100 36 81 104 117 hhcurveto
          117 21 -190 -399 hvcurveto
          -13 -1 -13 -13 vvcurveto
          -2 -70 -6 -40 2 -37 -30 -373 -122 -111 -88 -43 5 -25 30 -34 26 -11 145 50 220 144 25 494 rrcurveto
          18 143 -17 227 141 vvcurveto
          -50 callsubr
          -14 callgsubr
          endchar
        </CharString>
        <CharString name="eogonek">
          -107 30 callsubr
          341 100 293 94 463 100 hstemhm
          75 238 86 195 35 -5 callgsubr
          hintmask 11111101
          820 -71 callgsubr
          97 112 90 50 77 hvcurveto
          122 97 -24 162 -44 29 rrcurveto
          -170 -78 -99 -90 -97 hhcurveto
          -141 -60 142 151 -16 hvcurveto
          hintmask 11111110
          -21 callsubr
          -280 -198 -179 -332 -298 124 -241 301 15 14 1 1 14 vhcurveto
          -55 -85 -89 -88 -93 -63 callgsubr
          -507 929 -4 callsubr
        </CharString>
        <CharString name="equal">
          223 370 150 250 150 hstem
          178 932 vstem
          650 920 rmoveto
          -73 callgsubr
          -400 vmoveto
          -73 callgsubr
          endchar
        </CharString>
        <CharString name="eth">
          98 -20 100 840 110 -65 65 410 90 40 -20 hstem
          152 266 354 258 vstem
          220 1210 rmoveto
          100 -160 64 60 88 62 93 56 rlinecurve
          54 -61 43 -70 22 -75 rrcurveto
          6 -26 -30 2 -41 hhcurveto
          -296 -139 -253 -237 -296 163 -264 271 249 195 194 387 342 -133 253 -168 161 hvcurveto
          67 34 66 28 58 21 -93 170 rcurveline
          -56 -50 -77 -56 -83 -52 -122 82 -129 39 -105 -3 -30 -16 -42 -44 -3 -30 rrcurveto
          83 105 -45 -71 94 hvcurveto
          -86 -47 -86 -39 -71 -23 rrcurveto
          371 -1135 rmoveto
          -128 -44 222 224 159 61 235 131 110 52 -126 -278 -304 -66 -132 -116 hvcurveto
          endchar
        </CharString>
        <CharString name="exclam">
          -381 11 -21 1594 -20 hstem
          261 173 vstem
          437 470 rmoveto
          -13 240 30 288 31 242 15 117 19 92 18 63 -188 72 rcurveline
          -188 -72 18 -63 23 -92 10 -117 rlinecurve
          21 -242 28 -288 -240 vvcurveto
          -78 -309 rmoveto
          -80 callsubr
          endchar
        </CharString>
        <CharString name="exclamdown">
          -381 -486 20 1553 21 hstem
          261 173 vstem
          261 628 rmoveto
          -240 -28 -288 -21 -242 vhcurveto
          -10 -117 -23 -92 -18 -63 188 -72 rcurveline
          188 72 -18 63 -19 92 -15 117 rlinecurve
          -31 242 -30 288 13 240 rrcurveto
          -254 309 rmoveto
          -80 callsubr
          endchar
        </CharString>
        <CharString name="f">
          -325 21 -21 -24 callgsubr
          40 33 callsubr
          hintmask 11011010
          -62 callgsubr
          hintmask 11011100
          -22 callsubr
          hintmask 11011010
          -75 callsubr
          hintmask 11101100
          -84 callsubr
          hintmask 11011100
          -82 callgsubr
          hintmask 11011010
          -10 callgsubr
          endchar
        </CharString>
        <CharString name="ff">
          413 21 -21 -24 callgsubr
          40 33 callsubr
          523 224 -222 213 hintmask 1101101000000000
          -62 callgsubr
          hintmask 1101110000000000
          -22 callsubr
          hintmask 1101101000000000
          -75 callsubr
          hintmask 1110110000000000
          -84 callsubr
          hintmask 1101110000000000
          -82 callgsubr
          hintmask 1101101000000000
          -10 callgsubr
          hintmask 1101100010000000
          738 hmoveto
          -168 -6 -166 -7 -129 vhcurveto
          -6 -120 -19 callsubr
          365 hlineto
          hintmask 1101100100000000
          -22 callsubr
          hintmask 1101100010000000
          -75 callsubr
          hintmask 1110100100000000
          -84 callsubr
          hintmask 1101100100000000
          -82 callgsubr
          hintmask 1101100010000000
          -10 callgsubr
          endchar
        </CharString>
        <CharString name="fi">
          270 21 -21 780 130 100 -20 450 90 -90 110 7 -20 53 33 callsubr
          531 215 hintmask 1100101010000000
          -62 callgsubr
          hintmask 1100101100000000
          -22 callsubr
          hintmask 1100101010000000
          -75 callsubr
          hintmask 1101001100000000
          -84 callsubr
          hintmask 1100101100000000
          -82 callgsubr
          hintmask 1100101010000000
          -10 callgsubr
          hintmask 1010010001000000
          867 510 -94 callgsubr
          136 -191 rmoveto
          -12 callgsubr
          -82 -9 callsubr
          -114 -89 callsubr
          114 113 vvcurveto
          161 5 162 39 144 vhcurveto
          endchar
        </CharString>
        <CharString name="five">
          -55 -20 100 890 130 -48 -20 378 120 hstemhm
          146 162 342 254 hintmask 10111100
          146 930 rmoveto
          hintmask 11011100
          27 82 69 13 64 hhcurveto
          216 73 -149 -145 -341 -247 -255 -289 hvcurveto
          3 -38 32 -54 40 -8 rrcurveto
          361 354 360 381 212 -122 167 -287 -75 -62 -13 -17 -49 hvcurveto
          -1 50 0 33 95 vvcurveto
          1 155 34 6 113 1 rrcurveto
          51 hlineto
          210 70 -76 -204 78 hvcurveto
          16 35 37 61 111 vvcurveto
          108 -29 85 -61 vhcurveto
          -732 hlineto
          37 -69 13 -56 -137 vvcurveto
          endchar
        </CharString>
        <CharString name="fl">
          237 21 -21 -24 callgsubr
          -20 -20 80 33 callsubr
          507 223 hintmask 1101010100000000
          -62 callgsubr
          hintmask 1101011000000000
          -22 callsubr
          hintmask 1101010100000000
          -75 callsubr
          hintmask 1110011000000000
          -84 callsubr
          hintmask 1101011000000000
          -82 callgsubr
          hintmask 1101010100000000
          -10 callgsubr
          hintmask 1000100010000000
          943 29 -95 callgsubr
          endchar
        </CharString>
        <CharString name="florin">
          -325 -24 callgsubr
          40 -20 hstemhm
          845 20 hintmask 11011000
          162 691 rmoveto
          -22 -168 -50 -506 -24 -129 -21 -120 -16 -43 -26 -65 rrcurveto
          365 hlineto
          -40 65 -31 43 4 120 7 140 37 431 33 252 rrcurveto
          52 6 17 37 54 52 11 -20 49 hhcurveto
          73 31 83 47 20 hvcurveto
          -184 hlineto
          -97 10 62 279 36 hvcurveto
          117 15 66 72 78 hhcurveto
          99 12 -93 -248 -4 hvcurveto
          70 77 54 153 16 125 8 58 -11 58 -14 20 rrcurveto
          -51 -38 -41 -9 -49 hhcurveto
          hintmask 10111000
          -57 -52 20 -69 hhcurveto
          -189 -119 -124 -179 -11 hvcurveto
          -5 -84 -7 -97 -13 -103 rrcurveto
          -50 -6 -6 -13 -37 hhcurveto
          -64 hlineto
          8 -47 -12 -44 77 -19 20 -4 -5 -35 -8 -60 rrcurveto
          endchar
        </CharString>
        <CharString name="four">
          70 21 -21 500 110 920 -20 hstem
          650 204 vstem
          869 1010 rmoveto
          7 117 9 40 10 63 rrcurveto
          -275 hlineto
          14 -63 1 -40 11 -117 5 -107 0 -147 -4 -146 rrcurveto
          -163 hlineto
          -98 -3 -48 20 10 63 18 108 89 325 52 198 29 110 18 39 19 60 rrcurveto
          -321 hlineto
          6 -6 2 -110 -6 -93 -9 -152 -48 -276 -43 -150 -33 -114 -23 -66 -32 -63 rrcurveto
          514 hlineto
          64 hlineto
          -4 -105 -7 -98 -7 -75 -12 -118 -25 -58 -29 -46 rrcurveto
          355 hlineto
          -26 63 -10 42 -10 117 -6 72 -5 95 -2 101 92 -9 47 -15 55 -16 rrcurveto
          210 vlineto
          -64 -28 -43 -15 -89 -5 -1 145 4 146 12 107 rrcurveto
          endchar
        </CharString>
        <CharString name="fraction">
          -41 27 callgsubr
          266 510 vstem
          332 222 -83 callgsubr
          endchar
        </CharString>
        <CharString name="g">
          -25 callsubr
          hstem
          77 250 320 205 vstem
          -97 callsubr
          endchar
        </CharString>
        <CharString name="gbreve">
          -25 callsubr
          150 -2 callsubr
          77 250 -100 134 286 205 -83 124 hintmask 1110010100000000
          -97 callsubr
          hintmask 0001101010000000
          -75 991 rmoveto
          -101 callsubr
        </CharString>
        <CharString name="gcircumflex">
          -25 callsubr
          405 115 hstemhm
          77 250 -122 666 -224 205 hintmask 11101010
          -97 callsubr
          hintmask 00010100
          133 826 -98 callgsubr
        </CharString>
        <CharString name="gcommaaccent">
          -25 callsubr
          180 415 hstemhm
          77 250 67 237 16 205 hintmask 11101010
          -97 callsubr
          hintmask 00010100
          -246 990 rmoveto
          -11 -60 10 -38 20 -36 rrcurveto
          296 hlineto
          -39 28 -43 95 66 vvcurveto
          58 24 63 77 64 vhcurveto
          -23 22 -20 12 -19 7 -90 -25 -160 -130 -22 -126 rrcurveto
          endchar
        </CharString>
        <CharString name="gdotaccent">
          -25 callsubr
          547 -20 hstemhm
          77 250 76 314 -70 205 hintmask 11101010
          -97 callsubr
          hintmask 00010100
          -84 867 -94 callgsubr
          endchar
        </CharString>
        <CharString name="germandbls">
          135 -20 100 -59 -21 1440 110 hstemhm
          197 212 187 225 -47 204 -43 205 hintmask 00000000
          hintmask 10110100
          978 1215 rmoveto
          172 -102 163 -273 -318 -90 -225 -362 -50 -4 -19 -37 vhcurveto
          -54 0 -1 -10 hhcurveto
          14 -47 -6 -37 79 -19 rrcurveto
          -10 callgsubr
          -168 -6 -166 -7 -129 vhcurveto
          hintmask 01110100
          -6 -120 -19 callsubr
          365 hlineto
          -58 65 -27 53 -11 -50 callgsubr
          -17 207 7 522 234 vvcurveto
          141 63 98 111 152 39 -105 -96 vhcurveto
          -227 -178 -89 -186 vvcurveto
          hintmask 10111010
          -250 339 -83 -204 vvcurveto
          -87 -41 -33 -52 -88 -45 128 109 7 vhcurveto
          -56 -14 -103 -97 -9 -104 rrcurveto
          -59 24 92 -63 144 hhcurveto
          244 88 161 134 hvcurveto
          229 -319 121 154 vvcurveto
          hintmask 10110100
          121 157 117 198 vvcurveto
          endchar
        </CharString>
        <CharString name="grave">
          -411 1530 -20 hstem
          50 421 vstem
          50 1530 -79 callsubr
        </CharString>
        <CharString name="grave.cap">
          -302 1693 300 hstem
          17 487 vstem
          17 1993 -79 callgsubr
        </CharString>
        <CharString name="greater">
          -90 440 150 hstem
          50 841 vstem
          57 870 -49 callsubr
          endchar
        </CharString>
        <CharString name="greaterequal">
          -90 55 142 544 150 hstem
          84 841 vstem
          91 1171 -49 callsubr
          406 -974 rmoveto
          -126 -181 8 21 -85 hvcurveto
          -200 vlineto
          22 86 180 7 126 hhcurveto
          130 182 2 -31 98 hvcurveto
          200 vlineto
          -24 -92 -187 -5 -131 hhcurveto
          endchar
        </CharString>
        <CharString name="guillemotleft">
          9 callgsubr
          649 920 rmoveto
          -56 callsubr
          hintmask 10100000
          420 hmoveto
          -56 callsubr
          endchar
        </CharString>
        <CharString name="guillemotright">
          9 callgsubr
          240 920 rmoveto
          -43 callsubr
          -65 -279 279 71 -65 hvcurveto
          420 hmoveto
          -43 callsubr
          hintmask 10100000
          -65 -279 279 71 -65 hvcurveto
          endchar
        </CharString>
        <CharString name="guilsinglleft">
          21 callgsubr
          649 920 rmoveto
          -56 callsubr
          endchar
        </CharString>
        <CharString name="guilsinglright">
          21 callgsubr
          240 920 rmoveto
          -43 callsubr
          -65 -279 279 71 -65 hvcurveto
          endchar
        </CharString>
        <CharString name="h">
          26 callsubr
          hstem
          172 223 349 208 vstem
          -77 callgsubr
          endchar
        </CharString>
        <CharString name="hbar">
          26 callsubr
          110 150 hstemhm
          42 612 -482 223 349 208 hintmask 11101100
          615 860 rmoveto
          117 12 -138 -179 -113 -6 -86 callsubr
          207 -86 136 -163 -142 -105 -89 -103 -61 vhcurveto
          108 2 114 4 100 vhcurveto
          hintmask 11110100
          90 -1 99 -4 64 -15 rrcurveto
          170 vlineto
          -63 -15 -96 -4 -89 -1 rrcurveto
          3 1 3 3 vvcurveto
          6 122 10 -61 callsubr
          hintmask 11101100
          48 -66 36 -41 12 -123 rrcurveto
          -6 vlineto
          hintmask 11110100
          -49 3 -46 5 -35 9 rrcurveto
          -170 vlineto
          38 9 49 5 53 3 rrcurveto
          4 -102 2 -114 -96 vvcurveto
          hintmask 11101100
          -231 -10 -208 -6 -178 -90 callgsubr
          129 2 152 165 vvcurveto
          94 37 73 92 110 hhcurveto
          endchar
        </CharString>
        <CharString name="hcircumflex">
          26 callsubr
          814 101 hstemhm
          -77 690 -441 223 349 208 hintmask 11001100
          -77 callgsubr
          hintmask 00110000
          -105 785 rmoveto
          -101 callgsubr
        </CharString>
        <CharString name="hungarumlaut">
          -41 1530 -20 hstem
          89 808 vstem
          510 1530 -67 callgsubr
        </CharString>
        <CharString name="hungarumlaut.cap">
          -41 1622 370 hstem
          89 788 vstem
          480 1992 rmoveto
          -226 hlineto
          -25 -116 -260 -49 -85 vhcurveto
          114 hlineto
          56 41 133 137 88 192 rrcurveto
          397 hmoveto
          -236 hlineto
          -25 -116 -260 -49 -85 vhcurveto
          114 hlineto
          56 41 143 137 88 192 rrcurveto
          endchar
        </CharString>
        <CharString name="hyphen">
          -43 callgsubr
        </CharString>
        <CharString name="i">
          -21 callgsubr
          567 -20 hstem
          189 215 vstem
          312 1201 -94 callgsubr
          136 -191 rmoveto
          -12 callgsubr
          -82 -9 callsubr
          -114 -89 callsubr
          114 113 vvcurveto
          161 5 162 39 144 vhcurveto
          endchar
        </CharString>
        <CharString name="iacute">
          -21 callgsubr
          540 -20 hstemhm
          189 215 -197 421 hintmask 11010000
          414 781 rmoveto
          12 121 4 42 18 66 rrcurveto
          -12 callgsubr
          -84 -85 vvcurveto
          -113 -6 -112 -89 callsubr
          112 -7 callsubr
          85 3 84 7 71 vhcurveto
          hintmask 00101000
          214 749 rmoveto
          -97 callgsubr
          endchar
        </CharString>
        <CharString name="ibreve">
          -21 callgsubr
          170 -2 callsubr
          -35 134 90 215 103 124 hintmask 11000100
          414 781 rmoveto
          12 121 4 42 18 66 rrcurveto
          -12 callgsubr
          -84 -85 vvcurveto
          -113 -6 -112 -89 callsubr
          112 -7 callsubr
          85 3 84 7 71 vhcurveto
          hintmask 00111010
          -107 544 rmoveto
          -101 callsubr
        </CharString>
        <CharString name="icircumflex">
          -21 callgsubr
          425 115 hstemhm
          -35 666 -442 215 hintmask 11001000
          414 781 rmoveto
          12 121 4 42 18 66 rrcurveto
          -12 callgsubr
          -84 -85 vvcurveto
          -113 -6 -112 -89 callsubr
          112 -7 callsubr
          85 3 84 7 71 vhcurveto
          hintmask 00110000
          123 379 -98 callgsubr
        </CharString>
        <CharString name="idieresis">
          -21 callgsubr
          205 320 hstemhm
          -71 718 -458 215 hintmask 11001000
          414 781 rmoveto
          12 121 4 42 18 66 rrcurveto
          -12 callgsubr
          -84 -85 vvcurveto
          -113 -6 -112 -89 callsubr
          112 -7 callsubr
          85 3 84 7 71 vhcurveto
          hintmask 00110000
          -344 414 -92 callgsubr
        </CharString>
        <CharString name="igrave">
          -21 callgsubr
          540 -20 hstemhm
          -13 421 -219 215 hintmask 11001000
          414 781 rmoveto
          12 121 4 42 18 66 rrcurveto
          -12 callgsubr
          -84 -85 vvcurveto
          -113 -6 -112 -89 callsubr
          112 -7 callsubr
          85 3 84 7 71 vhcurveto
          hintmask 00110000
          -427 749 -79 callsubr
        </CharString>
        <CharString name="ij">
          51 -429 -21 471 -46 callgsubr
          567 -20 hstemhm
          189 215 345 207 hintmask 01111000
          312 1201 -94 callgsubr
          136 -191 rmoveto
          -12 callgsubr
          -82 -9 callsubr
          -114 -89 callsubr
          114 113 vvcurveto
          161 5 162 39 144 vhcurveto
          hintmask 10110100
          406 191 -94 callgsubr
          102 -870 rmoveto
          125 2 193 6 132 vhcurveto
          6 121 3 54 25 54 rrcurveto
          -16 callsubr
          53 -50 24 -58 19 -121 rrcurveto
          21 -133 -11 -192 -125 vvcurveto
          -525 -168 -137 -99 -49 vhcurveto
          -7 -23 42 -43 26 -4 rrcurveto
          169 3 244 277 501 vvcurveto
          endchar
        </CharString>
        <CharString name="imacron">
          -21 callgsubr
          210 170 hstemhm
          -48 692 -455 215 hintmask 11001000
          414 781 rmoveto
          12 121 4 42 18 66 rrcurveto
          -12 callgsubr
          -84 -85 vvcurveto
          -113 -6 -112 -89 callsubr
          112 -7 callsubr
          85 3 84 7 71 vhcurveto
          hintmask 00110000
          -110 589 rmoveto
          -96 callgsubr
        </CharString>
        <CharString name="infinity">
          134 342 224 324 224 hstem
          106 100 319 152 319 100 cntrmask 00111000
          385 1114 rmoveto
          -180 -99 -185 -201 -201 96 -185 173 77 88 29 81 61 hvcurveto
          -80 59 83 -30 64 hhcurveto
          214 75 185 201 201 -72 185 -207 -67 -86 -30 -81 -61 hvcurveto
          81 -59 -85 30 -74 hhcurveto
          611 -386 rmoveto
          -127 -95 -35 -79 -83 -62 52 110 110 62 52 83 79 95 -35 -127 vhcurveto
          -790 hmoveto
          127 95 35 79 83 62 -52 -110 -110 -62 -52 -83 -79 -95 35 127 vhcurveto
          endchar
        </CharString>
        <CharString name="integral">
          -212 -510 2283 hstem
          314 206 vstem
          314 271 rmoveto
          -525 -168 -137 -99 -49 vhcurveto
          -7 -23 42 -43 26 -4 169 3 245 277 -1 501 -2 721 rcurveline
          -1 525 169 137 99 49 7 23 -42 43 -26 4 -169 -3 -245 -277 1 -501 rrcurveto
          endchar
        </CharString>
        <CharString name="iogonek">
          -468 30 callsubr
          382 -46 callgsubr
          567 -20 hstemhm
          4 195 -10 215 hintmask 11111000
          425 -71 callgsubr
          76 68 71 54 65 hvcurveto
          129 hlineto
          -18 65 -8 43 -8 -50 callgsubr
          hintmask 11110100
          -6 88 -6 114 -7 callsubr
          161 5 162 39 144 vhcurveto
          -12 callgsubr
          -82 -9 callsubr
          -114 -6 -88 -44 callsubr
          -4 -72 callsubr
          hintmask 11111000
          4 callgsubr
          -113 1631 -94 callgsubr
          endchar
        </CharString>
        <CharString name="itilde">
          -21 callgsubr
          210 -1 callgsubr
          -72 729 -468 215 hintmask 11000100
          414 781 rmoveto
          12 121 4 42 18 66 rrcurveto
          -12 callgsubr
          -84 -85 vvcurveto
          -113 -6 -112 -89 callsubr
          112 -7 callsubr
          85 3 84 7 71 vhcurveto
          hintmask 00000000
          -396 447 -14 callsubr
          hintmask 00011000
          -69 callsubr
          hintmask 00101000
          -54 callgsubr
        </CharString>
        <CharString name="j">
          -480 -429 -21 1460 -20 567 -20 hstem
          214 207 vstem
          319 1201 -94 callgsubr
          102 -870 rmoveto
          125 2 193 6 132 vhcurveto
          6 121 3 54 25 54 rrcurveto
          -16 callsubr
          53 -50 24 -58 19 -121 rrcurveto
          21 -133 -11 -192 -125 vvcurveto
          -525 -168 -137 -99 -49 vhcurveto
          -7 -23 42 -43 26 -4 rrcurveto
          169 3 244 277 501 vvcurveto
          endchar
        </CharString>
        <CharString name="jcircumflex">
          -490 1010 -20 425 115 hstemhm
          -52 666 -420 207 hintmask 10010000
          401 331 rmoveto
          125 0 193 6 132 vhcurveto
          6 121 10 42 18 66 rrcurveto
          -16 callsubr
          48 -66 29 -42 19 -121 rrcurveto
          21 -133 -9 -192 -125 vvcurveto
          -525 -145 -139 -102 -49 vhcurveto
          5 -25 30 -34 26 -11 rrcurveto
          154 53 239 158 572 vvcurveto
          hintmask 01100000
          119 829 -98 callgsubr
        </CharString>
        <CharString name="k">
          -88 21 -21 640 100 270 -20 540 -20 hstem
          149 222 208 71 vstem
          376 -76 callgsubr
          endchar
        </CharString>
        <CharString name="kcommaaccent">
          -37 1 callgsubr
          640 100 270 -20 540 -20 hstemhm
          168 222 121 189 -102 71 hintmask 01111101
          395 -76 callgsubr
          hintmask 10000010
          302 -446 -32 callsubr
        </CharString>
        <CharString name="kgreenlandic">
          -37 21 -21 637 101 272 -20 hstem
          174 216 vstem
          395 228 rmoveto
          -6 67 1 106 97 vvcurveto
          74 11 65 65 52 16 -33 -71 4 vhcurveto
          29 -314 71 -128 94 -91 rrcurveto
          335 hlineto
          -182 94 -183 313 -5 291 64 36 42 39 36 47 53 69 12 76 31 45 rrcurveto
          -289 hlineto
          12 -16 3 -23 -29 vvcurveto
          -93 -97 -113 -110 2 vhcurveto
          -61 1 -3 37 79 vvcurveto
          51 11 61 26 43 vhcurveto
          -315 hlineto
          41 -38 21 -100 -69 vvcurveto
          -215 -3 -194 -3 -166 -61 callgsubr
          -5 43 -11 -50 callgsubr
          endchar
        </CharString>
        <CharString name="l">
          -501 27 callgsubr
          165 223 vstem
          388 720 -95 callgsubr
          endchar
        </CharString>
        <CharString name="lacute">
          -501 -62 callsubr
          182 -18 callgsubr
          148 487 -470 223 hintmask 11001000
          388 720 -95 callgsubr
          hintmask 00110000
          -10 1272 rmoveto
          -93 callgsubr
        </CharString>
        <CharString name="lcaron">
          -267 -62 callsubr
          23 -20 hstemhm
          165 223 196 208 hintmask 11010000
          388 720 -95 callgsubr
          hintmask 00101000
          394 631 -82 callsubr
        </CharString>
        <CharString name="lcommaaccent">
          -501 1 callgsubr
          1530 -20 hstemhm
          165 223 -178 237 hintmask 01110000
          388 720 -95 callgsubr
          hintmask 10001000
          55 -938 -98 callsubr
        </CharString>
        <CharString name="ldot">
          -165 21 -21 445 320 765 -20 hstemhm
          165 223 192 283 hintmask 10110000
          388 720 -95 callgsubr
          hintmask 01001000
          334 -275 rmoveto
          -91 callgsubr
        </CharString>
        <CharString name="less">
          -90 440 150 hstem
          82 841 vstem
          916 870 -48 callgsubr
          endchar
        </CharString>
        <CharString name="lessequal">
          -90 55 142 544 150 hstem
          82 841 vstem
          916 1171 -48 callgsubr
          -406 -974 rmoveto
          -131 -187 5 24 -92 hvcurveto
          -200 vlineto
          31 98 182 -2 130 hhcurveto
          126 180 -7 -22 86 hvcurveto
          200 vlineto
          -21 -85 -181 -8 -126 hhcurveto
          endchar
        </CharString>
        <CharString name="logicalnot">
          365 580 151 hstem
          1100 151 vstem
          1070 80 rmoveto
          210 hlineto
          -29 142 0 358 181 vvcurveto
          -27 -127 -234 -3 -170 hhcurveto
          -181 -219 2 28 -142 hvcurveto
          -211 vlineto
          29 142 219 1 181 hhcurveto
          115 144 -1 -9 121 hvcurveto
          -1 -170 -4 -192 -25 -128 rrcurveto
          endchar
        </CharString>
        <CharString name="lozenge">
          -128 -169 1871 hstem
          415 106 vstem
          415 1702 rmoveto
          -78 -312 -674 -63 -189 vhcurveto
          63 -189 312 -663 -78 vvcurveto
          106 hlineto
          78 312 663 63 189 vhcurveto
          -63 189 -312 674 78 vvcurveto
          -317 -941 rmoveto
          64 112 121 371 79 199 79 -199 111 -371 64 -112 -64 -112 -111 -373 -79 -197 -79 197 -121 373 -64 112 rrcurveto
          endchar
        </CharString>
        <CharString name="lslash">
          -348 21 -21 346 768 416 -20 hstemhm
          -14 759 -505 223 hintmask 11101000
          463 720 rmoveto
          16 vlineto
          hintmask 11110000
          98 95 100 88 84 64 -130 131 rcurveline
          -37 -63 -53 -69 -61 -70 1 142 4 144 6 102 6 122 10 -61 callsubr
          hintmask 11101000
          48 -64 36 -43 12 -123 rrcurveto
          12 -122 4 -187 -146 -50 -1 -49 -48 vvcurveto
          hintmask 11110000
          -95 -87 -95 -79 -79 -55 130 -131 rcurveline
          36 52 47 58 52 59 rrcurveto
          hintmask 11101000
          -3 -103 -4 -96 -4 -88 -66 callgsubr
          -9 43 -7 -50 callgsubr
          -8 141 4 168 183 vvcurveto
          endchar
        </CharString>
        <CharString name="m">
          600 -23 callgsubr
          hstemhm
          179 207 352 209 332 210 hintmask 11011100
          430 1010 rmoveto
          -347 -30 callgsubr
          -40 -74 callsubr
          -114 -51 callgsubr
          287 -68 callsubr
          41 0 41 2 39 vhcurveto
          97 36 74 99 114 hhcurveto
          117 9 -138 -179 -113 -5 -86 callsubr
          21 vlineto
          81 41 67 71 97 hhcurveto
          117 10 -138 -179 -113 -4 -86 callsubr
          hintmask 10111100
          -19 callgsubr
          hintmask 11011100
          10 callsubr
          endchar
        </CharString>
        <CharString name="macron">
          -55 1200 32 callsubr
          1370 rmoveto
          -96 callgsubr
        </CharString>
        <CharString name="macron.cap">
          -55 1812 32 callsubr
          1982 rmoveto
          -96 callgsubr
        </CharString>
        <CharString name="minus">
          -43 callgsubr
        </CharString>
        <CharString name="mu">
          78 -419 -21 420 -54 callsubr
          hstemhm
          189 174 390 17 -7 205 hintmask 11011100
          535 150 rmoveto
          -135 -20 140 179 112 9 112 3 88 hvcurveto
          5 121 0 42 -1 66 rrcurveto
          -317 hlineto
          48 -66 37 -42 11 -121 20 -214 -4 -483 -16 -295 -6 -121 -19 callsubr
          335 hlineto
          -48 65 -37 42 -11 122 -8 83 -4 81 -2 83 rrcurveto
          -36 33 43 -20 55 hhcurveto
          127 81 95 107 50 hvcurveto
          hintmask 10111100
          5 -87 8 -39 11 -56 rrcurveto
          285 hlineto
          hintmask 11011010
          -48 65 -31 43 -17 -50 callgsubr
          -11 72 -1 83 86 vvcurveto
          112 9 112 3 88 vhcurveto
          -49 callgsubr
          -285 hlineto
          33 -66 20 -42 11 -121 rrcurveto
          8 -88 4 -112 -112 vvcurveto
          -39 0 -37 -1 -36 vhcurveto
          -101 -35 -74 -106 -118 hhcurveto
          endchar
        </CharString>
        <CharString name="multiply">
          61 156 878 hstem
          125 878 vstem
          855 1034 rmoveto
          -59 -92 -125 -132 -107 -109 -108 109 -124 132 -59 92 -148 -148 rcurveline
          91 -59 132 -125 109 -107 -111 -109 -123 -117 -98 -65 148 -148 rcurveline
          64 99 117 123 110 110 109 -111 116 -123 66 -98 148 148 rcurveline
          -100 64 -122 117 -111 110 109 107 132 125 92 59 -148 148 rcurveline
          endchar
        </CharString>
        <CharString name="n">
          61 -23 callgsubr
          hstemhm
          154 207 373 206 hintmask 11011000
          -100 callgsubr
          hintmask 10111000
          -50 callsubr
          hintmask 11011000
          -14 callgsubr
          endchar
        </CharString>
        <CharString name="nacute">
          111 -23 callgsubr
          23 callsubr
          154 207 129 421 -177 206 hintmask 11001010
          -100 callgsubr
          hintmask 10101010
          -50 callsubr
          hintmask 11001010
          -14 callgsubr
          hintmask 00010100
          506 520 rmoveto
          -97 callgsubr
          endchar
        </CharString>
        <CharString name="nbspace">
          -388 endchar
        </CharString>
        <CharString name="ncaron">
          61 -23 callgsubr
          23 callsubr
          154 207 -140 666 -153 206 hintmask 11001010
          -100 callgsubr
          hintmask 10101010
          -50 callsubr
          hintmask 11001010
          -14 callgsubr
          hintmask 00010100
          -90 520 -87 callsubr
        </CharString>
        <CharString name="ncommaaccent">
          61 -499 415 105 -37 callgsubr
          hstemhm
          154 207 129 237 7 206 hintmask 01101010
          -100 callgsubr
          hintmask 01011010
          -50 callsubr
          hintmask 01101010
          -14 callgsubr
          hintmask 10000100
          318 -1228 -98 callsubr
        </CharString>
        <CharString name="nine">
          16 1 -21 800 140 530 100 hstem
          102 237 364 277 vstem
          200 80 rmoveto
          -7 -38 42 -54 40 -8 rrcurveto
          271 434 419 602 366 -140 183 -304 -241 -193 -141 -237 -182 120 -210 265 97 85 38 56 50 hvcurveto
          -368 -230 -362 -289 -64 vhcurveto
          331 1370 rmoveto
          110 62 -106 -148 -206 -79 -70 -83 -135 -67 119 157 139 60 115 132 hvcurveto
          endchar
        </CharString>
        <CharString name="notequal">
          223 19 -21 372 150 250 150 hstemhm
          178 932 -726 526 hintmask 11101000
          460 220 rmoveto
          -26 -114 -29 -55 -21 -53 rrcurveto
          235 hlineto
          -18 63 -1 45 23 114 9 45 12 51 13 54 rrcurveto
          hintmask 11110000
          148 193 -4 -26 112 hvcurveto
          210 vlineto
          -25 -103 -171 -5 -143 hhcurveto
          21 82 22 86 22 81 127 -2 138 -6 87 -21 rrcurveto
          210 vlineto
          -78 -19 -119 -7 -116 -3 37 147 rcurveline
          hintmask 11101000
          27 114 28 55 21 53 rrcurveto
          -235 hlineto
          18 -63 2 -45 -24 -114 -9 -44 -12 -50 -13 -54 rrcurveto
          hintmask 11110000
          -158 -183 2 28 -118 hvcurveto
          -210 vlineto
          109 26 164 3 149 1 -21 -82 -23 -85 -21 -83 -130 2 -134 6 -93 22 rrcurveto
          -210 vlineto
          83 20 118 7 117 2 -14 -54 -12 -51 -10 -44 rrcurveto
          endchar
        </CharString>
        <CharString name="ntilde">
          111 -23 callgsubr
          170 -1 callgsubr
          154 207 -120 729 -236 206 hintmask 11000101
          -100 callgsubr
          hintmask 10100101
          -50 callsubr
          hintmask 11000101
          -14 callgsubr
          hintmask 00000000
          -74 218 -14 callsubr
          hintmask 00001010
          -69 callsubr
          hintmask 00010010
          -54 callgsubr
        </CharString>
        <CharString name="numbersign">
          479 21 -21 470 150 310 150 452 -20 hstem
          98 1342 vstem
          820 1080 rmoveto
          -161 hlineto
          11 93 11 81 2 callgsubr
          -56 -6 -79 -8 -91 -117 4 -110 7 -74 15 -30 -210 rcurveline
          77 15 117 8 123 3 -29 -302 rcurveline
          -124 4 -117 7 -77 15 -30 -210 rcurveline
          80 16 122 7 129 4 -11 -98 -12 -86 -9 3 callgsubr
          61 7 88 8 99 rrcurveto
          132 hlineto
          53 57 0 -1 59 hvcurveto
          -11 -99 -11 -87 -10 3 callgsubr
          60 7 86 8 96 102 -4 99 -7 81 -13 30 210 rcurveline
          -84 -14 -106 -7 -108 -4 9 99 10 103 11 98 108 -4 105 -8 85 -13 30 210 rcurveline
          -87 -14 -110 -8 -113 -4 10 91 11 79 2 callgsubr
          -57 -6 -80 -8 -93 rrcurveto
          -199 -460 rmoveto
          -148 hlineto
          9 102 11 107 10 100 rrcurveto
          1 51 51 0 46 hhcurveto
          49 53 0 -1 54 hvcurveto
          -9 -101 -11 -106 -10 -102 rrcurveto
          endchar
        </CharString>
        <CharString name="o">
          41 -9 callgsubr
          hstem
          131 252 338 252 vstem
          -56 callgsubr
          endchar
        </CharString>
        <CharString name="oacute">
          51 -9 callgsubr
          500 -20 27 callsubr
          69 421 -152 252 hintmask 11010100
          388 -103 callsubr
          hintmask 00101000
          -100 955 rmoveto
          -97 callgsubr
          endchar
        </CharString>
        <CharString name="obreve">
          41 -9 callgsubr
          130 -2 callsubr
          131 252 -179 134 383 252 -227 124 hintmask 11001010
          -56 callgsubr
          hintmask 00110101
          -427 750 rmoveto
          -101 callsubr
        </CharString>
        <CharString name="ocircumflex">
          51 -9 callgsubr
          385 115 27 callsubr
          -164 666 -164 252 hintmask 11010100
          388 -103 callsubr
          hintmask 00101000
          -182 585 -98 callgsubr
        </CharString>
        <CharString name="odieresis">
          51 -9 callgsubr
          165 320 27 callsubr
          -190 718 -190 252 hintmask 11010100
          388 -103 callsubr
          hintmask 00101000
          -639 620 -92 callgsubr
        </CharString>
        <CharString name="oe">
          557 -45 callsubr
          hstemhm
          132 252 338 250 316 -5 callgsubr
          hintmask 11111010
          553 1030 rmoveto
          -292 -129 -166 -289 -374 169 -221 252 119 101 60 97 73 hvcurveto
          -94 68 103 -63 142 hhcurveto
          396 -22 319 41 -64 hvcurveto
          -170 -78 -99 -90 -97 hhcurveto
          -141 -60 142 151 -16 hvcurveto
          hintmask 11111100
          -21 callsubr
          -136 -116 -51 -87 -84 vhcurveto
          86 -68 -107 52 -148 hhcurveto
          -169 -455 rmoveto
          234 49 121 120 120 49 -121 -234 -335 -49 -160 -120 -120 -49 160 335 vhcurveto
          588 -76 -4 callsubr
        </CharString>
        <CharString name="ogonek">
          166 30 callsubr
          hstem
          350 195 vstem
          771 -71 callgsubr
          100 119 92 48 80 hvcurveto
          -176 20 rlineto
          -14 -115 -172 -120 -129 -63 callgsubr
          endchar
        </CharString>
        <CharString name="ograve">
          51 -9 callgsubr
          500 -20 27 callsubr
          -121 421 38 252 hintmask 11010100
          388 -103 callsubr
          hintmask 00101000
          -711 955 -79 callsubr
        </CharString>
        <CharString name="ohungarumlaut">
          41 -9 callgsubr
          23 callsubr
          131 252 -115 808 -355 252 hintmask 11010100
          -56 callgsubr
          hintmask 00101000
          -284 955 -67 callgsubr
        </CharString>
        <CharString name="omacron">
          41 -9 callgsubr
          170 170 hstemhm
          131 252 -177 692 -177 252 hintmask 11010100
          -56 callgsubr
          hintmask 00101000
          -415 795 rmoveto
          -96 callgsubr
        </CharString>
        <CharString name="one">
          -334 21 -21 1300 17 213 -20 hstem
          255 253 vstem
          508 1310 rmoveto
          4 117 8 43 14 60 rrcurveto
          -186 hlineto
          -33 -82 -158 -140 -91 -38 17 -52 105 6 71 29 rrcurveto
          8 -150 2 -184 -181 vvcurveto
          -189 -4 -187 -10 -140 vhcurveto
          -8 -117 -16 -42 -26 -63 rrcurveto
          356 hlineto
          -28 63 -17 42 -8 117 rrcurveto
          -10 140 -4 187 189 vvcurveto
          205 5 209 9 158 vhcurveto
          endchar
        </CharString>
        <CharString name="onehalf">
          864 0 90 880 80 -80 100 460 -20 hstemhm
          282 189 679 81 319 190 hintmask 10111110
          1682 hmoveto
          -33 callsubr
          hintmask 11011110
          -8 callsubr
          -4 callgsubr
          -441 222 -75 callgsubr
        </CharString>
        <CharString name="onequarter">
          916 21 -21 344 93 609 -20 504 -20 hstem
          282 189 1060 159 vstem
          1705 -74 callgsubr
          -1031 -396 -75 callgsubr
        </CharString>
        <CharString name="onesuperior">
          -398 1530 -20 hstem
          282 189 vstem
          471 995 rmoveto
          177 3 239 29 119 vhcurveto
          -147 hlineto
          -50 -74 -114 -99 -73 -47 rrcurveto
          -12 18 24 -8 25 hhcurveto
          32 33 7 12 25 hvcurveto
          5 -44 1 -54 -88 vvcurveto
          -119 vlineto
          -159 -1 -202 -53 -163 vhcurveto
          286 hlineto
          -42 118 -1 225 172 vvcurveto
          endchar
        </CharString>
        <CharString name="ordfeminine">
          -105 680 100 322 96 242 90 hstemhm
          130 188 -135 37 337 38 -35 25 hintmask 11110010
          130 880 rmoveto
          -93 65 -107 138 139 79 57 52 43 vhcurveto
          26 -89 rlineto
          235 hlineto
          -43 34 -34 19 -13 65 -16 62 3 170 2 78 rrcurveto
          283 7 -63 119 -212 -162 -52 -60 -82 hhcurveto
          hintmask 11101010
          -6 -46 -18 -164 54 -60 rrcurveto
          112 30 92 128 111 hhcurveto
          78 29 -61 -174 hvcurveto
          -7 vlineto
          hintmask 11110100
          -220 -7 -210 -96 -215 vvcurveto
          427 112 rmoveto
          -121 -94 -91 -73 -45 -27 36 56 vhcurveto
          hintmask 11110010
          146 110 72 132 11 vhcurveto
          hintmask 11110100
          -1 -65 -2 -23 -21 vvcurveto
          endchar
        </CharString>
        <CharString name="ordmasculine">
          -150 680 90 670 90 hstem
          116 204 274 204 vstem
          320 1165 rmoveto
          181 40 94 97 97 40 -94 -181 -266 -40 -129 -97 -97 -40 129 266 vhcurveto
          478 hmoveto
          232 -104 133 -237 -237 -104 -133 -232 -305 124 -180 217 217 124 180 305 vhcurveto
          endchar
        </CharString>
        <CharString name="oslash">
          51 -20 100 -79 -21 950 100 31 -20 hstemhm
          78 1005 -947 252 338 252 hintmask 01110110
          978 575 rmoveto
          97 -15 83 -30 68 vhcurveto
          hintmask 01111000
          58 48 61 31 31 19 -151 140 rcurveline
          -16 -43 -20 -47 -31 -48 rrcurveto
          70 -69 -102 37 -137 hhcurveto
          hintmask 01110110
          -292 -129 -166 -289 -150 26 -125 49 -96 hvcurveto
          hintmask 01111000
          -53 -40 -52 -27 -28 -17 151 -140 rcurveline
          14 37 17 40 24 41 rrcurveto
          -77 71 93 -41 109 hhcurveto
          hintmask 10110110
          252 169 221 374 hvcurveto
          -590 hmoveto
          234 49 121 120 120 49 -121 -234 -335 -49 -160 -120 -120 -49 160 335 vhcurveto
          endchar
        </CharString>
        <CharString name="otilde">
          51 -9 callgsubr
          170 -1 callgsubr
          136 252 -180 729 -211 252 hintmask 11001010
          388 -103 callsubr
          hintmask 00000000
          -680 653 -14 callsubr
          hintmask 00010100
          -69 callsubr
          hintmask 00100100
          -54 callgsubr
        </CharString>
        <CharString name="p">
          14 callsubr
          hstemhm
          168 209 -21 17 321 250 hintmask 10101011
          3 callsubr
          hintmask 10110011
          -38 callgsubr
          hintmask 11001011
          7 callsubr
          hintmask 10101101
          -26 callgsubr
          endchar
        </CharString>
        <CharString name="paragraph">
          192 21 -21 1420 110 hstem
          514 170 172 170 vstem
          731 hmoveto
          -24 58 -8 42 -4 121 rrcurveto
          -10 298 -1 484 299 vvcurveto
          104 19 14 67 72 14 -14 -104 -299 -1 -484 -10 -298 vhcurveto
          -4 -121 -8 -42 -24 -58 rrcurveto
          273 hlineto
          -28 53 -20 52 -8 117 rrcurveto
          292 0 450 10 303 vhcurveto
          6 137 16 57 68 69 rrcurveto
          -599 hlineto
          -314 -120 -61 -179 -132 106 -148 239 65 11 -68 -72 -170 -1 -310 -10 -169 hvcurveto
          -7 -121 -14 -42 -45 -58 rrcurveto
          endchar
        </CharString>
        <CharString name="parenleft">
          -381 -210 1980 hstem
          110 240 vstem
          350 830 rmoveto
          398 105 342 135 150 vhcurveto
          -13 20 -17 14 -30 16 rrcurveto
          -194 -130 -226 -274 -536 vvcurveto
          -486 226 -414 194 -140 vhcurveto
          30 16 17 14 13 20 rrcurveto
          -135 168 -105 388 434 vvcurveto
          endchar
        </CharString>
        <CharString name="parenright">
          -381 -210 1980 hstem
          332 240 vstem
          332 830 rmoveto
          -434 -105 -388 -135 -168 vhcurveto
          13 -20 17 -14 30 -16 rrcurveto
          194 140 226 414 486 vvcurveto
          536 -226 274 -194 130 vhcurveto
          -30 -16 -17 -14 -13 -20 rrcurveto
          135 -150 105 -342 -398 vvcurveto
          endchar
        </CharString>
        <CharString name="partialdiff">
          98 -20 100 840 110 -65 65 293 159 hstem
          134 254 396 276 vstem
          667 1030 rmoveto
          -351 -182 -340 -284 -237 119 -189 229 391 187 481 431 431 -196 159 -201 -122 -123 -58 -92 -82 hvcurveto
          -5 -34 11 -57 22 -16 rrcurveto
          60 73 81 38 70 hhcurveto
          113 87 -78 -202 -9 0 -9 -1 -10 hvcurveto
          10 -30 -35 5 -55 hhcurveto
          -163 -950 rmoveto
          -85 -31 97 130 170 77 443 205 76 38 -60 -130 -269 -117 -381 -163 hvcurveto
          endchar
        </CharString>
        <CharString name="percent">
          992 -21 80 -38 -21 700 80 -6 callgsubr
          hintmask 0000000000000000
          hintmask 0110101111000000
          354 1179 -55 callgsubr
          -76 callsubr
          -85 -957 rmoveto
          -35 -112 -30 -57 -21 -53 rrcurveto
          245 hlineto
          -18 63 0 47 32 112 70 243 195 612 75 231 rrcurveto
          hintmask 1001011111000000
          4 callsubr
          hintmask 0110101111000000
          24 callgsubr
          hintmask 1001101111000000
          699 236 -55 callgsubr
          -76 callsubr
          endchar
        </CharString>
        <CharString name="period">
          -380 11 -21 hstem
          183 322 vstem
          183 161 rmoveto
          -80 callsubr
          endchar
        </CharString>
        <CharString name="periodcentered">
          -380 431 -21 hstem
          183 322 vstem
          183 581 rmoveto
          -80 callsubr
          endchar
        </CharString>
        <CharString name="perthousand">
          1821 -21 80 -38 -21 700 129 -80 31 -6 callgsubr
          75 234 254 234 hintmask 0000000000000000
          hintmask 0001010110000000
          354 1179 -55 callgsubr
          hintmask 0110010110000000
          -76 callsubr
          -85 -957 rmoveto
          -35 -112 -30 -57 -21 -53 rrcurveto
          245 hlineto
          -18 63 0 47 32 112 70 243 195 612 75 231 rrcurveto
          hintmask 0000001010000000
          4 callsubr
          hintmask 0110010110000000
          24 callgsubr
          hintmask 1000100001110000
          699 236 -55 callgsubr
          -76 callsubr
          309 hmoveto
          hintmask 1001000000011000
          190 37 101 90 90 37 -101 -190 -270 -37 -129 -90 vhcurveto
          hintmask 1000100001110000
          -90 -37 129 270 hvcurveto
          hintmask 1010000000011000
          -76 callsubr
          endchar
        </CharString>
        <CharString name="pi">
          296 21 -21 830 140 -140 190 hstem
          849 215 vstem
          1074 741 rmoveto
          10 103 71 -3 65 -5 52 -6 rlinecurve
          190 vlineto
          -18 -146 -243 -2 -193 hhcurveto
          -211 -241 1 19 -151 hvcurveto
          -190 vlineto
          61 7 77 5 83 3 rrcurveto
          6 -28 3 -33 -43 vvcurveto
          -3 -176 -34 -200 -36 -137 -31 -118 -28 -55 -37 -55 rrcurveto
          345 hlineto
          -19 45 -12 63 9 120 7 88 10 112 16 113 12 85 9 44 17 71 26 109 rcurveline
          122 hlineto
          43 45 0 -1 46 hvcurveto
          11 -28 8 -35 6 -45 rrcurveto
          9 -71 3 -44 -9 callsubr
          -112 -89 callsubr
          112 -7 callsubr
          85 3 44 7 71 vhcurveto
          endchar
        </CharString>
        <CharString name="plus">
          223 570 32 callgsubr
          750 -58 callgsubr
          endchar
        </CharString>
        <CharString name="plusminus">
          225 1 -21 30 150 550 32 callgsubr
          890 -58 callgsubr
          472 -730 rmoveto
          -73 callgsubr
          endchar
        </CharString>
        <CharString name="product">
          185 1387 143 hstem
          185 216 457 215 vstem
          858 1244 rmoveto
          -263 6 -751 -20 -198 vhcurveto
          -10 -102 -26 -46 -40 -54 rrcurveto
          365 hlineto
          -28 63 -10 42 -42 callgsubr
          3 661 17 303 19 callsubr
          -1008 18 callsubr
          17 -303 3 -661 -20 -292 -30 callsubr
          365 hlineto
          -40 54 -26 46 -10 102 rrcurveto
          -22 200 9 747 265 vvcurveto
          77 10 66 139 vhcurveto
          158 hlineto
          140 10 -66 -77 hvcurveto
          endchar
        </CharString>
        <CharString name="q">
          -41 -419 -21 420 100 840 90 hstem
          80 250 320 205 vstem
          855 352 rmoveto
          118 8 188 10 126 vhcurveto
          9 120 17 42 28 64 rrcurveto
          -258 hlineto
          -287 -302 -223 13 callsubr
          -121 201 94 83 24 35 62 hvcurveto
          5 -100 -1 -50 -6 -100 -8 -121 -14 -53 -18 -55 rrcurveto
          355 hlineto
          -48 65 -28 42 -20 122 rrcurveto
          -8 80 -8 235 248 vvcurveto
          -208 -18 rmoveto
          -167 -81 -87 -91 13 callgsubr
          292 120 215 187 39 vhcurveto
          22 -156 -12 -268 -156 vvcurveto
          endchar
        </CharString>
        <CharString name="question">
          -38 11 -21 1446 119 -25 -20 87 -20 hstemhm
          334 189 147 278 hintmask 00000000
          hintmask 11011100
          358 618 rmoveto
          -21 -65 -6 -63 3 -50 rrcurveto
          228 hlineto
          -27 42 -12 13 84 vvcurveto
          201 430 143 -5 303 vhcurveto
          232 -4 -147 97 -223 hhcurveto
          hintmask 10111100
          -111 -71 -25 -60 hhcurveto
          -70 -16 11 56 -40 hvcurveto
          -69 -26 -14 -219 -75 vvcurveto
          -129 14 -159 54 -26 vhcurveto
          hintmask 11011100
          198 21 139 275 200 hhcurveto
          78 41 -64 -110 -280 -236 -135 -76 -229 hvcurveto
          -75 -457 rmoveto
          -80 callsubr
          endchar
        </CharString>
        <CharString name="questiondown">
          -38 -499 20 22 119 -94 20 1499 21 hstemhm
          70 278 147 189 hintmask 00000000
          hintmask 11011100
          660 480 rmoveto
          21 65 6 63 -3 50 rrcurveto
          -228 hlineto
          27 -42 12 -13 -84 vvcurveto
          -201 -430 -143 5 -303 vhcurveto
          -232 4 147 -97 223 hhcurveto
          hintmask 10111100
          111 71 25 60 hhcurveto
          70 16 -11 -56 40 hvcurveto
          69 26 14 219 75 vvcurveto
          129 -14 159 -54 26 vhcurveto
          hintmask 11011100
          -198 -21 -139 -275 -200 hhcurveto
          -78 -41 64 110 280 236 135 76 229 hvcurveto
          75 457 rmoveto
          94 -72 77 -89 -89 -72 -77 -94 -94 72 -77 89 89 72 77 94 vhcurveto
          endchar
        </CharString>
        <CharString name="quotedbl">
          -94 1530 -20 hstemhm
          221 136 254 136 hintmask 10100000
          747 940 rmoveto
          -51 callsubr
          hintmask 11000000
          -254 hmoveto
          -51 callsubr
          endchar
        </CharString>
        <CharString name="quotedblbase">
          44 -312 10 callgsubr
          92 rmoveto
          -71 callsubr
          hintmask 10100000
          400 hmoveto
          -71 callsubr
          endchar
        </CharString>
        <CharString name="quotedblleft">
          44 992 586 hstemhm
          204 202 198 202 hintmask 11000000
          208 1174 rmoveto
          -9 -80 11 -51 14 -35 callgsubr
          -14 7 -76 -45 -129 -159 -17 -200 rrcurveto
          hintmask 10100000
          400 hmoveto
          -9 -80 11 -51 14 -35 callgsubr
          -14 7 -76 -45 -129 -159 -17 -200 rrcurveto
          endchar
        </CharString>
        <CharString name="quotedblright">
          44 998 10 callgsubr
          1402 rmoveto
          -71 callsubr
          hintmask 10100000
          400 hmoveto
          -71 callsubr
          endchar
        </CharString>
        <CharString name="quoteleft">
          -358 992 586 hstem
          204 201 vstem
          207 1174 rmoveto
          -8 -80 11 -51 13 -35 callgsubr
          -13 7 -77 -45 -129 -159 -17 -200 rrcurveto
          endchar
        </CharString>
        <CharString name="quoteright">
          -358 947 34 callgsubr
          1351 -36 callsubr
        </CharString>
        <CharString name="quotesinglbase">
          -358 -313 34 callgsubr
          91 -36 callsubr
        </CharString>
        <CharString name="quotesingle">
          -482 1530 -20 hstem
          221 136 vstem
          357 940 rmoveto
          -51 callsubr
          endchar
        </CharString>
        <CharString name="r">
          -241 -29 callgsubr
          80 -20 hstem
          168 215 vstem
          427 1010 rmoveto
          -16 callsubr
          58 -66 23 -40 -74 callsubr
          -114 -89 callsubr
          114 113 vvcurveto
          32 0 32 1 31 vhcurveto
          33 90 65 78 58 9 70 10 61 -60 34 -185 rrcurveto
          60 76 33 144 124 vvcurveto
          59 -16 46 -17 41 vhcurveto
          -36 -51 -56 -9 -54 -19 -84 -30 -84 -58 -53 -66 9 81 5 37 15 55 rrcurveto
          endchar
        </CharString>
        <CharString name="racute">
          -241 -29 callgsubr
          80 -20 480 -20 hstemhm
          168 215 -56 421 hintmask 11101000
          427 1010 rmoveto
          -16 callsubr
          58 -66 23 -40 -74 callsubr
          -114 -89 callsubr
          114 113 vvcurveto
          32 0 32 1 31 vhcurveto
          33 90 65 78 58 9 70 10 61 -60 34 -185 rrcurveto
          60 76 33 144 124 vvcurveto
          59 -16 46 -17 41 vhcurveto
          -36 -51 -56 -9 -54 -19 -84 -30 -84 -58 -53 -66 9 81 5 37 15 55 rrcurveto
          hintmask 00010100
          321 520 rmoveto
          -97 callgsubr
          endchar
        </CharString>
        <CharString name="radical">
          -34 -29 callgsubr
          hstemhm
          -21 1163 -813 301 hintmask 11100000
          778 1870 rmoveto
          31 -48 25 -35 -80 vvcurveto
          -105 -220 -916 -116 -440 vhcurveto
          -70 229 -98 330 76 -33 callgsubr
          277 1139 11 callgsubr
        </CharString>
        <CharString name="rcaron">
          -222 -29 callgsubr
          80 -20 480 -20 hstemhm
          105 666 -603 215 hintmask 11100100
          427 1010 rmoveto
          -16 callsubr
          58 -66 23 -40 -74 callsubr
          -114 -89 callsubr
          114 113 vvcurveto
          32 0 32 1 31 vhcurveto
          33 90 65 78 58 9 70 10 61 -60 34 -185 rrcurveto
          60 76 33 144 124 vvcurveto
          59 -16 46 -17 41 vhcurveto
          -36 -51 -56 -9 -54 -19 -84 -30 -84 -58 -53 -66 9 81 5 37 15 55 rrcurveto
          hintmask 00011000
          -228 520 -87 callsubr
        </CharString>
        <CharString name="rcommaaccent">
          -222 1 callgsubr
          1010 -20 80 -20 hstemhm
          168 215 -164 189 hintmask 01111000
          427 1010 rmoveto
          -16 callsubr
          58 -66 23 -40 -74 callsubr
          -114 -89 callsubr
          114 113 vvcurveto
          32 0 32 1 31 vhcurveto
          33 90 65 78 58 9 70 10 61 -60 34 -185 rrcurveto
          60 76 33 144 124 vvcurveto
          59 -16 46 -17 41 vhcurveto
          -36 -51 -56 -9 -54 -19 -84 -30 -84 -58 -53 -66 9 81 5 37 15 55 rrcurveto
          hintmask 10000100
          -22 -1228 -32 callsubr
        </CharString>
        <CharString name="registered">
          148 368 110 462 60 170 70 180 110 hstemhm
          88 129 176 137 170 53 -39 154 127 128 hintmask 1111111010000000
          88 949 rmoveto
          -353 226 -228 292 292 225 228 353 353 -225 228 -292 -292 -226 -228 -353 vhcurveto
          129 hmoveto
          279 169 192 220 220 169 -192 -279 -279 -169 -192 -220 -220 -169 192 279 vhcurveto
          113 291 rmoveto
          41 -35 5 -30 6 -76 6 -93 11 -149 -9 -87 -7 -67 -6 -28 -15 -35 rrcurveto
          197 hlineto
          -19 50 -10 110 55 vvcurveto
          41 6 44 35 57 6 -29 -60 6 vhcurveto
          12 -116 15 -60 15 -35 rrcurveto
          192 hlineto
          -76 50 -42 134 -3 135 rrcurveto
          hintmask 1111110110000000
          66 32 49 53 66 vvcurveto
          98 -82 32 -169 vhcurveto
          97 -140 rmoveto
          -38 -31 -62 -85 -62 -6 38 62 vhcurveto
          70 1 9 0 58 hhcurveto
          99 17 -33 -37 hvcurveto
          endchar
        </CharString>
        <CharString name="ring">
          -155 1130 93 306 93 hstem
          183 164 214 164 vstem
          347 1375 rmoveto
          -65 callgsubr
        </CharString>
        <CharString name="ring.cap">
          -154 1596 83 258 83 hstem
          192 157 210 157 vstem
          349 1807 -67 callsubr
        </CharString>
        <CharString name="s">
          -161 -20 17 callgsubr
          284 205 hintmask 00000000
          hintmask 10111100
          -100 callsubr
          hintmask 11011100
          -10 callsubr
          hintmask 10111100
          -58 -56 12 -62 hhcurveto
          endchar
        </CharString>
        <CharString name="sacute">
          -161 -20 -36 callgsubr
          481 -20 hstemhm
          94 205 62 421 -199 205 hintmask 00000000
          hintmask 10110101
          -100 callsubr
          hintmask 11010101
          -10 callsubr
          hintmask 10110101
          -58 -56 12 -62 hhcurveto
          hintmask 00001010
          351 500 rmoveto
          -97 callgsubr
          endchar
        </CharString>
        <CharString name="scaron">
          -161 -20 -36 callgsubr
          481 -20 hstemhm
          94 205 -181 666 -201 205 hintmask 00000000
          hintmask 10110101
          -100 callsubr
          hintmask 11010101
          -10 callsubr
          hintmask 10110101
          -58 -56 12 -62 hhcurveto
          hintmask 00001010
          -219 500 -87 callsubr
        </CharString>
        <CharString name="scedilla">
          -161 -500 70 410 17 callgsubr
          162 165 -43 205 hintmask 11011110
          336 9 callsubr
          34 1 33 5 30 vhcurveto
          hintmask 11101101
          221 38 67 151 116 279 -489 37 198 vvcurveto
          65 66 46 77 141 48 -82 -197 41 vhcurveto
          66 65 27 119 99 vvcurveto
          59 -9 45 -18 41 vhcurveto
          -10 callsubr
          hintmask 11011101
          -58 -56 12 -62 hhcurveto
          -182 -155 -100 -163 hvcurveto
          -335 489 -10 -212 vvcurveto
          -69 -52 -55 -91 vhcurveto
          -4 hlineto
          -5 2 rlineto
          -2 vlineto
          -139 7 -83 161 25 83 -69 -14 -99 -97 -10 -104 rrcurveto
          -69 31 119 -73 180 7 7 1 7 hhcurveto
          -13 -43 -17 -47 -18 -35 rrcurveto
          hintmask 11011110
          45 -16 57 -28 -72 vvcurveto
          -92 -88 -68 -97 -10 vhcurveto
          11 -10 15 -38 34 -22 rrcurveto
          endchar
        </CharString>
        <CharString name="scircumflex">
          -161 -20 -36 callgsubr
          366 115 hstemhm
          94 205 -191 666 -191 205 hintmask 00000000
          hintmask 10110101
          -100 callsubr
          hintmask 11010101
          -10 callsubr
          hintmask 10110101
          -58 -56 12 -62 hhcurveto
          hintmask 00001010
          249 130 -98 callgsubr
        </CharString>
        <CharString name="scommaaccent">
          -161 -16 callgsubr
          64 17 callgsubr
          80 237 -33 205 hintmask 00000000
          hintmask 01011101
          -100 callsubr
          hintmask 01101101
          -10 callsubr
          hintmask 01011101
          -58 -56 12 -62 hhcurveto
          hintmask 10000010
          181 -1248 -98 callsubr
        </CharString>
        <CharString name="section">
          33 -240 100 1157 -20 523 80 -80 100 hstemhm
          118 217 276 209 -88 220 hintmask 11101010
          952 643 rmoveto
          282 -458 246 -33 214 vhcurveto
          65 -9 22 70 77 hhcurveto
          132 96 -219 -158 12 hvcurveto
          54 20 14 74 92 vvcurveto
          65 -34 242 -49 31 vhcurveto
          -56 -34 -14 -11 -58 hhcurveto
          hintmask 11011100
          -48 -31 20 -93 hhcurveto
          -176 -84 -109 -123 -123 67 -101 83 -91 hvcurveto
          -168 -40 -102 -129 -150 -319 493 -206 -255 vvcurveto
          -62 -38 -52 -69 -94 -87 123 230 75 vhcurveto
          -98 -32 -70 -64 -58 -141 rrcurveto
          -139 47 144 -77 141 hhcurveto
          196 120 129 176 87 -52 82 -71 81 hvcurveto
          hintmask 11101010
          147 56 108 118 154 vvcurveto
          -617 157 rmoveto
          90 52 80 82 20 vhcurveto
          128 -125 135 -117 -154 vvcurveto
          -98 -51 -63 -67 -30 vhcurveto
          -132 133 -147 130 134 vvcurveto
          endchar
        </CharString>
        <CharString name="semicolon">
          -352 -350 690 371 -21 hstemhm
          183 322 -240 237 hintmask 10010000
          -39 callgsubr
          hintmask 01100000
          -315 735 rmoveto
          -80 callsubr
          endchar
        </CharString>
        <CharString name="seven">
          -83 21 -21 1420 110 hstem
          86 875 vstem
          645 1297 rmoveto
          -13 -65 -181 -519 -118 -491 -30 -123 -24 -76 -22 -23 rrcurveto
          361 hlineto
          -9 35 -16 54 13 133 21 210 125 637 101 241 47 112 27 65 34 43 rrcurveto
          -791 hlineto
          -64 -20 -102 -111 -88 21 -114 33 -65 hvcurveto
          171 30 110 199 164 hhcurveto
          52 hlineto
          96 70 -40 -83 -17 hvcurveto
          endchar
        </CharString>
        <CharString name="six">
          23 -20 100 860 120 390 102 hstem
          101 258 394 256 vstem
          931 1450 rmoveto
          -3 42 -32 49 -40 11 rrcurveto
          -287 10 -468 -368 -613 vvcurveto
          -401 185 -200 249 289 185 274 306 332 -164 168 -261 -34 -39 -5 -10 -39 vhcurveto
          80 196 170 200 209 9 rrcurveto
          -370 -1370 rmoveto
          -128 -74 147 339 257 64 117 138 131 61 -187 -177 -249 -50 -247 -142 hvcurveto
          endchar
        </CharString>
        <CharString name="slash">
          -324 22 callsubr
          47 605 vstem
          123 102 rmoveto
          -26 -114 -29 -55 -21 -53 rrcurveto
          235 hlineto
          -18 63 -1 45 23 114 49 240 187 918 54 228 27 114 28 55 21 53 rrcurveto
          -235 hlineto
          18 -63 2 -45 -24 -114 -48 -229 -187 -918 -55 -239 rrcurveto
          endchar
        </CharString>
        <CharString name="space">
          -388 endchar
        </CharString>
        <CharString name="sterling">
          -33 0 100 700 100 540 90 -90 110 50 -20 hstemhm
          195 226 -142 213 hintmask 11011010
          269 912 rmoveto
          -3 0 -3 1 -3 vhcurveto
          -69 4 -65 7 -48 16 rrcurveto
          -160 vlineto
          50 16 68 8 72 3 6 -139 -18 -71 -14 -87 -23 -140 -109 -303 -90 -57 rrcurveto
          854 hlineto
          62 35 38 115 100 vvcurveto
          44 -7 44 -16 32 vhcurveto
          -157 -82 -26 -113 -230 hhcurveto
          -141 -43 27 82 69 54 273 -1 249 hvcurveto
          101 -1 114 -6 73 -23 rrcurveto
          160 vlineto
          -74 -24 -115 -5 -103 -1 -2 29 -4 29 -4 27 rrcurveto
          hintmask 11101100
          -20 120 -37 127 73 vvcurveto
          76 40 59 100 170 124 -236 -174 16 vhcurveto
          46 25 12 53 151 vvcurveto
          65 -30 245 -43 31 vhcurveto
          -56 -40 -16 -14 -70 hhcurveto
          hintmask 11011100
          -60 -1 20 -151 hhcurveto
          -194 -129 -99 -148 -157 59 -95 15 -139 hvcurveto
          endchar
        </CharString>
        <CharString name="summation">
          -29 0 100 1330 100 hstem
          12 974 vstem
          498 1243 rmoveto
          -29 45 -14 36 28 vvcurveto
          55 54 23 96 237 42 -113 -157 75 vhcurveto
          16 32 7 43 47 vvcurveto
          106 -38 121 -62 21 vhcurveto
          -812 hlineto
          67 -59 76 -142 63 -104 103 -169 73 -112 62 -108 -94 -184 -123 -236 -62 -97 -54 -85 -79 -187 -90 -47 rrcurveto
          870 hlineto
          72 32 126 108 58 -9 53 -18 25 hvcurveto
          -157 -65 -52 -113 -237 hhcurveto
          -123 -80 11 59 15 6 19 11 22 hvcurveto
          82 160 188 322 87 128 -87 131 -124 171 -67 105 rrcurveto
          endchar
        </CharString>
        <CharString name="t">
          -324 31 callsubr
          hstemhm
          161 209 hintmask 00000000
          hintmask 11010000
          29 callgsubr
          hintmask 10110000
          -12 callsubr
          hintmask 11010000
          -85 callsubr
          endchar
        </CharString>
        <CharString name="tbar">
          -324 -20 90 450 150 200 140 -110 110 hstemhm
          102 612 -553 209 hintmask 11010100
          29 callgsubr
          92 18 59 70 vhcurveto
          hintmask 11101000
          53 24 -30 62 hhcurveto
          101 46 71 69 hvcurveto
          -268 hlineto
          -72 -21 30 125 114 13 103 8 28 hvcurveto
          -137 2 -47 -356 -151 -117 68 -31 20 -7 3 -222 -21 3 -20 4 -17 4 rrcurveto
          -170 vlineto
          hintmask 11100100
          17 4 20 4 22 2 rrcurveto
          -466 9 124 -84 319 hhcurveto
          22 11 40 58 -1 21 rrcurveto
          -238 -52 159 311 -11 hvcurveto
          41 hlineto
          hintmask 11101000
          101 124 -2 -18 75 hvcurveto
          170 vlineto
          -18 -75 -124 -2 -101 hhcurveto
          hintmask 11100100
          -44 hlineto
          endchar
        </CharString>
        <CharString name="tcaron">
          9 31 callsubr
          523 -20 hstemhm
          161 209 490 208 hintmask 00000000
          hintmask 11001000
          29 callgsubr
          hintmask 10101000
          -12 callsubr
          hintmask 11001000
          -85 callsubr
          hintmask 00010100
          688 602 -82 callsubr
        </CharString>
        <CharString name="tcommaaccent">
          -324 -16 callgsubr
          64 -3 callsubr
          hstemhm
          161 209 -72 237 hintmask 00000000
          hintmask 01101000
          29 callgsubr
          hintmask 01011000
          -12 callsubr
          hintmask 01101000
          -85 callsubr
          hintmask 10000100
          161 -967 -98 callsubr
        </CharString>
        <CharString name="thorn">
          -17 -419 -21 440 12 callgsubr
          hstemhm
          185 200 -5 13 304 250 hintmask 10111011
          947 680 rmoveto
          228 -134 122 -201 -88 -78 -21 -30 -60 vhcurveto
          2 110 4 109 7 102 8 122 8 42 18 66 rrcurveto
          -16 callsubr
          58 -66 21 -71 7 -93 rrcurveto
          hintmask 10111101
          14 -175 7 -321 -354 vvcurveto
          -217 1 -228 -11 -216 vhcurveto
          -6 -121 -19 callsubr
          365 hlineto
          -48 65 -36 42 -12 122 rrcurveto
          hintmask 11011011
          -7 70 -6 70 -3 71 rrcurveto
          282 7 271 208 465 vvcurveto
          hintmask 10111101
          -562 -328 rmoveto
          123 2 134 107 vvcurveto
          139 79 75 86 126 19 -143 -147 -300 -119 -221 -184 -42 vhcurveto
          -8 62 -1 102 111 vvcurveto
          endchar
        </CharString>
        <CharString name="three">
          -37 -20 100 870 90 -58 70 378 120 -20 -20 90 -20 hstemhm
          640 243 -222 277 hintmask 10110110
          883 1332 rmoveto
          98 -74 120 -215 vhcurveto
          hintmask 10101101
          -111 -93 -20 -58 hhcurveto
          -70 -16 14 56 -40 hvcurveto
          -49 -22 -34 -182 -47 vvcurveto
          -129 14 -94 54 -26 vhcurveto
          hintmask 10110110
          239 57 91 91 182 hhcurveto
          88 31 -30 -68 hvcurveto
          hintmask 11010101
          -166 -190 -117 -128 -9 vhcurveto
          -45 16 -24 19 -21 vhcurveto
          264 40 -130 -134 -310 -292 -296 -314 hvcurveto
          3 -33 22 -49 50 -18 rrcurveto
          376 432 355 402 147 -103 113 -176 39 hvcurveto
          hintmask 10110110
          111 57 113 100 139 vvcurveto
          endchar
        </CharString>
        <CharString name="threequarters">
          1080 21 -21 344 93 23 28 558 -20 24 90 -53 56 307 70 -70 102 -22 -20 90 16 callsubr
          951 159 hintmask 1111010101101100
          1875 -74 callgsubr
          -1125 772 rmoveto
          89 -44 73 -156 vhcurveto
          hintmask 1111011001101100
          -28 callgsubr
          hintmask 1111100101110100
          -41 callgsubr
          hintmask 1111010011101100
          84 51 88 90 116 vvcurveto
          94 -1168 -83 callgsubr
          endchar
        </CharString>
        <CharString name="threesuperior">
          -192 460 80 510 90 -53 56 307 70 -70 102 48 16 callsubr
          hintmask 1010111010000000
          750 1390 rmoveto
          89 -44 73 -156 vhcurveto
          hintmask 1011011010000000
          -28 callgsubr
          hintmask 1100111100000000
          -41 callgsubr
          hintmask 1010111010000000
          84 51 88 90 116 vvcurveto
          endchar
        </CharString>
        <CharString name="tilde">
          87 1200 -1 callgsubr
          206 729 hintmask 00000000
          hintmask 01100000
          296 1228 -14 callsubr
          hintmask 10100000
          -69 callsubr
          hintmask 01100000
          -54 callgsubr
        </CharString>
        <CharString name="tilde.cap">
          17 1705 0 callgsubr
          166 749 hintmask 00000000
          hintmask 01100000
          236 1735 -15 callsubr
          hintmask 10100000
          -68 callgsubr
          hintmask 01100000
          -55 callsubr
        </CharString>
        <CharString name="trademark">
          638 1014 -20 279 87 hstem
          361 145 348 96 471 127 vstem
          1413 918 rmoveto
          -3 -49 -4 -19 -15 -19 rrcurveto
          189 hlineto
          -17 20 -6 22 -4 45 -12 82 10 127 8 85 3 41 10 90 41 17 rrcurveto
          -234 hlineto
          -55 -92 -57 -108 -56 -102 -69 108 -75 120 -33 74 rrcurveto
          -245 hlineto
          40 -17 11 -90 3 -41 8 -85 10 -127 -12 -82 -5 -45 -6 -22 -22 -20 rrcurveto
          167 hlineto
          -19 19 -9 19 -2 49 -6 93 2 95 8 91 72 -115 78 -155 80 -126 73 120 82 147 75 122 6 -89 -4 -89 -6 -94 rrcurveto
          -1244 442 rmoveto
          -29 -20 -105 -40 -19 5 -29 10 -12 hvcurveto
          45 21 78 73 75 hhcurveto
          46 6 -27 -66 hvcurveto
          -251 vlineto
          -50 -25 -20 -52 -28 vhcurveto
          306 hlineto
          -57 22 -27 25 51 vvcurveto
          251 vlineto
          66 11 27 43 79 68 -73 -45 25 vhcurveto
          11 13 4 21 21 vvcurveto
          39 -18 111 -31 vhcurveto
          endchar
        </CharString>
        <CharString name="two">
          -38 0 100 1330 120 -20 -20 90 -20 hstemhm
          657 235 hintmask 00000000
          hintmask 11011000
          819 hmoveto
          124 16 94 104 56 -22 67 -21 29 hvcurveto
          -151 -47 -164 -99 -171 hhcurveto
          -140 -22 31 48 hvcurveto
          135 520 578 386 vvcurveto
          166 -92 106 -229 vhcurveto
          hintmask 10111000
          -111 -71 -20 -60 hhcurveto
          -70 -16 14 56 -40 hvcurveto
          -80 -36 -13 -270 -75 vvcurveto
          -129 24 -104 54 -26 vhcurveto
          hintmask 11011000
          198 20 136 272 194 hhcurveto
          88 31 -38 -80 -341 -556 -801 -30 -170 hvcurveto
          endchar
        </CharString>
        <CharString name="twosuperior">
          -157 480 90 880 80 -80 100 50 -20 hstemhm
          140 81 319 190 hintmask 00000000
          hintmask 10110100
          672 480 rmoveto
          -33 callsubr
          hintmask 11011100
          -8 callsubr
          hintmask 10111100
          -4 callgsubr
          endchar
        </CharString>
        <CharString name="u">
          51 -20 -54 callsubr
          29 callsubr
          363 205 hintmask 01111000
          -85 callgsubr
          hintmask 10111000
          -100 -35 -74 -105 -117 hhcurveto
          -117 -18 132 167 120 9 118 3 94 hvcurveto
          -49 callgsubr
          -289 hlineto
          33 -66 19 -42 12 -121 rrcurveto
          9 -88 -2 -257 -112 vvcurveto
          -207 89 -137 170 137 102 90 102 60 vhcurveto
          hintmask 01111000
          6 -83 10 -46 14 -43 rrcurveto
          endchar
        </CharString>
        <CharString name="uacute">
          37 -20 -54 callsubr
          540 -20 hstemhm
          142 202 101 421 -159 205 hintmask 01101010
          730 -106 callgsubr
          136 1530 rmoveto
          -97 callgsubr
          endchar
        </CharString>
        <CharString name="ubreve">
          51 -20 -54 callsubr
          170 -2 callsubr
          156 202 -174 134 403 205 -200 124 hintmask 0110010100000000
          -85 callgsubr
          hintmask 1010010100000000
          -100 -35 -74 -105 -117 hhcurveto
          -117 -18 132 167 120 9 118 3 94 hvcurveto
          -49 callgsubr
          -289 hlineto
          33 -66 19 -42 12 -121 rrcurveto
          9 -88 -2 -257 -112 vvcurveto
          -207 89 -137 170 137 102 90 102 60 vhcurveto
          hintmask 0110010100000000
          6 -83 10 -46 14 -43 rrcurveto
          hintmask 0001101010000000
          -218 1325 rmoveto
          -101 callsubr
        </CharString>
        <CharString name="ucircumflex">
          37 -20 -54 callsubr
          425 115 hstemhm
          142 202 -151 666 -152 205 hintmask 01101010
          730 -106 callgsubr
          35 1160 -98 callgsubr
        </CharString>
        <CharString name="udieresis">
          37 -20 -54 callsubr
          205 320 hstemhm
          142 202 -178 718 -177 205 hintmask 01101010
          730 -106 callgsubr
          -423 1195 -92 callgsubr
        </CharString>
        <CharString name="ugrave">
          37 -20 -54 callsubr
          540 -20 hstemhm
          142 202 -169 421 111 205 hintmask 01101010
          730 -106 callgsubr
          -555 1530 -79 callsubr
        </CharString>
        <CharString name="uhungarumlaut">
          51 -20 -54 callsubr
          540 -20 29 callsubr
          -113 808 -332 205 hintmask 01101010
          744 -106 callgsubr
          -78 1530 -67 callgsubr
        </CharString>
        <CharString name="umacron">
          51 -20 -54 callsubr
          210 170 29 callsubr
          -185 692 -144 205 hintmask 01101010
          744 -106 callgsubr
          -219 1370 rmoveto
          -96 callgsubr
        </CharString>
        <CharString name="underscore">
          146 -220 140 hstem
          -22 1252 vstem
          -22 -80 rmoveto
          -140 1252 140 vlineto
          endchar
        </CharString>
        <CharString name="uni0001">
          endchar
        </CharString>
        <CharString name="uni0002">
          endchar
        </CharString>
        <CharString name="uni0003">
          endchar
        </CharString>
        <CharString name="uni0004">
          endchar
        </CharString>
        <CharString name="uni0005">
          endchar
        </CharString>
        <CharString name="uni0006">
          endchar
        </CharString>
        <CharString name="uni0007">
          endchar
        </CharString>
        <CharString name="uni0008">
          endchar
        </CharString>
        <CharString name="uni0009">
          endchar
        </CharString>
        <CharString name="uni0010">
          endchar
        </CharString>
        <CharString name="uni0011">
          endchar
        </CharString>
        <CharString name="uni0012">
          endchar
        </CharString>
        <CharString name="uni0013">
          endchar
        </CharString>
        <CharString name="uni0014">
          endchar
        </CharString>
        <CharString name="uni0015">
          endchar
        </CharString>
        <CharString name="uni0016">
          endchar
        </CharString>
        <CharString name="uni0017">
          endchar
        </CharString>
        <CharString name="uni0018">
          endchar
        </CharString>
        <CharString name="uni0019">
          endchar
        </CharString>
        <CharString name="uni00AD">
          166 endchar
        </CharString>
        <CharString name="uni1E02">
          15 callsubr
          14 callgsubr
          168 233 -1 283 105 264 -224 264 hintmask 1011010100000000
          -32 callgsubr
          hintmask 1011010010000000
          7 callgsubr
          hintmask 1011010100000000
          168 74 78 100 102 vvcurveto
          hintmask 1011010010000000
          -13 callgsubr
          hintmask 1101010010000000
          15 callgsubr
          hintmask 1011010100000000
          -40 560 rmoveto
          hintmask 1101010100000000
          -15 callgsubr
          hintmask 0000101000000000
          -246 399 rmoveto
          -91 callgsubr
        </CharString>
        <CharString name="uni1E03">
          -17 0 12 callgsubr
          47 -20 hstemhm
          177 208 160 314 -164 250 hintmask 01110101
          -26 callsubr
          hintmask 10110101
          -58 callsubr
          hintmask 00001010
          317 485 -94 callgsubr
          endchar
        </CharString>
        <CharString name="uni1E0A">
          131 0 callsubr
          14 callgsubr
          172 223 5 283 149 264 hintmask 11010100
          832 986 rmoveto
          -513 -133 -323 -240 -51 -10 39 76 -2 vhcurveto
          290 -1 331 375 vvcurveto
          161 1 27 18 135 hhcurveto
          237 37 -230 -224 hvcurveto
          -715 -986 rmoveto
          665 -25 314 386 670 vvcurveto
          361 -211 138 -273 vhcurveto
          -549 hlineto
          -70 callsubr
          hintmask 00101000
          425 1665 rmoveto
          -91 callgsubr
        </CharString>
        <CharString name="uni1E0B">
          -47 8 callgsubr
          47 -20 hstemhm
          75 250 -190 314 198 206 hintmask 01110101
          -70 callgsubr
          hintmask 10110101
          -31 callgsubr
          hintmask 01110101
          -45 249 rmoveto
          hintmask 10110101
          -64 callsubr
          hintmask 00001010
          -350 873 -94 callgsubr
          endchar
        </CharString>
        <CharString name="uni1E1E">
          -106 21 -21 980 110 340 100 14 callgsubr
          177 232 -39 283 263 23 hintmask 11101010
          -64 callgsubr
          hintmask 00010100
          103 818 rmoveto
          -91 callgsubr
        </CharString>
        <CharString name="uni1E1F">
          -325 21 -21 -24 callgsubr
          40 -20 95 320 -20 callgsubr
          -146 283 hintmask 1101100100000000
          -62 callgsubr
          hintmask 1101101000000000
          -22 callsubr
          hintmask 1101100100000000
          -75 callsubr
          hintmask 1110101000000000
          -84 callsubr
          hintmask 1101101000000000
          -82 callgsubr
          hintmask 1101100100000000
          -10 callgsubr
          hintmask 0000010010000000
          209 974 rmoveto
          -91 callgsubr
        </CharString>
        <CharString name="uni1E40">
          25 callgsubr
          155 320 hstem
          196 151 263 283 213 -78 callgsubr
          -341 1444 rmoveto
          -91 callgsubr
        </CharString>
        <CharString name="uni1E41">
          600 -23 callgsubr
          527 -20 hstemhm
          179 207 288 314 -250 209 332 210 hintmask 11001011
          430 1010 rmoveto
          -347 -30 callgsubr
          -40 -74 callsubr
          -114 -51 callgsubr
          287 -68 callsubr
          41 0 41 2 39 vhcurveto
          97 36 74 99 114 hhcurveto
          117 9 -138 -179 -113 -5 -86 callsubr
          21 vlineto
          81 41 67 71 97 hhcurveto
          117 10 -138 -179 -113 -4 -86 callsubr
          hintmask 10101011
          -19 callgsubr
          hintmask 11001011
          10 callsubr
          hintmask 00010100
          -79 599 -94 callgsubr
          endchar
        </CharString>
        <CharString name="uni1E56">
          34 callsubr
          14 callgsubr
          175 233 12 283 92 264 hintmask 11101010
          -63 callsubr
          hintmask 00010100
          -233 399 rmoveto
          -91 callgsubr
        </CharString>
        <CharString name="uni1E57">
          14 callsubr
          527 -20 hstemhm
          168 209 -21 17 -3 314 10 250 hintmask 1010100101000000
          3 callsubr
          hintmask 1011000101000000
          -38 callgsubr
          hintmask 1100100101000000
          7 callsubr
          hintmask 1010101001000000
          -26 callgsubr
          hintmask 0000010010000000
          150 524 -94 callgsubr
          endchar
        </CharString>
        <CharString name="uni1E60">
          -32 -20 -48 callsubr
          85 320 -38 callsubr
          14 283 34 -99 callsubr
          29 115 rmoveto
          -91 callgsubr
        </CharString>
        <CharString name="uni1E61">
          -161 -20 -36 callgsubr
          508 -20 hstemhm
          94 205 -5 314 -25 205 hintmask 00000000
          hintmask 10110101
          -100 callsubr
          hintmask 11010101
          -10 callsubr
          hintmask 10110101
          -58 -56 12 -62 hhcurveto
          hintmask 00001010
          20 171 -94 callgsubr
          endchar
        </CharString>
        <CharString name="uni1E6A">
          10 0 callsubr
          14 callgsubr
          400 283 -270 241 hintmask 11001000
          -88 callgsubr
          hintmask 00110000
          -432 135 rmoveto
          -91 callgsubr
        </CharString>
        <CharString name="uni1E6B">
          -324 31 callsubr
          485 320 hstemhm
          110 283 -232 209 hintmask 00000000
          hintmask 11000100
          29 callgsubr
          hintmask 10100100
          -12 callsubr
          hintmask 11000100
          -85 callsubr
          hintmask 00011000
          -118 746 rmoveto
          -91 callgsubr
        </CharString>
        <CharString name="uogonek">
          51 30 callsubr
          341 -54 callsubr
          29 callsubr
          234 195 -66 205 hintmask 10111100
          744 hmoveto
          3 hlineto
          4 callgsubr
          10 28 -1 44 -3 12 rrcurveto
          -9 -24 -18 -6 -36 hhcurveto
          -110 -44 57 92 76 68 71 54 65 hvcurveto
          113 hlineto
          hintmask 11011010
          -48 65 -33 43 -15 -50 callgsubr
          -9 72 -3 83 86 vvcurveto
          112 9 112 3 88 vhcurveto
          5 121 -3 42 2 66 rrcurveto
          -285 hlineto
          33 -66 20 -42 11 -121 rrcurveto
          8 -88 4 -112 -112 vvcurveto
          -39 -1 -38 -1 -37 vhcurveto
          -100 -35 -74 -105 -117 hhcurveto
          -117 -18 132 167 120 9 118 3 94 hvcurveto
          -49 callgsubr
          -289 hlineto
          33 -66 19 -42 12 -121 rrcurveto
          9 -88 -2 -257 -112 vvcurveto
          -207 89 -137 170 137 102 90 102 60 vhcurveto
          hintmask 10111010
          6 -83 10 -46 14 -43 rrcurveto
          endchar
        </CharString>
        <CharString name="uring">
          51 -20 -54 callsubr
          140 93 306 93 29 callsubr
          -110 164 214 164 -69 205 hintmask 0110010010000000
          -85 callgsubr
          hintmask 1010010010000000
          -100 -35 -74 -105 -117 hhcurveto
          -117 -18 132 167 120 9 118 3 94 hvcurveto
          -49 callgsubr
          -289 hlineto
          33 -66 19 -42 12 -121 rrcurveto
          9 -88 -2 -257 -112 vvcurveto
          -207 89 -137 170 137 102 90 102 60 vhcurveto
          hintmask 0110010010000000
          6 -83 10 -46 14 -43 rrcurveto
          hintmask 0001101100000000
          -332 1375 rmoveto
          -65 callgsubr
        </CharString>
        <CharString name="utilde">
          51 -20 -54 callsubr
          210 -1 callgsubr
          156 202 -158 729 -208 205 hintmask 01100101
          -85 callgsubr
          hintmask 10100101
          -100 -35 -74 -105 -117 hhcurveto
          -117 -18 132 167 120 9 118 3 94 hvcurveto
          -49 callgsubr
          -289 hlineto
          33 -66 19 -42 12 -121 rrcurveto
          9 -88 -2 -257 -112 vvcurveto
          -207 89 -137 170 137 102 90 102 60 vhcurveto
          hintmask 01100101
          6 -83 10 -46 14 -43 rrcurveto
          hintmask 00000000
          -454 1228 -14 callsubr
          hintmask 00001010
          -69 callsubr
          hintmask 00010010
          -54 callgsubr
        </CharString>
        <CharString name="v">
          -34 -29 callgsubr
          hstemhm
          -21 1008 -658 301 hintmask 11100000
          623 1010 rmoveto
          31 -48 25 -35 -80 vvcurveto
          -93 -99 -317 -74 -218 vhcurveto
          -70 230 -106 353 79 -33 callgsubr
          122 279 11 callgsubr
        </CharString>
        <CharString name="w">
          -11 callgsubr
          hstem
          534 61 70 221 218 62 vstem
          -105 callsubr
          endchar
        </CharString>
        <CharString name="wacute">
          -11 callgsubr
          540 -20 hstemhm
          534 61 63 421 -414 221 218 62 hintmask 11010110
          -105 callsubr
          hintmask 00101000
          224 1384 rmoveto
          -97 callgsubr
          endchar
        </CharString>
        <CharString name="wcircumflex">
          -11 callgsubr
          425 115 hstemhm
          415 666 -547 61 70 221 218 62 hintmask 11001110
          -105 callsubr
          hintmask 00110000
          132 1014 -98 callgsubr
        </CharString>
        <CharString name="wdieresis">
          -11 callgsubr
          205 320 hstemhm
          389 718 -573 61 70 221 218 62 hintmask 11001110
          -105 callsubr
          hintmask 00110000
          -325 1049 -92 callgsubr
        </CharString>
        <CharString name="wgrave">
          -11 callgsubr
          540 -20 hstemhm
          438 421 -325 61 70 221 218 62 hintmask 11001110
          -105 callsubr
          hintmask 00110000
          -417 1384 -79 callsubr
        </CharString>
        <CharString name="x">
          -70 -29 callgsubr
          hstem
          28 915 vstem
          797 822 rmoveto
          73 115 11 11 42 62 rrcurveto
          -295 hlineto
          12 -37 7 -27 -32 vvcurveto
          -102 -53 -113 -64 -71 vhcurveto
          -48 83 -43 88 92 vvcurveto
          46 13 33 13 40 vhcurveto
          -415 hlineto
          45 -66 7 -10 74 -113 58 -88 61 -96 55 -91 -39 -80 -71 -111 -76 -127 -69 -115 -27 -48 -40 -65 rrcurveto
          305 hlineto
          -13 40 -13 33 45 vvcurveto
          105 59 101 64 91 vhcurveto
          53 -87 79 -125 -78 vvcurveto
          -48 -20 -36 -14 -41 vhcurveto
          415 hlineto
          -43 60 -5 16 -78 112 -71 101 -79 116 -66 106 49 84 52 77 95 150 rrcurveto
          endchar
        </CharString>
        <CharString name="y">
          -41 -24 callsubr
          hstem
          121 208 333 211 vstem
          -102 callgsubr
          endchar
        </CharString>
        <CharString name="yacute">
          -3 -24 callsubr
          540 -20 hstemhm
          121 208 83 421 -171 211 hintmask 11101010
          -102 callgsubr
          hintmask 00010100
          139 1144 rmoveto
          -97 callgsubr
          endchar
        </CharString>
        <CharString name="ycircumflex">
          -41 -24 callsubr
          425 115 hstemhm
          121 208 -180 666 -153 211 hintmask 11101010
          -102 callgsubr
          hintmask 00010100
          27 774 -98 callgsubr
        </CharString>
        <CharString name="ydieresis">
          -3 -24 callsubr
          205 320 hstemhm
          121 208 -196 718 -189 211 hintmask 11101010
          -102 callgsubr
          hintmask 00010100
          -420 809 -92 callgsubr
        </CharString>
        <CharString name="yen">
          -32 21 -21 382 100 225 100 723 -20 hstem
          413 242 vstem
          413 482 rmoveto
          -134 2 -143 6 -88 22 rrcurveto
          -160 vlineto
          88 23 143 5 134 1 rrcurveto
          -140 vlineto
          -96 -15 -58 -114 -87 vhcurveto
          511 hlineto
          -102 69 -38 58 137 vvcurveto
          117 16 callgsubr
          -87 -20 -121 -7 -117 -2 rrcurveto
          223 16 callgsubr
          -85 -19 -117 -7 -114 -3 24 130 70 148 55 119 56 120 90 152 50 53 rrcurveto
          -275 hlineto
          12 -63 -25 -146 -41 -106 -26 -67 -30 -79 -45 -68 -49 76 -32 77 -25 61 -42 104 -14 148 22 63 rrcurveto
          -415 hlineto
          80 -53 73 -171 53 -111 37 -79 93 -173 37 -136 -129 2 -136 7 -84 21 rrcurveto
          -160 vlineto
          88 23 143 5 135 1 rrcurveto
          -8 -1 -106 -110 vvcurveto
          endchar
        </CharString>
        <CharString name="ygrave">
          -41 -24 callsubr
          540 -20 hstemhm
          121 208 -137 421 49 211 hintmask 11101010
          -102 callgsubr
          hintmask 00010100
          -502 1144 -79 callsubr
        </CharString>
        <CharString name="z">
          12 callsubr
          hstem
          80 28 688 27 vstem
          -91 callsubr
          endchar
        </CharString>
        <CharString name="zacute">
          12 callsubr
          520 -20 hstemhm
          80 28 265 421 2 27 hintmask 11010100
          -91 callsubr
          hintmask 00101000
          325 746 rmoveto
          -97 callgsubr
          endchar
        </CharString>
        <CharString name="zcaron">
          12 callsubr
          520 -20 hstemhm
          80 28 30 666 -8 27 hintmask 11010100
          -91 callsubr
          hintmask 00101000
          -237 746 -87 callsubr
        </CharString>
        <CharString name="zdotaccent">
          12 callsubr
          547 -20 hstemhm
          80 28 206 314 168 27 hintmask 11010100
          -91 callsubr
          hintmask 00101000
          2 417 -94 callgsubr
          endchar
        </CharString>
        <CharString name="zero">
          147 -20 100 1370 100 hstem
          128 272 418 272 vstem
          609 80 rmoveto
          -140 -69 270 570 353 51 177 158 158 51 -177 -353 -570 -69 -270 -140 hvcurveto
          -100 vmoveto
          327 154 398 484 398 -134 290 -347 -347 -134 -290 -398 -484 154 -398 327 hvcurveto
          endchar
        </CharString>
      <CharString index="0">
        890 1338 rmoveto
        29 -335 -15 -266 -1 -224 rrcurveto
        -235 -1 -59 -198 -177 hhcurveto
        -176 -46 175 120 -8 hvcurveto
        -19 222 15 399 332 vvcurveto
        118 32 52 27 32 vhcurveto
        -379 hlineto
        28 -32 28 -73 -117 vvcurveto
        -1 -749 rlineto
        -395 -1 155 -184 295 hhcurveto
        309 131 165 434 174 -2 336 16 259 hvcurveto
        6 97 41 53 24 32 rrcurveto
        -328 hlineto
        32 -38 35 -37 10 -117 rrcurveto
        return
      </CharString>
      <CharString index="1">
        hmoveto
        278 hlineto
        -48 65 -33 43 -15 -50 callgsubr
        -9 72 -3 83 86 vvcurveto
        112 9 112 3 88 vhcurveto
        5 121 -3 42 2 66 rrcurveto
        -285 hlineto
        33 -66 20 -42 11 -121 rrcurveto
        8 -88 4 -112 -112 vvcurveto
        -39 -1 -38 -1 -37 vhcurveto
        hintmask 10101010
        -100 -35 -74 -105 -117 hhcurveto
        -117 -18 132 167 120 9 118 3 94 hvcurveto
        -49 callgsubr
        -289 hlineto
        33 -66 19 -42 12 -121 rrcurveto
        9 -88 -2 -257 -112 vvcurveto
        -207 89 -137 170 137 102 90 102 60 vhcurveto
        hintmask 01101010
        6 -83 10 -46 14 -43 rrcurveto
        hintmask 00010100
        return
      </CharString>
      <CharString index="2">
        hintmask 01110100
        808 307 rmoveto
        14 -150 16 -20 -25 -137 rrcurveto
        349 hlineto
        -123 157 -138 1021 -18 153 -10 87 8 66 41 46 rrcurveto
        -315 hlineto
        -134 -158 -383 -293 -847 vvcurveto
        hintmask 10110100
        -89 0 -84 -24 -60 vhcurveto
        299 hlineto
        -72 155 -28 105 223 vvcurveto
        130 22 117 34 104 vhcurveto
        181 44 272 -196 34 -374 rrcurveto
        -191 1021 rmoveto
        18 -95 25 -111 52 -283 -98 123 -173 7 -79 -30 79 181 109 132 67 76 rrcurveto
        return
      </CharString>
      <CharString index="3">
        hmoveto
        290 hlineto
        -52 42 -43 28 -16 80 rrcurveto
        -26 122 13 141 121 vvcurveto
        322 -52 174 -278 vhcurveto
        -202 -71 -70 -101 hhcurveto
        -5 -25 -11 -53 -59 vvcurveto
        -75 18 -84 71 -44 vhcurveto
        145 35 102 165 125 hhcurveto
        -84 callgsubr
        return
      </CharString>
</ttFont>
